<?xml version="1.0" encoding="utf-8"?>
<!-- Generator: Adobe Illustrator 18.0.0, SVG Export Plug-In . SVG Version: 6.00 Build 0)  -->
<!DOCTYPE svg PUBLIC "-//W3C//DTD SVG 1.1//EN" "http://www.w3.org/Graphics/SVG/1.1/DTD/svg11.dtd">
<svg version="1.1" xmlns="http://www.w3.org/2000/svg" xmlns:xlink="http://www.w3.org/1999/xlink" x="0px" y="0px"
	 viewBox="0 0 306 396" enable-background="new 0 0 306 396" xml:space="preserve">
<g id="Layer_2">
	<polygon fill="#FDD09C" points="213.1,6 210.8,0 306,0 306,2.4 	"/>
	<polygon fill="#FDD09C" points="0,1.4 0,0 58.8,0 58.5,0.7 	"/>
</g>
<g id="Layer_1">
	<path fill="#FDD09C" d="M210.7,0.2c31.5,0,62.9,0,94.4,0c0.9,0,1.1,0.1,1.1,1.1c0,131.3,0,262.6,0,393.9c0,1-0.3,1.1-1.1,1.1
		c-51.8,0-103.6,0-155.4,0c-0.2-0.6,0.1-1,0.4-1.4c0.4-0.5,0.9-1,1.4-1.5c3.4-2.9,6-6.5,8.5-10.3c1.7-2.6,3.3-5.3,4.7-8.1
		c0.5-1,0.9-1.9,1.2-3c0.5-1.9,1.2-3.7,2.2-5.4c0.6-1,1-2,1.3-3.1c0.2-0.7,0.3-1.5,0.7-2.2c1.5-3.3,2.1-6.8,2.5-10.3
		c0.4-3.3,1.1-6.7,1-10.1c0-1.6,0-3.1,0.2-4.7c0.3-1.7-0.3-3.4-0.2-5.1c0.1-3.2,0-6.4-0.1-9.6c-0.1-2.3-0.4-4.5-0.8-6.7
		c-0.3-1.8-0.2-3.7-0.1-5.5c0-0.6,0.1-1.3-0.1-1.9c-0.5-2.2-0.5-4.5-0.5-6.8c0-1-0.1-2.1-0.3-3.1c-0.1-0.5-0.3-1.1-0.3-1.7
		c0.1-3.2-0.9-6.2-1.5-9.3c-0.1-0.7-0.1-1.4-0.1-2c0.1-2.3,0-4.6-0.6-6.9c-0.2-0.7-0.2-1.3-0.1-2c0.1-2.5,0-5-0.6-7.5
		c-0.1-0.5-0.1-1.1-0.1-1.7c0.1-2.4,0-4.9-0.6-7.3c-0.1-0.5-0.1-1.1-0.1-1.7c0.1-2.7,0-5.4-0.6-8c-0.1-0.2-0.1-0.5-0.1-0.7
		c0.3-3.6-0.3-7.1-0.8-10.6c-0.4-2.9-1.2-5.8-2.6-8.4c-1.5-2.8-2.3-5.7-2.3-8.8c0-2.2-0.4-4.5,0-6.7c0.7-3.2,0.6-6.5,0.6-9.7
		c0-2.2-0.1-4.5,0.5-6.7c0.6-2.1,0.2-4.4,0.2-6.5c0-0.9,0.2-1.8,0-2.6c-0.3-2.2,0.5-4.3,0.6-6.4c0.2-4.5,1.3-8.8,1.7-13.3
		c0.4-4.3,1.4-8.4,2.6-12.5c0.2-0.7,0.6-1.3,0.9-2c0.7-1.4,1.4-2.8,1.7-4.3c0.3-1.7,1.3-3,2-4.5c1.4-3.2,2.5-6.6,4.1-9.7
		c1.3-2.5,2.8-5,3.8-7.7c1.7-4.3,3.9-8.2,6.3-12.1c1.3-2.1,2.9-4.1,4.2-6.2c2-3.2,4.3-6.2,6.2-9.4c0.9-1.5,2.2-2.7,3.3-4.1
		c0.4-0.5,0.8-0.9,1.1-1.4c1.8-3.6,4.6-6.5,6.9-9.7c2.2-3.1,4.2-6.3,5.4-9.8c0.2-0.6,0.4-1.2,0.8-1.7c2.2-2.9,3.5-6.2,4.6-9.6
		c0.8-2.7,2.3-5.1,2.8-7.9c0.7-4.2,2.1-8.2,2.8-12.4c0.3-1.9,0.1-3.8-0.3-5.7c-0.6-2.9-1.6-5.8-2.9-8.5c-0.6-1.2-0.9-2.4-1.1-3.7
		c-0.9-4.5-2.9-8.7-4.7-13c-1.4-3.4-3.3-6.6-4-10.2C211.3,1.9,210.4,1.2,210.7,0.2z"/>
	<path fill="#FDBABA" d="M210.7,0.2c0.9,1.3,1.3,2.9,1.7,4.4c0.7,2.6,2.1,5,3.2,7.5c2,4.8,4.2,9.5,5.2,14.6c0.3,1.7,1.2,3.1,1.8,4.7
		c1.3,3.3,2.3,6.6,2.5,10.2c0.1,2-0.5,4-1,5.9c-1,4-1.5,8.2-3.1,12c-1.3,3.3-2.2,6.8-3.8,10.1c-0.3,0.7-0.7,1.5-1.2,2.1
		c-2.3,2.9-3,6.5-5,9.5c-1.5,2.3-2.9,4.6-4.7,6.8c-1.5,1.8-3.2,3.5-4.1,5.7c-0.8,2-2.4,3.5-3.8,5.1c-1.4,1.5-2.2,3.4-3.5,5
		c-2.2,2.6-3.7,5.7-5.7,8.4c-2.7,3.7-5,7.6-7,11.8c-1.8,3.7-3.2,7.6-5.4,11.2c-1.9,3.3-2.8,7-4.6,10.4c-1.7,3.3-2.4,7-4.2,10.3
		c-1,1.9-1.2,4.3-1.8,6.4c-1.1,4.4-1.1,9-2,13.4c-0.5,2.4-0.5,4.9-0.8,7.3c-0.1,0.7-0.4,1.4-0.4,2.1c-0.2,2,0,4.1-0.1,6.1
		c-0.1,2.6,0.4,5.2-0.5,7.7c-0.2,0.4-0.1,0.9-0.2,1.4c-0.1,2.5-0.3,5-0.1,7.5c0.2,2.4-0.8,4.7-0.7,6.9c0.2,5.1-0.3,10.3,2.5,15.1
		c1.6,2.8,2.1,6.1,2.7,9.3c0.8,4.4,0.1,8.9,1.3,13.2c0.2,0.6,0.1,1.3,0.1,1.9c0,2.5,0.1,5,0.6,7.5c0.3,1.3,0.1,2.8,0.1,4.2
		c0,1.3,0.2,2.5,0.5,3.8c0.2,0.8,0.3,1.6,0.3,2.4c0,2.7-0.1,5.3,0.6,8c0.2,0.9,0.1,1.9,0.1,2.9c-0.1,2.6,0.2,5.1,1.1,7.5
		c0.7,1.9,0.1,4,0.6,5.9c0.6,2.4,0.5,4.8,0.5,7.3c0,0.7,0.1,1.3,0.2,2c0.2,1.4,0.4,2.8,0.3,4.3c-0.2,2.7,0,5.4,0.8,8.1
		c0.2,0.9,0.3,1.7,0,2.6c-0.3,0.9,0,1.7,0.2,2.5c0.5,2.9-0.2,5.7,0,8.6c0.1,1.9,0,3.8,0.1,5.7c0.1,4.2-0.8,8.3-0.8,12.5
		c0,0.8-0.1,1.6-0.3,2.4c-0.4,1.5-0.9,3.1-1,4.7c-0.2,2-1.5,3.7-1.8,5.7c-0.4,2.5-2,4.4-2.8,6.7c-0.3,0.9-0.7,1.7-0.8,2.6
		c-0.3,1.4-1.1,2.6-1.7,4c-1.5,3.8-3.9,7-6.2,10.2c-1.8,2.6-3.6,5.4-6.4,7.2c-1,0.7-1.9,1.7-2.5,2.8c-4,0-8,0-12,0
		c-0.5-0.4-0.7-0.9-0.7-1.5c-0.2-3.9-1.2-7.6-2.3-11.3c-0.5-1.7-0.7-3.4-0.5-5.2c0.3-2.2,0.5-4.4,0.8-6.7c0.1-1,0.5-1.8,1.3-2.3
		c2.2-1.7,4.4-3.3,7.3-3.6c1.4-0.1,2.4-1.4,2.1-2.8c-0.3-1.9,0.5-3.1,2.1-3.8c0.4-0.2,0.8-0.5,1.2-0.7c1.9-1.3,2.3-3,1.2-5
		c-0.1-0.2-0.3-0.5-0.4-0.7c-0.7-0.9-0.6-1.8,0.1-2.7c0.9-1,1.5-2,1.3-3.5c-0.1-0.8-0.3-1.6-0.9-2.1c-1.5-1.3-2.3-3-2.8-4.9
		c-0.4-1.4-0.8-2.8-1.3-4.1c-0.6-1.5-0.5-1.9,0.9-2.7c2-1.1,3.6-2.7,5-4.4c1.7-2,2.5-4.5,2.6-7.1c0.2-2.6,0.3-5.3,0.3-7.9
		c0-6.1-0.6-12.1-2-18.1c-1.4-5.9-2.3-12-3.7-18c-2.4-10-5.5-19.7-10.2-28.9c-2.2-4.2-4.5-8.3-7.7-11.8c-2.4-2.7-5.2-4.9-8.8-5.8
		c-3.1-0.8-6-0.2-8.3,2.3c-3.6,4-6.3,8.5-8.7,13.3c-0.3,0.6-0.5,1.3-1.1,1.7c-0.7,0.1-0.8-0.4-1-0.8c-1-2.3-3.9-1.9-4.9-0.2
		c-1,1.8-1.8,3.5-0.8,5.5c0.5,1,1.2,1.8,2.4,2c0.6,0.1,1.1,0.1,1.2,0.9c-0.2,1-0.4,2-1.3,2.6c-1.4,0.1-2.5-0.6-3.5-1.3
		c-1.1-0.8-2.1-1.7-3.3-2.4c-2.7-1.6-5.5-0.5-6.4,2.5c-0.7,2.3-1.3,4.6-2.7,6.6c-1.1,1.6-0.9,3.4-0.1,5.1c0.6,1.2,2.5,1.9,3.8,1.4
		c1.2-0.4,2.3-1,3.3-1.6c1.1-0.7,2.3-1.3,3.6-1.6c0.6-0.1,1.3-0.2,1.7,0.3c0.4,0.5,0,1-0.2,1.5c-0.2,0.5-0.4,1-0.5,1.5
		c-0.7,2.2-1.5,4.4-2.5,6.5c-0.9,2.1-2.4,3.6-4.9,3.9c-5.2,0.7-10.4,1.3-15.6,2.1c-1.1,0.1-2-0.1-2.7-0.9
		c-3.5-3.8-7.2-7.3-10.8-10.9c-2.6-2.7-5.4-5.2-8.1-7.8c-0.4-0.4-0.8-0.7-0.9-1.2c0-0.5,0.3-0.9,0.7-1.2c3.8-4.2,7.4-8.6,10.8-13.2
		c2.4-3.2,4.1-6.9,5.7-10.5c1.9-4.5,3.4-9.2,4.2-14.1c0.8-5,0.4-9.9-0.3-14.9c-0.6-4-0.9-7.9-2.4-11.7c-1.9-4.9-4.2-9.4-7.8-13.2
		c-3.2-3.3-5.7-7.2-7.9-11.2c-0.6-1.2-1.1-2.4-1.1-3.8c-0.2-2.7-0.2-5.4,0-8c0.1-1.8,0.4-3.5,0.4-5.3c0-2.8,0.5-5.4,1.3-8
		c2.6-7.9,5.3-15.7,8.9-23.2c2.1-4.4,4.4-8.8,6.8-13.1c4.6-8.2,8.9-16.5,13.6-24.7c2.8-4.8,5.2-9.9,6.7-15.2
		c1.3-4.7,1.3-9.5,1.1-14.4c-0.2-3.4-0.5-6.7-1-10c-0.5-3-1-6-2-8.9c-1-2.7-2.4-5.2-4.2-7.3c-1.9-2.2-3.5-4.5-5.2-6.7
		c-4.7-6-9.6-11.8-15.1-17.2c-1.4-1.4-2.9-2.6-4.4-3.9c-0.4-0.4-1-0.6-0.8-1.3C109.3,0.2,160,0.2,210.7,0.2z"/>
	<path fill="#FED19C" d="M58.6,0.2c1,0.9,2.1,1.9,3.1,2.8c3.8,3.2,7,7,10.3,10.7c4.1,4.6,7.7,9.6,11.5,14.4c1.8,2.3,3.5,4.6,4.7,7.2
		c0.9,2.1,1.5,4.3,1.9,6.5c0.3,1.7,0.7,3.4,0.9,5.2c0.3,1.9,0.5,3.8,0.7,5.7c0.4,5.7,0.7,11.3-0.7,16.9c-1.4,5.3-3.6,10.2-6.3,15
		c-2.2,3.9-4.4,7.9-6.6,11.8c-2.9,5.3-5.9,10.6-8.7,16c-3.5,6.5-6.8,13-9.5,19.9c-2.1,5.3-3.9,10.7-5.5,16.2
		c-0.4,1.2-0.7,2.5-0.7,3.8c0,4.2-0.6,8.4-0.6,12.7c0,3.3,0.9,6.1,2.6,8.8c2.2,3.5,4.7,6.7,7.5,9.7c3.2,3.4,5.2,7.6,6.8,12
		c1.4,3.6,2,7.4,2.3,11.2c0.3,2.9,0.9,5.8,0.9,8.8c0,6.6-1.4,13-3.8,19.1c-1.3,3.3-2.8,6.4-4.4,9.4c-1.6,3.1-3.9,5.7-6.1,8.4
		c-2.5,3.1-5,6.2-7.8,9.1c-0.7,0.3-1.1-0.3-1.5-0.6c-3.5-3-7.2-5.6-11.3-7.6c-1-0.5-2.1-1-3.2-1.3c-4.6-1.3-8.7-0.6-12.1,2.8
		c-0.3,0.3-0.6,0.7-1.2,0.6c-0.4-0.5,0-1,0.2-1.4c1.5-2.8,3-5.5,4.4-8.2c0.4-0.8,1-1.3,1.9-1.4c0.4-0.1,0.7-0.1,1.1-0.2
		c2.3-0.7,3.1-2.5,2.1-4.7c-0.4-0.9-1-1.4-2-1.2c-1.1,0.2-1.7-0.2-2.3-1c-1-1.4-2.3-1.7-3.9-1c-1.5,0.7-2,1.9-1.6,3.6
		c0.1,0.4,0.2,0.9,0.4,1.2c0.8,1.3,0.6,2.5,0,3.8c-1.5,3.2-3.2,6.4-4.7,9.6c-0.4,0.9-1,1.5-2,1.6c-0.5,0.1-1,0.2-1.5,0.5
		c-1.8,0.9-2.4,3.8-1,5.3c0.4,0.4,0.9,0.5,1.4,0.3c1.9-0.5,1.9-0.5,2.8,1.2c0.1,0.2,0.3,0.4,0.3,0.7c-0.1,1.5-0.7,2.8-1,4.2
		c-0.9,4.3-1.3,8.6-1.7,12.9c-0.3,3.6,0,7.3-0.3,10.9c-0.8,1.7-2.4,2.7-3.7,3.8c-3.1,2.7-6.1,5.5-9.3,8.1c-0.4,0.3-0.7,0.8-1.3,0.6
		c0-100.9,0-201.8,0-302.8c0-0.9,0.2-1.1,1.1-1.1C20.4,0.2,39.5,0.2,58.6,0.2z"/>
	<path fill="#2F2037" d="M21.8,255.1c1.4-1.4,2.7-2.9,4.6-3.5c3.7-1.2,7.2-1.3,10.8,0.4c4.9,2.3,9.3,5.3,13.3,8.9
		c0.2,0.2,0.4,0.3,0.6,0.4c6.3,5.9,12.4,12,18.5,18.1c0.2,0.2,0.5,0.4,0.7,0.7c0.9,1.8,2.4,1.8,4.1,1.6c4.9-0.7,9.7-1.4,14.6-2
		c2.4-0.3,3.5-1.8,4.4-3.6c1-2.1,1.7-4.3,2.6-6.4c0.4-1.2,1.2-2.3,0.9-3.7c-0.1-0.6,0.4-1.1,0.5-1.7c0.6-1.8,1.4-3.6,2.1-5.5
		c0.2-0.5,0.3-1,0.8-1.3c0.5-0.7,0.8-1.5,1.1-2.3c0.1-2.2,1.3-4.1,2-6.1c0.2-0.6,0.5-1.2,1.2-1.4c0.8-2.1,1.9-4.1,3-6
		c1.8-3,3.6-6,6-8.6c1-1.1,2.1-2.2,3.6-2.8c2.8-1,5.6-0.7,8.3,0.6c4.2,2.1,7.2,5.5,9.8,9.3c5.6,8.5,9.4,17.8,12.3,27.6
		c2.5,8,3.8,16.3,5.6,24.5c1,4.8,2.1,9.5,2.4,14.4c0.2,4.5,0.2,9,0,13.5c-0.3,5.6-3.1,9.7-7.9,12.5c-1.1,0.6-1.4,1.2-0.8,2.3
		c0.7,1.5,1.1,3.1,1.5,4.7c0.4,1.5,1.1,2.9,2.3,4c1.8,1.6,1.8,3.8,0.3,5.6c-0.1,0.1-0.1,0.1-0.2,0.2c-1.3,1.6-1.3,1.6-0.2,3.2
		c1.3,2.1,1,4.2-1,5.7c-0.7,0.5-1.4,0.9-2.2,1.3c-1,0.5-1.5,1.3-1.3,2.4c0.2,1.2,0.2,2.4-1,3.4c-0.6,0.5-1.2,0.7-1.8,0.7
		c-3.1,0.1-5.2,2.2-7.5,3.9c-0.3,0.2-0.3,0.5-0.3,0.9c-0.2,2.2-0.4,4.4-0.8,6.5c-0.4,2.3,0,4.5,0.7,6.7c1.2,3.9,1.9,7.8,2.2,11.9
		c-29.1,0-58.2,0-87.4,0c-0.7-0.7-0.4-1.5-0.2-2.2c0.8-3.8,1.3-7.6,1.9-11.4c0.2-1-0.2-1.5-1.1-1.7c-0.6-0.2-1.1-0.5-1.6-0.8
		c-1.4-1-2.9-0.3-4.4-0.3c-0.9,0-1.8,0.1-2.7,0.1c-2.1,0-3.3-0.8-4.1-2.8c-0.8-2-1.6-2.6-3.7-2.6c-1.1-0.1-1.7-0.9-2.3-1.6
		c-0.6-1.3-0.5-2.7-0.1-4c0.2-0.8,0.2-1.3-0.6-1.7c-1-0.5-1.6-1.4-2.3-2.2c-0.6-1.7-0.4-3.3,0.5-4.8c0.4-0.7,0.9-1.2,1.4-1.8
		c1.8-1.7,2.4-3.9,2.5-6.3c0.1-1.9,0.2-2,2-2.6c0.1-0.4-0.3-0.5-0.6-0.6c-7.3-3.9-11.7-10.1-14.3-17.7c-2.1-6-3.2-12.2-4.1-18.4
		c-0.6-4.3-1.8-8.5-2.3-12.8c-0.3-2.3-0.3-4.5-0.5-6.8c0-0.5,0.2-0.9,0.4-1.2c0-3.8,0-7.5,0.2-11.2c0.4-5.9,1-11.7,2.9-17.3
		c-0.2-0.7,0.1-1.3,0.4-1.9c0.8-1.9,1.9-3.7,3-5.4C20.9,255.6,21.2,255.1,21.8,255.1z"/>
	<path fill="#FEBABA" d="M32.4,372.7c0.7,0.5,1,1.3,1.9,1.5c0.2,0.1,0.4,0.1,0.6,0.1c0.3,0.1,0.6,0.1,0.7,0.4
		c0.1,0.4-0.3,0.6-0.6,0.7c-0.8,0.4-1.7,0.7-2.6,1c-1.6,0.7-2.9,2.8-2.6,4.4c0.3,1.7,1.7,2.9,3.6,3.1c1,0.1,1.9,0.2,2.9,0.3
		c2.1,0.2,4,1,5.7,2.3c0.5,0.4,1.1,0.7,1.7,1.1c1.4,0.9,2.8,0.7,4-0.1c1.3-0.9,1.9-2.3,1.6-3.9c-0.2-1-0.5-2-1.1-2.9
		c-0.2-0.4-0.7-0.9-0.3-1.4c0.4-0.4,0.9-0.1,1.4,0.1c0.1,0,0.2,0.1,0.3,0.2c0.6,0.3,1.2,0.7,1.9,0.8c1,0.2,1.4,0.7,1.2,1.8
		c-0.8,4.1-1.2,8.2-2.1,12.2c-0.1,0.6-0.1,1.2-0.2,1.8c-16.4,0-32.8,0-49.2,0c-0.8,0-1-0.2-1-1c0-30.4,0-60.8,0-91.2
		c2.9-2.6,5.9-5.1,8.8-7.7c1.7-1.5,3.4-3,5.1-4.5c0.3,3.9,0.4,7.7,1.2,11.5c1.8,8.4,2.6,17.1,5.1,25.3c2.1,6.9,5.3,13.1,11.3,17.5
		c1.1,0.8,2.3,1.6,3.6,2.2c0.4,0.2,0.7,0.4,1,0.6c0.2,0.2,0.4,0.6,0.3,0.8c-0.1,0.4-0.5,0.2-0.8,0.2c-1.6,0.1-1.6,0.1-1.7,1.7
		c-0.1,2.7-0.9,5.2-3,7.2c-1.7,1.6-2.2,3.5-1.6,5.8c0.2,0.4,0.2,0.9,0.1,1.4C29.1,369,30.4,371,32.4,372.7z"/>
	<path fill="#333333" d="M248.9,127.9c-0.1-3.1-0.1-3.1,2.8-3.1c1.8,0,3.6-0.8,5.4-0.8c5.9,0.1,9.6,3.1,10.4,8.6
		c0.8,5.4-2.2,9.9-7.5,11.6c-2.8,0.9-5.6,1-8.5,0.5c-1.5-0.3-1.9-0.7-1.9-2.1C249.4,137.6,249.1,132.7,248.9,127.9z"/>
	<path fill="#333333" d="M295.8,144.1c-2.9,0.5-5.3,0.1-7.3-2.1c-1.8-2-2.5-5.3-1.3-7.8c1.2-2.6,3.3-3.8,6.1-3.6
		c2.7,0.1,5.4,0.3,8.1,0.5c0.6,0,1.1,0.3,1.1,0.9c-0.1,4.4,0.1,8.8-1.1,13.1c-1.2,4.4-5,6.5-9.8,5.9c-0.1,0-0.2,0-0.2-0.1
		c-2.7-0.5-2.8-0.7-1.8-3.2c0.3-0.7,0.7-0.8,1.4-0.7C293.9,147.1,295,146.5,295.8,144.1z"/>
	<path fill="#333333" d="M187.9,124.3c2.9,0.2,3.4-0.6,3,3.3c-0.3,3.2-0.4,6.4-0.5,9.7c0,0.8,0.3,1.1,1.1,1.1c1.4,0,2.7,0,4.1,0.1
		c0.9,0.1,1.2,0.6,1,1.4c-0.2,1.1-0.2,2.2-0.2,3.3c0,1-0.4,1.5-1.5,1.4c-3.2-0.3-6.4-0.4-9.6-0.5c-1.2,0-1.5-0.4-1.4-1.5
		c0.2-1.9,0.3-3.9,0.4-5.8c0.2-3.8,0.4-7.6,0.5-11.4c0-1,0.4-1.3,1.3-1.2C186.7,124.3,187.3,124.3,187.9,124.3z"/>
	<path fill="#333333" d="M206.5,130.3c4.8,0,8.2,3.9,7.4,8.6c-0.3,1.5-1.1,2.6-2.2,3.6c-3.5,3.2-9.1,2.9-11.8-0.7
		c-2.6-3.4-1.4-8.7,2.4-10.6C203.5,130.6,204.7,130.3,206.5,130.3z"/>
	<path fill="#333333" d="M277.4,130.3c4.9,0,8.2,3.7,7.5,8.5c-0.2,1.5-1.1,2.6-2.2,3.6c-3,2.8-8.1,3-11,0.4c-2.1-1.9-2.9-5-1.8-7.9
		c1.1-2.9,3.4-4.3,6.4-4.7C276.7,130.3,277,130.3,277.4,130.3z"/>
	<path fill="#333333" d="M235.2,129.4c-0.1,0.8-0.3,1.9,1.4,1.7c0.5,0,0.6,0.5,0.6,0.9c0,0.9,0,1.8-0.1,2.6
		c-0.1,0.9-0.2,1.7-1.5,1.5c-0.3-0.1-0.7,0.1-0.7,0.5c0,1.3-0.1,2.7,1.2,3.6c0.5,0.4,0.6,0.8,0.4,1.3c-0.2,0.5-0.5,1.1-0.7,1.7
		c-0.7,1.8-0.8,1.8-2.7,1.2c-2.2-0.8-3.2-2.5-3.6-4.6c-0.2-0.9-0.4-1.9-0.3-2.9c0.1-0.8-0.3-1.2-1.1-1.2c-1.1,0.1-1.4-0.4-1.1-1.5
		c0.2-0.7,0.1-1.5,0.1-2.3c0-0.8,0.3-1.4,1.3-1.3c0.7,0.1,0.9-0.3,0.9-0.9c0-0.2,0-0.3,0-0.5c0.1-2.2,0.1-2.2,2.4-2
		c0.6,0,1.1,0,1.7,0C235.3,127.2,235.3,127.2,235.2,129.4z"/>
	<path fill="#333333" d="M218.4,144.8c-1.1,0.2-1.9-0.2-2.2-1.4c-0.1-0.3-0.2-0.5-0.3-0.8c-0.5-1.4-0.5-1.4,0.9-1.7
		c1.5-0.2,1.8-1,0.9-2.2c-0.5-0.7-1.1-1.3-1.6-2.1c-1.1-1.8-0.8-3.4,1-4.6c1.8-1.2,3.8-1.5,5.9-1.5c0.5,0,0.8,0.3,1,0.7
		c0.1,0.4,0.3,0.8,0.4,1.1c0.6,1.6,0.6,1.6-1,2.1c-1.1,0.3-1.3,1-0.6,1.9c0.5,0.6,1,1.1,1.4,1.8c1.6,2.2,1.1,4.1-1.3,5.5
		C221.9,144.2,220.3,144.6,218.4,144.8z"/>
	<path fill="#483354" d="M114.5,118.4c-1.4,0.3-2.7-0.5-3.9-1.1c-2.2-1.1-4.4-1.3-6.7-0.8c-1.9,0.4-4.1,0.4-5.5-1.4
		c-1.6-2-0.9-5.1,1.2-6.6c0.8-0.6,1.7-1,2.5-1.6c1.1-0.9,1.9-2,2.7-3.1c1.7-2.5,5.6-3,7.6-0.4c0.8,1,1.4,2.1,1.9,3.3
		c0.7,1.7,2.2,2.9,3.3,4.3c1.7,2.3,1,5.7-1.1,7C115.8,118.4,115.2,118.5,114.5,118.4z"/>
	<path fill="#483354" d="M145.9,51.1c-1.1,0.2-2.3-0.6-3.2-1.3c-2.6-2-5.5-2.7-8.7-2.7c-1.8,0-3.9-1.5-4.3-2.8
		c-0.4-1.7,0.5-4.1,2-5.1c0.7-0.5,1.4-1,2.2-1.1c2-0.5,3.3-2,4.7-3.3c1.9-1.8,5.9-1.9,7.4,1.1c0.5,0.9,0.9,1.9,1.1,2.9
		c0.4,2.1,1.7,3.9,2.8,5.7c1.1,2,0,5.5-2.1,6.5C147.1,51.1,146.6,51,145.9,51.1z"/>
	<path fill="#483354" d="M188.3,20.4c0.5,0.1,1.1-0.1,1.6,0.2c1.5,0.7,3,0.4,4.5,0.2c2-0.2,3.9-0.3,5.5,1.1c1.2,1,2,3.4,1.4,4.9
		c-1,2.3-1.5,4.7-1.5,7.3c0.1,2.6-1.7,4.3-4.2,4.9c-1.4,0.3-3.3-0.9-4.2-2.7c-0.5-1-1-2-1.5-3.1c-1-2.1-2.9-3.1-4.7-4.4
		c-0.9-0.7-1.9-1.5-2.3-2.7c-0.8-2.7,1.8-5.6,4.4-5.7C187.7,20.4,188,20.4,188.3,20.4z"/>
	<path fill="#483354" d="M147,85.8c-0.1-2.7,2.1-4.6,4.4-5c1.6-0.3,3.2,0.4,4.7-0.2c1.4-0.5,2.8-0.9,4.4-1c1.7-0.2,4,0.9,4.6,2.5
		c0.5,1.5,0.7,3,0.2,4.7c-0.5,1.7-0.2,3.5,0.1,5.3c0.6,2.8-1.3,5.3-3.9,5.9c-1.3,0.3-2.3-0.6-3.3-1.3c-1-0.8-1.6-1.8-2.2-2.8
		c-1.2-2-3-3-5-3.8c-1.1-0.4-2.1-1.1-3-1.8C147.1,87.5,146.7,86.7,147,85.8z"/>
	<path fill="#483354" d="M80.6,186.1c0-1.5,0.6-2.9,1.8-3.9c1.6-1.3,2.6-3,3.5-4.8c1-2,2.5-3.5,5-3.3c1.5,0.1,2.7,1,3.5,2
		c1.6,2.3,3.7,4,5.8,5.8c2,1.7,2,5.5-0.4,7.1c-1.4,0.9-2.9,0.8-4.4,0.3c-2.3-0.8-4.5-0.8-6.9,0c-1.2,0.4-2.5,1-3.9,1
		C82.2,190.3,80.5,188.6,80.6,186.1z"/>
	<path fill="#483354" d="M137.4,223.9c0.3,2.6-2.2,4.7-4.2,4.4c-0.9-0.2-1.8-0.4-2.6-0.9c-2.2-1.4-4.4-2.5-7.2-2.2
		c-1.5,0.1-3,0.2-4.4-0.6c-1.4-0.7-2.2-2.2-1.8-3.8c0.1-0.7-0.1-1.3,0.2-2c0.6-1.1,1.4-2,2.5-2.4c2.1-0.8,3.8-2.1,5.6-3.6
		c1.5-1.3,3.2-2.2,5.4-1.5c1,0.3,1.7,0.9,2.2,1.7c0.8,1.2,1.3,2.5,1.5,3.9c0.1,1.1,0.6,2.1,1.4,3C136.8,221,137.5,222.3,137.4,223.9
		z"/>
	<path fill="#483354" d="M141.6,148.2c-0.2,1.5,0.4,3,1,4.5c1.2,3,0.7,5-1.7,6.9c-0.9,0.7-3.6,0.2-4.9-0.8c-1.5-1.1-2.6-2.7-4.2-3.6
		c-1.1-0.6-2.3-0.7-3.5-1c-1.4-0.3-2.9-0.5-3.9-1.8c-1.6-2-0.9-5.3,1.4-6.6c1.1-0.6,2.2-0.9,3.5-1c2-0.3,3.6-1.7,5.5-2.4
		c3.6-1.3,6.7,0.8,6.7,4.7C141.6,147.4,141.6,147.8,141.6,148.2z"/>
	<path fill="#483354" d="M100.3,257.6c-0.3,1.7-1.1,3.1-1.7,4.7c-0.7,2.2-1.4,4.3-2.2,6.5c-0.1,0.3-0.2,0.7-0.5,0.9
		c0.1-0.8,0.5-1.5,0.8-2.3c0.2-0.5,0.1-0.6-0.4-0.6c-1.5-0.1-2.7,0.7-4,1.3c-1.1,0.6-2.1,1.3-3.2,1.8c-2.1,1-4.7,0.2-5.5-2.6
		c-0.6-2,0-3.6,1-5.1c0.8-1.2,1.5-2.2,1.6-3.7c0.1-1.1,0.5-2.3,1.1-3.2c1.3-2.4,3.8-3.2,6.7-1.6c1.1,0.6,2.2,1.4,3.2,2.3
		C98,257,99.2,257.3,100.3,257.6z"/>
	<path fill="#483354" d="M145.7,29.9c0.4-2.8,1.4-5.2,4.2-6.4c1.6-0.7,3.2,0.1,3.6,1.8c0.8,3.6-0.5,6.5-3.7,8.3
		c-1.4,0.8-3.2,0.1-3.7-1.5C145.9,31.4,145.7,30.7,145.7,29.9z"/>
	<path fill="#483354" d="M98,166.8c0,1.7-0.4,3.2-1.3,4.4c-1.5,2.1-3.3,1.9-4.7,0.1c-1.5-1.9-2.1-4.2-0.9-6.6c0.3-0.7,0.5-1.4,1-2
		c1.6-1.9,3.9-1.6,5.1,0.5C97.8,164.4,98.1,165.6,98,166.8z"/>
	<path fill="#483354" d="M142.5,132.7c-0.6,2.4-1.2,4.9-3.5,6.4c-2,1.3-4.5,0.5-4.7-2.5c-0.1-2.4,0.4-4.6,2.4-6.3
		c0.4-0.3,0.7-0.6,1.1-0.8c1.8-1.1,3.5-0.5,4.2,1.5C142.2,131.5,142.7,132,142.5,132.7z"/>
	<path fill="#483354" d="M144.9,25.4c0.2,1.9-0.8,3.6-2.3,5c-1.8,1.8-4.4,0.8-4.9-1.6c-0.5-2.2-0.3-4.6,1-6.6
		c1.2-1.8,3.6-3.1,5.4-0.8c0.5,0.6,0.7,1.4,0.8,2.2C144.9,24.2,144.9,24.7,144.9,25.4z"/>
	<path fill="#483354" d="M150.6,136.9c-0.3,3.3-2,5.5-4.8,6.6c-2.3,0.9-4.1-0.6-4-3c0.1-2.7,2-5.9,5.2-6.8
		C149.1,133.1,150.7,134.5,150.6,136.9z"/>
	<path fill="#483354" d="M169,70.7c0.1,2.7-2.2,6.1-5.6,6.8c-1.3,0.3-2.9-1.1-3.1-2.5c-0.2-1.8,0.4-3.3,1.3-4.7
		c0.7-1.1,1.8-2.1,3-2.6C166.9,66.6,169.4,68.1,169,70.7z"/>
	<path fill="#483354" d="M88.8,244.5c0-0.9,0.1-1.8,0.5-2.7c1.1-2.7,3.6-2.5,5.1-0.8c1.6,1.8,2.3,4.1,1.8,6.7
		c-0.5,2.4-2.1,3.5-4.3,2.9c-0.8-0.2-1.1-0.8-1.5-1.4C89.2,247.5,88.5,246.4,88.8,244.5z"/>
	<path fill="#483354" d="M131.3,202.7c0.1,2.1-0.6,4.1-2.5,5.5c-1.6,1.2-4,0.2-4.5-1.7c-0.6-2.4-0.5-4.7,0.9-6.9
		c0.8-1.3,2.1-2.1,3.3-1.9c1.5,0.3,2.7,1.7,2.8,3.2C131.3,201.5,131.3,202.1,131.3,202.7z"/>
	<path fill="#483354" d="M132.5,207.1c-0.1-2.8,1.3-4.8,3.2-6.3c1.5-1.2,3.5-0.3,4.3,1.5c1.3,3-1.1,8-4.1,8.7
		c-1.2,0.3-3-0.7-3.2-1.9C132.6,208.4,132.3,207.7,132.5,207.1z"/>
	<path fill="#483354" d="M207.4,12.9c-0.3,2.4-1.7,4-3.6,5.3c-0.8,0.6-1.8,0.8-2.9,1c-2.2,0.3-3.4-2.4-2.8-4.2
		c0.9-2.3,2.3-4,4.6-4.9C205.1,9.2,207.7,10,207.4,12.9z"/>
	<path fill="#483354" d="M203.5,22.9c0-2.1,2.1-4.5,4.7-5.4c1.2-0.4,2.4-0.8,3.7-0.2c1.9,0.9,2.4,3.1,1.1,4.8
		c-1.4,2-3.3,3.2-5.7,3.7C205.3,26.2,203.4,24.8,203.5,22.9z"/>
	<path fill="#483354" d="M102.5,94.8c0-2,0.3-3.5,1.4-4.9c1.5-1.8,3.7-1.3,4.9,0.7c1,1.7,1,3.5,0.7,5.4c-0.3,1.7-1,2.9-2.5,3.6
		c-1.2,0.6-2.5,0.3-3.3-0.8C102.9,97.5,102.1,96.2,102.5,94.8z"/>
	<path fill="#483354" d="M118.8,94.6c0.1,1.9-0.6,3.6-1.6,4.9c-1.4,1.8-4.1,2.6-5.6-0.6c-1.1-2.6,0.4-7.2,2.7-8.4
		c1.3-0.7,3.2-0.3,3.8,1C118.5,92.5,119,93.5,118.8,94.6z"/>
	<path fill="#483354" d="M81.7,166.6c-0.1-0.6,0.1-1.3,0.3-2c0.3-1.1,0.8-1.9,1.9-2.3c1.4-0.5,2.6,0,3.5,1.1c1.7,2.1,2.4,5.3,1,8
		c-1.1,2.2-3.2,2-4.6,0.9C82.5,171.2,81.5,168.8,81.7,166.6z"/>
	<path fill="#483354" d="M85,253.3c-1.1,0-1.9-0.4-2.5-1c-2.2-2-3.2-4.5-2.4-7.5c0.5-1.9,2.2-2.6,4-1.7c2.9,1.5,3.7,4,3.8,6.9
		C87.9,251.7,86.5,253.4,85,253.3z"/>
	<path fill="#483354" d="M169.7,82.9c-2.3,0.2-3.4-1.9-2.8-4c0.8-2.5,2.4-4.4,5.1-5.1c2.8-0.7,5,0.6,4,4
		C175.4,80.3,172.5,82.9,169.7,82.9z"/>
	<path fill="#483354" d="M158.6,72.4c0,2.9-1.6,5.1-3.6,5.8c-1.1,0.4-2.6-0.1-3.1-1.1c-1.8-3.5-0.4-7.5,3.1-8.8
		c1-0.4,1.9,0.3,2.6,1.1C158.4,70.3,158.7,71.3,158.6,72.4z"/>
	<path fill="#483354" d="M147.5,152.3c-2.6,0.1-3.9-2-3-4.3c1-2.6,3.9-4.3,6.5-4.1c1.7,0.2,2.9,2,2.4,3.9
		C152.8,149.7,149.9,152.6,147.5,152.3z"/>
	<path fill="#483354" d="M75.2,255.3c0-1.1,0.1-2.2,1.3-2.7c1.3-0.6,2.7-0.5,3.9,0.2c1.7,1,2.8,2.5,3.4,4.4c0.3,0.9-0.2,2.8-0.9,3.4
		c-0.8,0.7-2.6,0.7-3.6,0.2c-1.5-0.7-2.7-1.8-3.5-3.3C75.3,256.8,75.1,256.1,75.2,255.3z"/>
	<path fill="#483354" d="M83.1,176.5c0.2,1.6-0.7,2.5-1.8,3.3c-0.4,0.3-1,0.4-1.6,0.2c-3.1-0.9-4.3-3.3-4.7-6.1
		c-0.2-1.1,0.4-2.3,1.4-3c1-0.7,2.2-0.7,3.2-0.1C81.7,172,82.9,174,83.1,176.5z"/>
	<path fill="#483354" d="M115.7,207.7c-0.2-1,0.1-1.9,0.5-2.8c0.9-1.8,3.2-2.4,4.7-0.8c1.6,1.7,2.3,3.8,1.8,6.1
		c-0.3,1.5-1,2.8-2.6,3.1c-1.5,0.3-3-0.9-3.8-2.7C115.9,209.7,115.5,208.7,115.7,207.7z"/>
	<path fill="#483354" d="M189.1,14.9c0-2.8,1.7-5.1,4.1-6.1c1.2-0.5,2.1,0.2,2.7,0.9c0.8,0.9,1.2,2.2,0.9,3.5c-0.4,1.6-1,3-2.3,4.1
		c-1.2,1.1-2.5,1.5-3.9,0.8C189.3,17.5,189,16.2,189.1,14.9z"/>
	<path fill="#483354" d="M105.4,172.5c0,2.1-0.8,3.9-2.4,5.2c-1.7,1.4-4.1,1-4.9-1.3c-1-3,0.8-6.3,3.1-7.5c1.6-0.9,4,0.6,4.2,2.6
		C105.4,171.7,105.4,172.1,105.4,172.5z"/>
	<path fill="#483354" d="M102.2,101.4c0.1,1.1-0.3,2-0.8,2.7c-1.3,1.8-3.1,1.8-4.6,0.2c-2.1-2-2.7-5.1-1.5-7.2
		c0.9-1.6,2.4-2.1,4-1.1c1.3,0.8,2.5,1.8,2.6,3.6C101.8,100.2,102.4,100.7,102.2,101.4z"/>
	<path fill="#483354" d="M125.4,137.5c0.2-1.6,0.4-3.1,1.6-4.3c0.8-0.8,1.8-1.1,2.8-0.9c1.3,0.3,2.3,1.3,2.5,2.6
		c0.4,1.9,0.4,3.9-0.8,5.7c-0.7,1.1-1.6,1.8-2.8,1.7c-1.2-0.1-2.3-0.6-2.8-2C125.7,139.3,125.3,138.5,125.4,137.5z"/>
	<path fill="#483354" d="M171,91.8c-2.6,0.1-3.6-1.2-3.7-2.7c-0.1-1.2,0.6-2.2,1.3-2.9c1.6-1.7,3.7-2.2,6-2c1.7,0.2,2.8,2.3,2.2,3.9
		C176,90.3,173.1,92.1,171,91.8z"/>
	<path fill="#483354" d="M136.1,31.1c0.1,0.8-0.1,1.7-0.6,2.5c-0.6,1.1-1.4,1.9-2.7,1.9c-1.3,0-2.4-0.7-3-1.8
		c-1.2-2.2-1.4-4.4-0.2-6.6c1.3-2.4,3.8-2,5.1-0.3C135.8,28,136.3,29.4,136.1,31.1z"/>
	<path fill="#483354" d="M152.8,41.7c-1.6,0.2-2.9-0.9-2.9-3.2c0-2.9,3.5-6.6,6.8-5.5c1.4,0.5,2.3,2.3,1.7,3.9
		c-0.7,2.1-2.1,3.6-4.1,4.5C153.8,41.8,153.3,41.7,152.8,41.7z"/>
	<path fill="#483354" d="M125,102.1c-0.3,2.7-2.1,5.3-4.7,6.1c-1.5,0.4-3.2-0.7-3.4-2.9c-0.3-2.4,1.6-5.5,3.9-6.3
		C123,98.2,125,99.5,125,102.1z"/>
	<path fill="#483354" d="M142.3,209.9c2.3,0.1,3.2,1.3,2.9,3.7c-0.5,2.8-2.2,4.4-4.8,5.2c-1.1,0.3-2.1,0-2.8-0.8
		c-0.8-0.9-1.1-2.1-0.7-3.2c0.7-2.1,2-3.6,3.9-4.7C141.3,209.7,141.9,209.9,142.3,209.9z"/>
	<path fill="#483354" d="M208,27.6c1.3,0,2.4-0.1,3.2,0.7c1.7,1.6,1.5,3,0.2,4.4c-1.6,1.9-5.2,2.9-7.8,1.3c-1.2-0.8-1.7-2.3-1-3.5
		C203.9,28.5,205.7,27.3,208,27.6z"/>
	<path fill="#483354" d="M104.6,247.8c-1,2.3-2.2,4.6-2.8,7.1c0,0.2-0.2,0.4-0.4,0.4c0.1-0.5-0.3-0.5-0.6-0.4
		c-1.2,0.2-2-0.6-2.6-1.4c-1.6-1.9-0.9-6.6,1.2-7.9c1.7-1.1,3.8-0.8,4.8,1.5C104.4,247.4,104.3,247.7,104.6,247.8z"/>
	<path fill="#FEFEFE" d="M34.6,163.7c0,2.8-1.6,4.2-4.3,3.9c-0.5-0.1-0.7,0-0.9,0.5c-0.8,1.6-1.9,2.1-3.4,1.5
		c-2-0.8-3.1-2.3-2.6-4.1c0.1-0.5,0.3-1.1,0.6-1.6c0.7-0.9,0.6-1.7,0.1-2.7c-1.7-3.6-3.4-7.3-5-11c-0.3-0.6-0.6-0.9-1.3-0.9
		c-2.4-0.2-3.7-1.4-3.8-3.2c-0.1-2.2,1-3.3,3.2-2.9c0.8,0.1,1,0.1,1.1-0.8c0.2-1.7,1.5-2.3,3.1-1.7c2.8,1.1,3.5,3.1,2.2,5.7
		c-0.5,0.9-0.4,1.6,0,2.4c1.8,3.5,3.6,7,5.3,10.5c0.4,0.8,1.1,0.9,1.8,1c1,0.2,1.9,0.4,2.8,1C34.3,161.9,34.7,162.7,34.6,163.7z"/>
	<path fill="#FEFEFE" d="M14.6,14.1c0.6,0,1.2,0,1.8,0.4c1.1,0.7,1.9,0.5,2.9-0.1c3.3-1.9,6.7-3.7,10.1-5.5c0.6-0.3,0.9-0.7,0.8-1.4
		c-0.1-0.7,0.2-1.3,0.4-2c0.7-2,2.1-2.9,4-2.5c2.1,0.5,3.3,2,2.9,4.1c-0.1,0.6,0,0.7,0.5,0.9c1.7,0.7,2.2,1.8,1.5,3.5
		c-1,2.5-2.8,3.4-5.2,2.1c-1.3-0.7-2.2-0.5-3.4,0.2c-3.4,1.8-6.8,3.4-10.2,5.1c-0.8,0.4-1.1,0.8-1.1,1.7c0,2.3-1.5,3.7-3.5,3.7
		c-1.9,0-2.9-1.1-2.5-3c0.1-0.8-0.1-1-0.8-1.2c-1.8-0.4-2.3-1.4-1.7-3.2C11.7,15,12.8,14.1,14.6,14.1z"/>
	<path fill="#FEFEFE" d="M45.6,93.6c0,2.9-1.9,4.4-4.8,3.7c-1-0.2-1.6-0.1-2.4,0.6c-3,2.8-6.1,5.5-9.2,8.2c-0.5,0.4-0.6,0.8-0.5,1.4
		c0.5,2.7-0.4,4.3-2.6,4.8c-1.6,0.4-2.9-0.5-3-2.3c-0.1-0.9-0.2-1.1-1.2-1c-1.5,0.3-2.4-0.7-2.4-2.2c0-3,1.9-4.6,4.8-4
		c1,0.2,1.7-0.1,2.4-0.8c2.8-2.8,5.6-5.5,8.4-8.2c0.4-0.4,0.6-0.8,0.5-1.4c-0.2-0.8-0.1-1.6-0.1-2.4c0.1-1.9,1.1-3,3-3.2
		c1.9-0.2,3.6,0.9,3.9,2.7c0.1,0.9,0.3,1.2,1.3,1.3C45.1,91.1,45.7,91.9,45.6,93.6z"/>
	<path fill="#FEFEFE" d="M45.6,46.8c2.7,0,4,1.3,4.1,4c0,1,0.4,1.5,1.2,2c3.3,2.1,6.5,4.2,9.7,6.3c0.6,0.4,1.1,0.5,1.8,0.2
		c0.4-0.2,1-0.3,1.5-0.5c3.1-0.8,5.1,1,4.7,4.2c-0.2,1.2-1,1.9-2,2.4c-0.7,0.3-0.9,0.7-0.9,1.4c0.1,1.7-0.8,2.5-2.4,2.6
		c-3,0.2-4.3-1-4.3-4c0-1-0.3-1.5-1.1-2c-3.3-2.3-6.6-4.6-9.9-7c-0.7-0.5-1.3-0.6-2.2-0.2c-2.3,1-4.1,0.5-5-1.5
		c-0.8-1.6-0.3-2.8,1.3-3.5c0.9-0.4,1.3-0.7,0.8-1.7c-0.5-1.2,0.2-2.3,1.5-2.6C44.9,46.8,45.4,46.8,45.6,46.8z"/>
	<path fill="#FEFEFE" d="M21.8,255.1c-2,2.5-3.4,5.3-4.6,8.2c-0.7-0.7-1.9-1.1-3-1c-0.6,0.1-1.1,0-1.5-0.5c-1.9-1.8-1.1-5.7,1.4-6.2
		c2.2-0.4,3-1.7,3.8-3.5c1.3-3,2.8-5.9,4.3-8.8c0.3-0.6,0.3-1.1,0-1.7c-0.4-0.7-0.7-1.4-0.9-2.2c-0.5-2,0.1-3.3,1.9-4.1
		c1.8-0.8,3.5-0.4,4.5,1.3c0.4,0.7,0.8,1,1.7,0.8c1.2-0.3,2,0.2,2.6,1.4c1.2,2.7,0.1,5-2.9,5.5c-1.3,0.2-2,0.8-2.5,1.9
		c-1.3,2.7-2.8,5.3-4.2,7.9C22.1,254.5,22,254.8,21.8,255.1z"/>
	<path fill="#FEFEFE" d="M34,206.4c0.2,0,0.7,0,1.1,0.2c1.3,0.7,2.2,0.2,3.3-0.5c2.6-1.7,5.3-3.4,8-5c0.7-0.4,1.1-0.9,1-1.7
		c0-0.6,0.1-1.2,0.3-1.8c0.5-1.8,1.7-2.5,3.5-2.3c1.6,0.2,2.6,1.5,2.7,3.1c0,0.4-0.2,1,0.5,1.2c1.2,0.3,1.9,1,1.8,2.3
		c-0.1,1.5-1.2,2.9-2.4,3.3c-1,0.3-2,0-2.9-0.4c-0.7-0.4-1.2-0.3-1.9,0.1c-3.2,1.9-6.3,3.7-9.5,5.5c-0.7,0.4-0.9,0.8-1,1.6
		c-0.1,2.5-1.1,3.5-3.1,3.5c-1.5,0-2.2-0.7-2.2-2.2c0-0.9,0-1.5-1.2-1.5c-0.9-0.1-1.5-0.8-1.5-1.8C30.5,208,32,206.4,34,206.4z"/>
	<path fill="#483354" d="M49.7,379.7c-0.6,0.1-1-0.5-1.7-0.1c0.9,1.1,1.4,2.3,1.7,3.7c0.4,1.5-0.3,3.7-1.6,4.8
		c-1.2,1-3.1,1.1-4.5,0.2c-1.1-0.7-2.1-1.4-3.1-2.1c-1.4-1-3-1.2-4.6-1.5c-1.1-0.2-2.1-0.2-3.2-0.4c-2.3-0.6-3.2-2-3.3-3.7
		c-0.2-1.9,1.4-4.1,3.3-4.8c0.9-0.3,1.8-0.7,2.8-1c-0.4-0.2-0.8-0.4-1.1-0.6c2.8-0.1,3.5,0.4,4.4,2.9c0.5,1.4,1.7,2.4,3.2,2.3
		c2,0,4-0.2,6.1-0.2C48.6,379.2,49.2,379.1,49.7,379.7z"/>
	<path fill="#483354" d="M32.4,372.7c-1.7-0.1-3.2-2.6-3.4-4.7c-0.1-1.1,0.1-2.1,0.4-3.1c0.8,0.9,1.5,1.8,2.7,2.3
		c0.6,0.3,0.8,0.7,0.4,1.4C31.9,369.9,32,371.3,32.4,372.7z"/>
	<path fill="#FED19D" d="M255.1,131.9c0-0.4,0-0.7,0-1.1c0-1.4,0.4-1.8,1.9-1.6c2.9,0.3,4.4,2.4,4.2,5.9c-0.2,2.4-2.5,4.3-5,4.2
		c-0.7,0-0.7-0.3-0.7-0.8c0-1.1,0-2.2-0.1-3.4C255.3,134,255,133,255.1,131.9z"/>
	<path fill="#FED19D" d="M296.6,137.7c0,1.9-0.5,2.5-2,2.4c-1.5,0-2.3-1.1-2.3-2.9c0-1.6,0.9-2.6,2.3-2.6
		C295.9,134.7,296.6,135.7,296.6,137.7z"/>
	<path fill="#FED19D" d="M208.8,137.4c0,1.7-0.9,2.7-2.4,2.7c-1.5,0-2.6-1.2-2.6-2.8c0-1.6,1.1-2.7,2.7-2.7
		C207.8,134.7,208.8,135.9,208.8,137.4z"/>
	<path fill="#FED19D" d="M279.9,137.5c0,1.7-0.9,2.7-2.5,2.7c-1.5,0-2.6-1.2-2.6-2.8c0-1.6,1.1-2.7,2.7-2.7
		C278.8,134.7,279.9,135.9,279.9,137.5z"/>
</g>
<g id="Layer_3">
	<g>
		<path fill="#5B5B5B" d="M181.2,160.5h4.8c0.8,0,1.6,0.1,2.2,0.2s1.2,0.2,1.6,0.4s0.8,0.4,1.2,0.7s0.6,0.6,0.7,0.9s0.3,0.6,0.4,1
			s0.1,0.7,0.1,1.1c0,0.3,0,0.6-0.1,1s-0.2,0.6-0.4,0.9s-0.4,0.6-0.7,0.8s-0.6,0.5-1.1,0.7s-0.9,0.3-1.5,0.4s-1.2,0.2-2,0.2
			c-0.1,0-0.2,0-0.4,0s-0.3,0-0.5,0l-0.5,0v4.3h-3.9V160.5z M185.1,166.7h0.9c0.4,0,0.8-0.1,1.1-0.2s0.5-0.2,0.7-0.4
			s0.3-0.4,0.4-0.6s0.1-0.5,0.1-0.8c0-0.4-0.1-0.8-0.2-1.1s-0.3-0.5-0.5-0.7s-0.4-0.3-0.7-0.4s-0.6-0.1-0.9-0.1h-0.9V166.7z"/>
		<path fill="#5B5B5B" d="M196,173.1c-0.4,0-0.7-0.1-1.1-0.2s-0.6-0.3-0.9-0.5s-0.5-0.5-0.6-0.8s-0.2-0.7-0.2-1.2
			c0-0.4,0.1-0.8,0.2-1.1s0.3-0.6,0.6-0.8s0.5-0.4,0.8-0.6s0.7-0.3,1-0.4s0.7-0.1,1.1-0.2s0.7,0,1.1,0c0.2,0,0.5,0,0.7,0
			s0.4,0,0.6,0c0-0.4-0.1-0.7-0.2-0.9s-0.3-0.4-0.5-0.6s-0.5-0.2-0.7-0.3s-0.6-0.1-0.9-0.1c-0.3,0-0.6,0-0.9,0.1s-0.6,0.1-0.9,0.1
			s-0.6,0.1-0.8,0.2s-0.5,0.1-0.7,0.2v-2.5c0.3-0.1,0.6-0.1,0.9-0.2s0.7-0.1,1-0.2s0.7-0.1,1.1-0.1s0.7,0,1.1,0c0.5,0,0.9,0,1.3,0.1
			s0.8,0.1,1.2,0.3s0.8,0.3,1.1,0.5s0.6,0.5,0.9,0.8s0.4,0.7,0.6,1.1s0.2,0.9,0.2,1.5v5.4h-3.6v-1.6c-0.1,0.3-0.3,0.5-0.6,0.8
			s-0.5,0.4-0.9,0.6s-0.7,0.3-1,0.4S196.4,173.1,196,173.1z M197.5,171.1c0.2,0,0.4,0,0.6-0.1s0.4-0.2,0.6-0.4s0.4-0.4,0.5-0.7
			s0.2-0.6,0.2-1h-0.3c-0.3,0-0.6,0-0.9,0.1s-0.6,0.1-0.8,0.3s-0.4,0.3-0.6,0.4s-0.2,0.4-0.2,0.6c0,0.2,0,0.3,0.1,0.4
			s0.1,0.2,0.2,0.3s0.2,0.1,0.3,0.2S197.4,171.1,197.5,171.1z"/>
		<path fill="#5B5B5B" d="M204.9,163.4h4l1.4,7.2l1.4-7.2h4.1l1.6,7.2l1-7.2h3l-2,9.5h-4.9l-1.2-6.1l-1.1,6.1h-5.1L204.9,163.4z"/>
		<path fill="#5B5B5B" d="M230.8,166.2c-0.6-0.3-1.2-0.5-1.7-0.6s-1.1-0.2-1.5-0.2c-0.4,0-0.8,0-0.9,0.1s-0.3,0.2-0.3,0.4
			c0,0.2,0.1,0.3,0.4,0.4s0.7,0.2,1.2,0.4s1,0.3,1.4,0.5s0.8,0.4,1.1,0.6s0.5,0.6,0.7,0.9s0.2,0.8,0.2,1.3c0,0.5-0.1,0.9-0.3,1.3
			s-0.4,0.7-0.8,1s-0.8,0.5-1.4,0.6s-1.2,0.2-1.9,0.2c-0.7,0-1.3,0-2-0.1s-1.3-0.3-2-0.5v-2.7c0.6,0.3,1.2,0.5,1.8,0.6
			s1.2,0.2,1.7,0.2c1,0,1.5-0.2,1.5-0.6c0-0.1,0-0.1-0.1-0.2s-0.1-0.1-0.3-0.2s-0.3-0.1-0.5-0.2s-0.5-0.1-0.9-0.2
			c-0.5-0.1-0.9-0.3-1.4-0.5s-0.8-0.4-1.1-0.7s-0.6-0.6-0.8-0.9s-0.3-0.8-0.3-1.2c0-0.4,0.1-0.8,0.3-1.1s0.4-0.6,0.8-0.9
			s0.8-0.4,1.3-0.6s1.1-0.2,1.8-0.2c0.4,0,0.8,0,1.1,0.1s0.7,0.1,1,0.1s0.6,0.1,0.9,0.2s0.5,0.1,0.8,0.2L230.8,166.2z"/>
		<path fill="#5B5B5B" d="M244.2,172.9h-3.8v-7.3h-1.5v-2.2h1.5c0-0.7,0.1-1.3,0.3-1.9s0.5-1,0.8-1.3s0.8-0.6,1.3-0.8
			s1.1-0.3,1.7-0.3c0.5,0,1,0.1,1.4,0.2s0.8,0.2,1.2,0.4l-0.3,2.3c-0.3-0.1-0.6-0.2-0.8-0.2s-0.4-0.1-0.7-0.1c-0.3,0-0.5,0-0.6,0.1
			s-0.3,0.2-0.4,0.4s-0.1,0.4-0.1,0.6s0,0.4,0,0.7h2.7c-0.1,0.4-0.1,0.8-0.2,1.1s-0.1,0.7-0.1,1.1h-2.4V172.9z"/>
		<path fill="#5B5B5B" d="M253.1,173.1c-0.7,0-1.3-0.1-1.8-0.2s-1-0.3-1.4-0.5s-0.7-0.5-1-0.8s-0.5-0.7-0.7-1s-0.3-0.8-0.4-1.2
			s-0.1-0.8-0.1-1.2c0-0.4,0-0.8,0.1-1.2s0.2-0.8,0.4-1.2s0.4-0.7,0.7-1s0.6-0.6,1-0.8s0.9-0.4,1.4-0.5s1.2-0.2,1.8-0.2
			s1.3,0.1,1.8,0.2s1,0.3,1.4,0.5s0.8,0.5,1,0.8s0.5,0.7,0.7,1s0.3,0.8,0.4,1.2s0.1,0.8,0.1,1.2c0,0.4,0,0.8-0.1,1.2
			s-0.2,0.8-0.4,1.2s-0.4,0.7-0.7,1s-0.6,0.6-1,0.8s-0.9,0.4-1.4,0.5S253.8,173.1,253.1,173.1z M251.4,168.2c0,0.3,0,0.6,0.1,0.9
			s0.2,0.6,0.3,0.8s0.3,0.4,0.5,0.6s0.5,0.2,0.8,0.2s0.6-0.1,0.8-0.2s0.4-0.3,0.5-0.6s0.2-0.5,0.3-0.8s0.1-0.6,0.1-0.9
			s0-0.6-0.1-0.9s-0.2-0.6-0.3-0.8s-0.3-0.4-0.5-0.6s-0.5-0.2-0.8-0.2s-0.6,0.1-0.8,0.2s-0.4,0.3-0.5,0.6s-0.2,0.5-0.3,0.8
			S251.4,167.8,251.4,168.2z"/>
		<path fill="#5B5B5B" d="M260.7,163.4h3.6c0,0.2,0,0.3,0,0.5s0,0.4,0,0.6s0,0.4,0,0.6s0,0.4,0,0.6c0.1-0.3,0.3-0.6,0.5-0.9
			s0.4-0.6,0.7-0.8s0.5-0.4,0.9-0.6s0.7-0.2,1.1-0.2c0.1,0,0.2,0,0.3,0s0.2,0,0.3,0s0.2,0,0.3,0.1s0.1,0.1,0.2,0.1L268,167
			c-0.3-0.1-0.5-0.2-0.8-0.2s-0.5-0.1-0.8-0.1c-0.3,0-0.6,0-0.8,0.1s-0.4,0.2-0.6,0.3s-0.3,0.2-0.4,0.4s-0.2,0.3-0.2,0.4v5h-3.8
			V163.4z"/>
		<path fill="#5B5B5B" d="M278.5,173.1c-0.4,0-0.7-0.1-1.1-0.2s-0.6-0.3-0.9-0.5s-0.5-0.5-0.6-0.8s-0.2-0.7-0.2-1.2
			c0-0.4,0.1-0.8,0.2-1.1s0.3-0.6,0.6-0.8s0.5-0.4,0.8-0.6s0.7-0.3,1-0.4s0.7-0.1,1.1-0.2s0.7,0,1.1,0c0.2,0,0.5,0,0.7,0
			s0.4,0,0.6,0c0-0.4-0.1-0.7-0.2-0.9s-0.3-0.4-0.5-0.6s-0.5-0.2-0.7-0.3s-0.6-0.1-0.9-0.1c-0.3,0-0.6,0-0.9,0.1s-0.6,0.1-0.9,0.1
			s-0.6,0.1-0.8,0.2s-0.5,0.1-0.7,0.2v-2.5c0.3-0.1,0.6-0.1,0.9-0.2s0.7-0.1,1-0.2s0.7-0.1,1.1-0.1s0.7,0,1.1,0c0.5,0,0.9,0,1.3,0.1
			s0.8,0.1,1.2,0.3s0.8,0.3,1.1,0.5s0.6,0.5,0.9,0.8s0.4,0.7,0.6,1.1s0.2,0.9,0.2,1.5v5.4H282v-1.6c-0.1,0.3-0.3,0.5-0.6,0.8
			s-0.5,0.4-0.9,0.6s-0.7,0.3-1,0.4S278.8,173.1,278.5,173.1z M280,171.1c0.2,0,0.4,0,0.6-0.1s0.4-0.2,0.6-0.4s0.4-0.4,0.5-0.7
			s0.2-0.6,0.2-1h-0.3c-0.3,0-0.6,0-0.9,0.1s-0.6,0.1-0.8,0.3s-0.4,0.3-0.6,0.4s-0.2,0.4-0.2,0.6c0,0.2,0,0.3,0.1,0.4
			s0.1,0.2,0.2,0.3s0.2,0.1,0.3,0.2S279.8,171.1,280,171.1z"/>
		<path fill="#5B5B5B" d="M181,185h3.8c-0.1,0.2-0.1,0.3-0.1,0.5s-0.1,0.3-0.1,0.4s0,0.3,0,0.4s0,0.3,0,0.5c0.2-0.3,0.4-0.5,0.6-0.8
			s0.5-0.5,0.8-0.6s0.6-0.3,1-0.4s0.7-0.2,1.1-0.2c0.3,0,0.6,0,0.8,0.1s0.5,0.2,0.8,0.4s0.5,0.4,0.7,0.6s0.4,0.5,0.5,0.8
			c0.2-0.3,0.4-0.5,0.7-0.8s0.6-0.4,1-0.6s0.7-0.3,1.1-0.4s0.8-0.1,1.2-0.1c0.6,0,1.2,0.1,1.6,0.3s0.8,0.4,1.1,0.8s0.5,0.7,0.6,1.2
			s0.2,1,0.2,1.6v5.9h-3.8v-5.4c0-0.2,0-0.4-0.1-0.6s-0.1-0.4-0.2-0.6s-0.3-0.4-0.4-0.5s-0.4-0.2-0.7-0.2c-0.2,0-0.4,0-0.6,0.1
			s-0.3,0.2-0.5,0.4s-0.3,0.4-0.3,0.6s-0.1,0.4-0.1,0.7v5.5h-3.8v-5.4c0-0.2,0-0.5-0.1-0.7s-0.1-0.4-0.2-0.6s-0.2-0.3-0.4-0.4
			s-0.4-0.2-0.7-0.2c-0.2,0-0.4,0-0.6,0.1s-0.4,0.2-0.5,0.3s-0.3,0.3-0.4,0.5s-0.2,0.4-0.2,0.6v5.8H181V185z"/>
		<path fill="#5B5B5B" d="M205.9,194.7c-0.7,0-1.3-0.1-1.8-0.2s-1-0.3-1.4-0.5s-0.7-0.5-1-0.8s-0.5-0.7-0.7-1s-0.3-0.8-0.4-1.2
			s-0.1-0.8-0.1-1.2c0-0.4,0-0.8,0.1-1.2s0.2-0.8,0.4-1.2s0.4-0.7,0.7-1s0.6-0.6,1-0.8s0.9-0.4,1.4-0.5s1.2-0.2,1.8-0.2
			s1.3,0.1,1.8,0.2s1,0.3,1.4,0.5s0.8,0.5,1,0.8s0.5,0.7,0.7,1s0.3,0.8,0.4,1.2s0.1,0.8,0.1,1.2c0,0.4,0,0.8-0.1,1.2
			s-0.2,0.8-0.4,1.2s-0.4,0.7-0.7,1s-0.6,0.6-1,0.8s-0.9,0.4-1.4,0.5S206.6,194.7,205.9,194.7z M204.3,189.8c0,0.3,0,0.6,0.1,0.9
			s0.2,0.6,0.3,0.8s0.3,0.4,0.5,0.6s0.5,0.2,0.8,0.2s0.6-0.1,0.8-0.2s0.4-0.3,0.5-0.6s0.2-0.5,0.3-0.8s0.1-0.6,0.1-0.9
			s0-0.6-0.1-0.9s-0.2-0.6-0.3-0.8s-0.3-0.4-0.5-0.6s-0.5-0.2-0.8-0.2s-0.6,0.1-0.8,0.2s-0.4,0.3-0.5,0.6s-0.2,0.5-0.3,0.8
			S204.3,189.4,204.3,189.8z"/>
		<path fill="#5B5B5B" d="M213.5,185h3.8c-0.1,0.2-0.1,0.3-0.1,0.5s-0.1,0.3-0.1,0.4s0,0.3,0,0.4s0,0.3,0,0.5
			c0.2-0.3,0.4-0.5,0.6-0.8s0.5-0.5,0.8-0.6s0.6-0.3,1-0.4s0.7-0.2,1.1-0.2c0.3,0,0.6,0,0.8,0.1s0.5,0.2,0.8,0.4s0.5,0.4,0.7,0.6
			s0.4,0.5,0.5,0.8c0.2-0.3,0.4-0.5,0.7-0.8s0.6-0.4,1-0.6s0.7-0.3,1.1-0.4s0.8-0.1,1.2-0.1c0.6,0,1.2,0.1,1.6,0.3s0.8,0.4,1.1,0.8
			s0.5,0.7,0.6,1.2s0.2,1,0.2,1.6v5.9h-3.8v-5.4c0-0.2,0-0.4-0.1-0.6s-0.1-0.4-0.2-0.6s-0.3-0.4-0.4-0.5s-0.4-0.2-0.7-0.2
			c-0.2,0-0.4,0-0.6,0.1s-0.3,0.2-0.5,0.4s-0.3,0.4-0.3,0.6s-0.1,0.4-0.1,0.7v5.5h-3.8v-5.4c0-0.2,0-0.5-0.1-0.7s-0.1-0.4-0.2-0.6
			s-0.2-0.3-0.4-0.4s-0.4-0.2-0.7-0.2c-0.2,0-0.4,0-0.6,0.1s-0.4,0.2-0.5,0.3s-0.3,0.3-0.4,0.5s-0.2,0.4-0.2,0.6v5.8h-3.8V185z"/>
		<path fill="#5B5B5B" d="M242.4,194.1c-0.6,0.2-1.1,0.3-1.8,0.5s-1.3,0.2-2,0.2c-0.8,0-1.5-0.1-2.2-0.3s-1.3-0.5-1.8-0.9
			s-0.9-1-1.2-1.6s-0.5-1.4-0.5-2.3c0-0.5,0.1-1,0.2-1.4s0.4-0.8,0.6-1.2s0.6-0.7,1-0.9s0.8-0.5,1.2-0.7s0.9-0.3,1.3-0.4
			s0.9-0.1,1.3-0.1c0.7,0,1.3,0.1,1.8,0.2s0.9,0.4,1.3,0.6s0.6,0.5,0.8,0.9s0.3,0.7,0.3,1.1c0,0.5-0.1,0.8-0.2,1.2s-0.4,0.6-0.6,0.8
			s-0.6,0.4-0.9,0.5s-0.7,0.2-1.1,0.3s-0.8,0.1-1.2,0.1s-0.8,0-1.1,0c-0.1,0-0.2,0-0.4,0s-0.2,0-0.3,0c0,0.3,0.1,0.6,0.3,0.8
			s0.3,0.4,0.5,0.6s0.4,0.2,0.7,0.3s0.6,0.1,0.9,0.1c0.2,0,0.5,0,0.8-0.1s0.5-0.1,0.8-0.1s0.5-0.1,0.8-0.2s0.5-0.2,0.8-0.3V194.1z
			 M236.7,189.1c0.1,0,0.3,0,0.5,0s0.5,0,0.7-0.1s0.5-0.1,0.7-0.1s0.5-0.1,0.7-0.2s0.4-0.2,0.5-0.3s0.2-0.3,0.2-0.4
			c0-0.3-0.1-0.5-0.4-0.7s-0.6-0.3-1-0.3c-0.2,0-0.4,0-0.6,0.1s-0.4,0.2-0.6,0.3s-0.4,0.4-0.5,0.7S236.8,188.7,236.7,189.1z"/>
		<path fill="#5B5B5B" d="M245,185h3.8c0,0.2-0.1,0.5-0.1,0.8s-0.1,0.6-0.1,1c0.2-0.3,0.4-0.6,0.8-0.8s0.6-0.5,1-0.6
			s0.7-0.3,1.2-0.4s0.8-0.1,1.2-0.1c0.5,0,0.9,0.1,1.3,0.2s0.8,0.4,1.1,0.7s0.6,0.7,0.7,1.2s0.3,1.1,0.3,1.7v6h-3.8v-5.4
			c0-0.4,0-0.7-0.1-0.9s-0.2-0.4-0.3-0.6s-0.3-0.2-0.5-0.3s-0.4-0.1-0.6-0.1c-0.2,0-0.5,0-0.7,0.1s-0.4,0.2-0.6,0.3
			s-0.3,0.3-0.5,0.5s-0.2,0.4-0.3,0.6v5.8H245V185z"/>
		<path fill="#5B5B5B" d="M263.5,194.7c-0.5,0-1.1-0.1-1.6-0.2s-0.9-0.4-1.3-0.7s-0.7-0.7-0.9-1.2s-0.3-1.2-0.3-1.9v-3.5h-1.7v-0.6
			l4.1-4.5h1.4v2.9h2.8c-0.1,0.4-0.1,0.7-0.2,1.1s-0.1,0.7-0.1,1.1h-2.5v3.5c0,0.2,0,0.4,0,0.6s0.1,0.4,0.2,0.5s0.2,0.3,0.4,0.4
			s0.4,0.1,0.7,0.1c0.2,0,0.4,0,0.7-0.1s0.5-0.1,0.8-0.2l0.2,2.3c-0.4,0.1-0.8,0.2-1.3,0.3S264,194.7,263.5,194.7z"/>
		<path fill="#5B5B5B" d="M271.2,194.7c-0.4,0-0.7,0-1-0.1s-0.5-0.2-0.7-0.4s-0.3-0.3-0.4-0.5s-0.1-0.4-0.1-0.6c0-0.2,0-0.4,0.1-0.6
			s0.2-0.4,0.4-0.5s0.4-0.3,0.7-0.4s0.6-0.1,1-0.1s0.7,0,1,0.1s0.5,0.2,0.7,0.4s0.3,0.3,0.4,0.5s0.1,0.4,0.1,0.6
			c0,0.2,0,0.4-0.1,0.6s-0.2,0.4-0.4,0.5s-0.4,0.3-0.7,0.4S271.6,194.7,271.2,194.7z M269.2,182.1h3.9l-0.6,7.9h-2.8L269.2,182.1z"
			/>
		<path fill="#5B5B5B" d="M186.7,216.3c-0.8,0-1.5-0.1-2.1-0.3s-1.1-0.4-1.6-0.7s-0.8-0.6-1.2-1.1s-0.6-0.8-0.8-1.3s-0.3-1-0.4-1.5
			s-0.1-1.1-0.1-1.6c0-0.5,0.1-1.1,0.2-1.6s0.3-1,0.5-1.5s0.5-0.9,0.8-1.3s0.7-0.8,1.2-1.1s1-0.5,1.6-0.7s1.2-0.3,1.9-0.3
			s1.3,0.1,1.9,0.3s1.1,0.4,1.6,0.7s0.9,0.7,1.2,1.1s0.6,0.9,0.8,1.3s0.4,1,0.5,1.5s0.2,1.1,0.2,1.6c0,0.5,0,1.1-0.1,1.6
			s-0.2,1-0.4,1.5s-0.5,0.9-0.8,1.3s-0.7,0.8-1.2,1.1s-1,0.5-1.6,0.7S187.4,216.3,186.7,216.3z M184.4,209.9c0,0.7,0.1,1.3,0.2,1.8
			s0.2,0.9,0.4,1.2s0.4,0.5,0.7,0.7s0.6,0.2,0.9,0.2s0.7-0.1,0.9-0.2s0.5-0.4,0.7-0.7s0.3-0.7,0.4-1.2s0.2-1.1,0.2-1.8
			s-0.1-1.3-0.2-1.8s-0.3-0.9-0.4-1.2s-0.4-0.6-0.7-0.7s-0.6-0.2-0.9-0.2s-0.7,0.1-0.9,0.2s-0.5,0.4-0.7,0.7s-0.3,0.7-0.4,1.2
			S184.4,209.2,184.4,209.9z"/>
		<path fill="#5B5B5B" d="M205.6,216.1h-3.8l0.1-0.6c0-0.2,0-0.4,0.1-0.6s0-0.5,0-0.7c-0.2,0.3-0.4,0.7-0.7,0.9s-0.6,0.5-0.9,0.7
			s-0.7,0.3-1,0.4s-0.7,0.2-1.1,0.2c-0.5,0-0.9-0.1-1.3-0.2s-0.8-0.4-1.1-0.7s-0.6-0.7-0.7-1.3s-0.3-1.1-0.3-1.9v-5.7h3.8v5.3
			c0,0.4,0,0.7,0.1,0.9s0.2,0.4,0.3,0.6s0.3,0.3,0.4,0.3s0.3,0.1,0.5,0.1c0.2,0,0.4,0,0.6-0.1s0.4-0.2,0.6-0.3s0.3-0.3,0.4-0.5
			s0.2-0.4,0.2-0.6v-5.7h3.8V216.1z"/>
		<path fill="#5B5B5B" d="M208.4,206.6h3.6c0,0.2,0,0.3,0,0.5s0,0.4,0,0.6s0,0.4,0,0.6s0,0.4,0,0.6c0.1-0.3,0.3-0.6,0.5-0.9
			s0.4-0.6,0.7-0.8s0.5-0.4,0.9-0.6s0.7-0.2,1.1-0.2c0.1,0,0.2,0,0.3,0s0.2,0,0.3,0s0.2,0,0.3,0.1s0.1,0.1,0.2,0.1l-0.3,3.6
			c-0.3-0.1-0.5-0.2-0.8-0.2s-0.5-0.1-0.8-0.1c-0.3,0-0.6,0-0.8,0.1s-0.4,0.2-0.6,0.3s-0.3,0.2-0.4,0.4s-0.2,0.3-0.2,0.4v5h-3.8
			V206.6z"/>
		<path fill="#5B5B5B" d="M227.5,216.3c-0.6,0-1.1-0.1-1.6-0.3s-1-0.5-1.4-0.9s-0.7-0.9-0.9-1.6s-0.3-1.4-0.3-2.2
			c0-0.9,0.1-1.7,0.4-2.3s0.5-1.2,0.9-1.5s0.8-0.7,1.3-0.9s1-0.3,1.5-0.3c0.3,0,0.7,0,1,0.1s0.6,0.2,0.9,0.3s0.6,0.3,0.8,0.5
			s0.4,0.4,0.6,0.6v-5.3h3.8v13.5h-3.8v-1.6c-0.2,0.3-0.4,0.5-0.6,0.8s-0.5,0.4-0.8,0.6s-0.6,0.3-0.9,0.4S227.8,216.3,227.5,216.3z
			 M227,211.4c0,0.5,0.1,0.9,0.2,1.2s0.2,0.6,0.4,0.8s0.4,0.3,0.6,0.4s0.4,0.1,0.7,0.1s0.5,0,0.7-0.1s0.4-0.2,0.6-0.4
			s0.3-0.5,0.4-0.8s0.2-0.7,0.2-1.2c0-0.5-0.1-0.9-0.2-1.2s-0.2-0.6-0.4-0.8s-0.4-0.3-0.6-0.4s-0.4-0.1-0.7-0.1s-0.5,0-0.7,0.1
			s-0.4,0.2-0.6,0.4s-0.3,0.5-0.4,0.8S227,210.9,227,211.4z"/>
		<path fill="#5B5B5B" d="M239.5,216.3c-0.4,0-0.7-0.1-1.1-0.2s-0.6-0.3-0.9-0.5s-0.5-0.5-0.6-0.8s-0.2-0.7-0.2-1.2
			c0-0.4,0.1-0.8,0.2-1.1s0.3-0.6,0.6-0.8s0.5-0.4,0.8-0.6s0.7-0.3,1-0.4s0.7-0.1,1.1-0.2s0.7,0,1.1,0c0.2,0,0.5,0,0.7,0
			s0.4,0,0.6,0c0-0.4-0.1-0.7-0.2-0.9s-0.3-0.4-0.5-0.6s-0.5-0.2-0.7-0.3s-0.6-0.1-0.9-0.1c-0.3,0-0.6,0-0.9,0.1s-0.6,0.1-0.9,0.1
			s-0.6,0.1-0.8,0.2s-0.5,0.1-0.7,0.2v-2.5c0.3-0.1,0.6-0.1,0.9-0.2s0.7-0.1,1-0.2s0.7-0.1,1.1-0.1s0.7,0,1.1,0c0.5,0,0.9,0,1.3,0.1
			s0.8,0.1,1.2,0.3s0.8,0.3,1.1,0.5s0.6,0.5,0.9,0.8s0.4,0.7,0.6,1.1s0.2,0.9,0.2,1.5v5.4H243v-1.6c-0.1,0.3-0.3,0.5-0.6,0.8
			s-0.5,0.4-0.9,0.6s-0.7,0.3-1,0.4S239.9,216.3,239.5,216.3z M241,214.3c0.2,0,0.4,0,0.6-0.1s0.4-0.2,0.6-0.4s0.4-0.4,0.5-0.7
			s0.2-0.6,0.2-1h-0.3c-0.3,0-0.6,0-0.9,0.1s-0.6,0.1-0.8,0.3s-0.4,0.3-0.6,0.4s-0.2,0.4-0.2,0.6c0,0.2,0,0.3,0.1,0.4
			s0.1,0.2,0.2,0.3s0.2,0.1,0.3,0.2S240.9,214.3,241,214.3z"/>
		<path fill="#5B5B5B" d="M253.9,216.3c-0.5,0-1.1-0.1-1.6-0.2s-0.9-0.4-1.3-0.7s-0.7-0.7-0.9-1.2s-0.3-1.2-0.3-1.9v-3.5H248v-0.6
			l4.1-4.5h1.4v2.9h2.8c-0.1,0.4-0.1,0.7-0.2,1.1s-0.1,0.7-0.1,1.1h-2.5v3.5c0,0.2,0,0.4,0,0.6s0.1,0.4,0.2,0.5s0.2,0.3,0.4,0.4
			s0.4,0.1,0.7,0.1c0.2,0,0.4,0,0.7-0.1s0.5-0.1,0.8-0.2l0.2,2.3c-0.4,0.1-0.8,0.2-1.3,0.3S254.4,216.3,253.9,216.3z"/>
		<path fill="#5B5B5B" d="M260.7,216.3c-0.4,0-0.7-0.1-1.1-0.2s-0.6-0.3-0.9-0.5s-0.5-0.5-0.6-0.8s-0.2-0.7-0.2-1.2
			c0-0.4,0.1-0.8,0.2-1.1s0.3-0.6,0.6-0.8s0.5-0.4,0.8-0.6s0.7-0.3,1-0.4s0.7-0.1,1.1-0.2s0.7,0,1.1,0c0.2,0,0.5,0,0.7,0
			s0.4,0,0.6,0c0-0.4-0.1-0.7-0.2-0.9s-0.3-0.4-0.5-0.6s-0.5-0.2-0.7-0.3s-0.6-0.1-0.9-0.1c-0.3,0-0.6,0-0.9,0.1s-0.6,0.1-0.9,0.1
			s-0.6,0.1-0.8,0.2s-0.5,0.1-0.7,0.2v-2.5c0.3-0.1,0.6-0.1,0.9-0.2s0.7-0.1,1-0.2s0.7-0.1,1.1-0.1s0.7,0,1.1,0c0.5,0,0.9,0,1.3,0.1
			s0.8,0.1,1.2,0.3s0.8,0.3,1.1,0.5s0.6,0.5,0.9,0.8s0.4,0.7,0.6,1.1s0.2,0.9,0.2,1.5v5.4h-3.6v-1.6c-0.1,0.3-0.3,0.5-0.6,0.8
			s-0.5,0.4-0.9,0.6s-0.7,0.3-1,0.4S261.1,216.3,260.7,216.3z M262.2,214.3c0.2,0,0.4,0,0.6-0.1s0.4-0.2,0.6-0.4s0.4-0.4,0.5-0.7
			s0.2-0.6,0.2-1h-0.3c-0.3,0-0.6,0-0.9,0.1s-0.6,0.1-0.8,0.3s-0.4,0.3-0.6,0.4s-0.2,0.4-0.2,0.6c0,0.2,0,0.3,0.1,0.4
			s0.1,0.2,0.2,0.3s0.2,0.1,0.3,0.2S262.1,214.3,262.2,214.3z"/>
		<path fill="#5B5B5B" d="M277,208.8v2.8h-7v-2.8H277z"/>
		<path fill="#5B5B5B" d="M188,237.9c-0.3,0-0.6,0-0.9-0.1s-0.6-0.2-0.9-0.4s-0.5-0.3-0.8-0.6s-0.4-0.5-0.6-0.8v1.6H181v-13.5h3.8
			v5.3c0.1-0.2,0.3-0.4,0.6-0.6s0.5-0.4,0.8-0.5s0.6-0.2,0.9-0.3s0.7-0.1,1-0.1c0.5,0,1,0.1,1.5,0.3s0.9,0.5,1.3,0.9
			s0.7,0.9,0.9,1.5s0.4,1.4,0.4,2.3c0,0.9-0.1,1.6-0.3,2.2s-0.5,1.1-0.9,1.6s-0.8,0.7-1.4,0.9S188.6,237.9,188,237.9z M188.5,233
			c0-0.5-0.1-0.9-0.2-1.2s-0.2-0.6-0.4-0.8s-0.4-0.3-0.6-0.4s-0.4-0.1-0.7-0.1s-0.4,0-0.7,0.1s-0.4,0.2-0.6,0.4s-0.3,0.5-0.4,0.8
			s-0.2,0.7-0.2,1.2c0,0.5,0.1,0.9,0.2,1.2s0.2,0.6,0.4,0.8s0.4,0.3,0.6,0.4s0.4,0.1,0.7,0.1s0.5,0,0.7-0.1s0.4-0.2,0.6-0.4
			s0.3-0.5,0.4-0.8S188.5,233.4,188.5,233z"/>
		<path fill="#5B5B5B" d="M196.7,237.9c-0.4,0-0.7-0.1-1.1-0.2s-0.6-0.3-0.9-0.5s-0.5-0.5-0.6-0.8s-0.2-0.7-0.2-1.2
			c0-0.4,0.1-0.8,0.2-1.1s0.3-0.6,0.6-0.8s0.5-0.4,0.8-0.6s0.7-0.3,1-0.4s0.7-0.1,1.1-0.2s0.7,0,1.1,0c0.2,0,0.5,0,0.7,0
			s0.4,0,0.6,0c0-0.4-0.1-0.7-0.2-0.9s-0.3-0.4-0.5-0.6s-0.5-0.2-0.7-0.3s-0.6-0.1-0.9-0.1c-0.3,0-0.6,0-0.9,0.1s-0.6,0.1-0.9,0.1
			s-0.6,0.1-0.8,0.2s-0.5,0.1-0.7,0.2v-2.5c0.3-0.1,0.6-0.1,0.9-0.2s0.7-0.1,1-0.2s0.7-0.1,1.1-0.1s0.7,0,1.1,0c0.5,0,0.9,0,1.3,0.1
			s0.8,0.1,1.2,0.3s0.8,0.3,1.1,0.5s0.6,0.5,0.9,0.8s0.4,0.7,0.6,1.1s0.2,0.9,0.2,1.5v5.4h-3.6v-1.6c-0.1,0.3-0.3,0.5-0.6,0.8
			s-0.5,0.4-0.9,0.6s-0.7,0.3-1,0.4S197,237.9,196.7,237.9z M198.2,235.9c0.2,0,0.4,0,0.6-0.1s0.4-0.2,0.6-0.4s0.4-0.4,0.5-0.7
			s0.2-0.6,0.2-1h-0.3c-0.3,0-0.6,0-0.9,0.1s-0.6,0.1-0.8,0.3s-0.4,0.3-0.6,0.4s-0.2,0.4-0.2,0.6c0,0.2,0,0.3,0.1,0.4
			s0.1,0.2,0.2,0.3s0.2,0.1,0.3,0.2S198,235.9,198.2,235.9z"/>
		<path fill="#5B5B5B" d="M213.7,231c-0.6-0.3-1.2-0.5-1.7-0.6s-1.1-0.2-1.5-0.2c-0.4,0-0.8,0-0.9,0.1s-0.3,0.2-0.3,0.4
			c0,0.2,0.1,0.3,0.4,0.4s0.7,0.2,1.2,0.4s1,0.3,1.4,0.5s0.8,0.4,1.1,0.6s0.5,0.6,0.7,0.9s0.2,0.8,0.2,1.3c0,0.5-0.1,0.9-0.3,1.3
			s-0.4,0.7-0.8,1s-0.8,0.5-1.4,0.6s-1.2,0.2-1.9,0.2c-0.7,0-1.3,0-2-0.1s-1.3-0.3-2-0.5v-2.7c0.6,0.3,1.2,0.5,1.8,0.6
			s1.2,0.2,1.7,0.2c1,0,1.5-0.2,1.5-0.6c0-0.1,0-0.1-0.1-0.2s-0.1-0.1-0.3-0.2s-0.3-0.1-0.5-0.2s-0.5-0.1-0.9-0.2
			c-0.5-0.1-0.9-0.3-1.4-0.5s-0.8-0.4-1.1-0.7s-0.6-0.6-0.8-0.9s-0.3-0.8-0.3-1.2c0-0.4,0.1-0.8,0.3-1.1s0.4-0.6,0.8-0.9
			s0.8-0.4,1.3-0.6s1.1-0.2,1.8-0.2c0.4,0,0.8,0,1.1,0.1s0.7,0.1,1,0.1s0.6,0.1,0.9,0.2s0.5,0.1,0.8,0.2L213.7,231z"/>
		<path fill="#5B5B5B" d="M225.3,237.3c-0.6,0.2-1.1,0.3-1.8,0.5s-1.3,0.2-2,0.2c-0.8,0-1.5-0.1-2.2-0.3s-1.3-0.5-1.8-0.9
			s-0.9-1-1.2-1.6s-0.5-1.4-0.5-2.3c0-0.5,0.1-1,0.2-1.4s0.4-0.8,0.6-1.2s0.6-0.7,1-0.9s0.8-0.5,1.2-0.7s0.9-0.3,1.3-0.4
			s0.9-0.1,1.3-0.1c0.7,0,1.3,0.1,1.8,0.2s0.9,0.4,1.3,0.6s0.6,0.5,0.8,0.9s0.3,0.7,0.3,1.1c0,0.5-0.1,0.8-0.2,1.2s-0.4,0.6-0.6,0.8
			s-0.6,0.4-0.9,0.5s-0.7,0.2-1.1,0.3s-0.8,0.1-1.2,0.1s-0.8,0-1.1,0c-0.1,0-0.2,0-0.4,0s-0.2,0-0.3,0c0,0.3,0.1,0.6,0.3,0.8
			s0.3,0.4,0.5,0.6s0.4,0.2,0.7,0.3s0.6,0.1,0.9,0.1c0.2,0,0.5,0,0.8-0.1s0.5-0.1,0.8-0.1s0.5-0.1,0.8-0.2s0.5-0.2,0.8-0.3V237.3z
			 M219.7,232.3c0.1,0,0.3,0,0.5,0s0.5,0,0.7-0.1s0.5-0.1,0.7-0.1s0.5-0.1,0.7-0.2s0.4-0.2,0.5-0.3s0.2-0.3,0.2-0.4
			c0-0.3-0.1-0.5-0.4-0.7s-0.6-0.3-1-0.3c-0.2,0-0.4,0-0.6,0.1s-0.4,0.2-0.6,0.3s-0.4,0.4-0.5,0.7S219.7,231.9,219.7,232.3z"/>
		<path fill="#5B5B5B" d="M241.6,231c-0.6-0.3-1.2-0.5-1.7-0.6s-1.1-0.2-1.5-0.2c-0.4,0-0.8,0-0.9,0.1s-0.3,0.2-0.3,0.4
			c0,0.2,0.1,0.3,0.4,0.4s0.7,0.2,1.2,0.4s1,0.3,1.4,0.5s0.8,0.4,1.1,0.6s0.5,0.6,0.7,0.9s0.2,0.8,0.2,1.3c0,0.5-0.1,0.9-0.3,1.3
			s-0.4,0.7-0.8,1s-0.8,0.5-1.4,0.6s-1.2,0.2-1.9,0.2c-0.7,0-1.3,0-2-0.1s-1.3-0.3-2-0.5v-2.7c0.6,0.3,1.2,0.5,1.8,0.6
			s1.2,0.2,1.7,0.2c1,0,1.5-0.2,1.5-0.6c0-0.1,0-0.1-0.1-0.2s-0.1-0.1-0.3-0.2s-0.3-0.1-0.5-0.2s-0.5-0.1-0.9-0.2
			c-0.5-0.1-0.9-0.3-1.4-0.5s-0.8-0.4-1.1-0.7s-0.6-0.6-0.8-0.9s-0.3-0.8-0.3-1.2c0-0.4,0.1-0.8,0.3-1.1s0.4-0.6,0.8-0.9
			s0.8-0.4,1.3-0.6s1.1-0.2,1.8-0.2c0.4,0,0.8,0,1.1,0.1s0.7,0.1,1,0.1s0.6,0.1,0.9,0.2s0.5,0.1,0.8,0.2L241.6,231z"/>
		<path fill="#5B5B5B" d="M253.1,237.3c-0.6,0.2-1.1,0.3-1.8,0.5s-1.3,0.2-2,0.2c-0.8,0-1.5-0.1-2.2-0.3s-1.3-0.5-1.8-0.9
			s-0.9-1-1.2-1.6s-0.5-1.4-0.5-2.3c0-0.5,0.1-1,0.2-1.4s0.4-0.8,0.6-1.2s0.6-0.7,1-0.9s0.8-0.5,1.2-0.7s0.9-0.3,1.3-0.4
			s0.9-0.1,1.3-0.1c0.7,0,1.3,0.1,1.8,0.2s0.9,0.4,1.3,0.6s0.6,0.5,0.8,0.9s0.3,0.7,0.3,1.1c0,0.5-0.1,0.8-0.2,1.2s-0.4,0.6-0.6,0.8
			s-0.6,0.4-0.9,0.5s-0.7,0.2-1.1,0.3s-0.8,0.1-1.2,0.1s-0.8,0-1.1,0c-0.1,0-0.2,0-0.4,0s-0.2,0-0.3,0c0,0.3,0.1,0.6,0.3,0.8
			s0.3,0.4,0.5,0.6s0.4,0.2,0.7,0.3s0.6,0.1,0.9,0.1c0.2,0,0.5,0,0.8-0.1s0.5-0.1,0.8-0.1s0.5-0.1,0.8-0.2s0.5-0.2,0.8-0.3V237.3z
			 M247.5,232.3c0.1,0,0.3,0,0.5,0s0.5,0,0.7-0.1s0.5-0.1,0.7-0.1s0.5-0.1,0.7-0.2s0.4-0.2,0.5-0.3s0.2-0.3,0.2-0.4
			c0-0.3-0.1-0.5-0.4-0.7s-0.6-0.3-1-0.3c-0.2,0-0.4,0-0.6,0.1s-0.4,0.2-0.6,0.3s-0.4,0.4-0.5,0.7S247.5,231.9,247.5,232.3z"/>
		<path fill="#5B5B5B" d="M258,237.9c-0.4,0-0.7-0.1-1.1-0.2s-0.6-0.3-0.9-0.5s-0.5-0.5-0.6-0.8s-0.2-0.7-0.2-1.2
			c0-0.4,0.1-0.8,0.2-1.1s0.3-0.6,0.6-0.8s0.5-0.4,0.8-0.6s0.7-0.3,1-0.4s0.7-0.1,1.1-0.2s0.7,0,1.1,0c0.2,0,0.5,0,0.7,0
			s0.4,0,0.6,0c0-0.4-0.1-0.7-0.2-0.9s-0.3-0.4-0.5-0.6s-0.5-0.2-0.7-0.3s-0.6-0.1-0.9-0.1c-0.3,0-0.6,0-0.9,0.1s-0.6,0.1-0.9,0.1
			s-0.6,0.1-0.8,0.2s-0.5,0.1-0.7,0.2v-2.5c0.3-0.1,0.6-0.1,0.9-0.2s0.7-0.1,1-0.2s0.7-0.1,1.1-0.1s0.7,0,1.1,0c0.5,0,0.9,0,1.3,0.1
			s0.8,0.1,1.2,0.3s0.8,0.3,1.1,0.5s0.6,0.5,0.9,0.8s0.4,0.7,0.6,1.1s0.2,0.9,0.2,1.5v5.4h-3.6v-1.6c-0.1,0.3-0.3,0.5-0.6,0.8
			s-0.5,0.4-0.9,0.6s-0.7,0.3-1,0.4S258.4,237.9,258,237.9z M259.5,235.9c0.2,0,0.4,0,0.6-0.1s0.4-0.2,0.6-0.4s0.4-0.4,0.5-0.7
			s0.2-0.6,0.2-1h-0.3c-0.3,0-0.6,0-0.9,0.1s-0.6,0.1-0.8,0.3s-0.4,0.3-0.6,0.4s-0.2,0.4-0.2,0.6c0,0.2,0,0.3,0.1,0.4
			s0.1,0.2,0.2,0.3s0.2,0.1,0.3,0.2S259.4,235.9,259.5,235.9z"/>
		<path fill="#5B5B5B" d="M267.7,228.2h3.6c0,0.2,0,0.3,0,0.5s0,0.4,0,0.6s0,0.4,0,0.6s0,0.4,0,0.6c0.1-0.3,0.3-0.6,0.5-0.9
			s0.4-0.6,0.7-0.8s0.5-0.4,0.9-0.6s0.7-0.2,1.1-0.2c0.1,0,0.2,0,0.3,0s0.2,0,0.3,0s0.2,0,0.3,0.1s0.1,0.1,0.2,0.1l-0.3,3.6
			c-0.3-0.1-0.5-0.2-0.8-0.2s-0.5-0.1-0.8-0.1c-0.3,0-0.6,0-0.8,0.1s-0.4,0.2-0.6,0.3s-0.3,0.2-0.4,0.4s-0.2,0.3-0.2,0.4v5h-3.8
			V228.2z"/>
		<path fill="#5B5B5B" d="M280.1,233c0,0.4,0.1,0.8,0.2,1.1s0.2,0.6,0.4,0.8s0.4,0.4,0.7,0.5s0.6,0.2,0.9,0.2c0.4,0,0.8-0.1,1.2-0.2
			s0.8-0.3,1.2-0.5l0.6,2.3c-0.3,0.1-0.5,0.3-0.8,0.4s-0.6,0.2-0.9,0.3s-0.6,0.1-1,0.2s-0.6,0.1-1,0.1c-0.7,0-1.4-0.1-2-0.3
			s-1.2-0.5-1.6-0.9s-0.8-0.9-1.1-1.6s-0.4-1.4-0.4-2.2s0.1-1.6,0.4-2.2s0.6-1.1,1.1-1.6s1-0.7,1.6-0.9s1.3-0.3,2-0.3
			c0.3,0,0.6,0,1,0.1s0.6,0.1,1,0.2s0.6,0.2,0.9,0.3s0.6,0.2,0.8,0.4l-0.6,2.3c-0.4-0.2-0.8-0.4-1.2-0.5s-0.8-0.2-1.2-0.2
			c-0.3,0-0.6,0.1-0.9,0.2s-0.5,0.3-0.7,0.5s-0.3,0.5-0.4,0.8S280.1,232.5,280.1,233z"/>
		<path fill="#5B5B5B" d="M287.6,224.2h3.8v5.3c0.2-0.2,0.4-0.4,0.6-0.6s0.5-0.4,0.9-0.5s0.6-0.2,1-0.3s0.7-0.1,1-0.1
			c0.4,0,0.8,0.1,1.2,0.2s0.7,0.4,1,0.7s0.5,0.7,0.7,1.2s0.2,1.1,0.2,1.7v6h-3.8v-5c0-0.4,0-0.8-0.1-1.1s-0.2-0.5-0.3-0.7
			s-0.3-0.3-0.4-0.4s-0.3-0.1-0.5-0.1c-0.2,0-0.4,0-0.5,0.1s-0.3,0.2-0.5,0.3s-0.3,0.3-0.4,0.4s-0.2,0.4-0.2,0.6v5.9h-3.8V224.2z"/>
		<path fill="#5B5B5B" d="M181,245.8h3.8v5.3c0.2-0.2,0.4-0.4,0.6-0.6s0.5-0.4,0.9-0.5s0.6-0.2,1-0.3s0.7-0.1,1-0.1
			c0.4,0,0.8,0.1,1.2,0.2s0.7,0.4,1,0.7s0.5,0.7,0.7,1.2s0.2,1.1,0.2,1.7v6h-3.8v-5c0-0.4,0-0.8-0.1-1.1s-0.2-0.5-0.3-0.7
			s-0.3-0.3-0.4-0.4s-0.3-0.1-0.5-0.1c-0.2,0-0.4,0-0.5,0.1s-0.3,0.2-0.5,0.3s-0.3,0.3-0.4,0.4s-0.2,0.4-0.2,0.6v5.9H181V245.8z"/>
		<path fill="#5B5B5B" d="M196,247.8c-0.3,0-0.6,0-0.9-0.1s-0.5-0.2-0.8-0.3s-0.4-0.3-0.5-0.4s-0.2-0.4-0.2-0.6
			c0-0.2,0.1-0.4,0.2-0.6s0.3-0.3,0.5-0.4s0.5-0.2,0.8-0.3s0.6-0.1,0.9-0.1s0.7,0,1,0.1s0.6,0.1,0.8,0.3s0.4,0.3,0.5,0.4
			s0.2,0.4,0.2,0.6c0,0.2-0.1,0.4-0.2,0.6s-0.3,0.3-0.5,0.4s-0.5,0.2-0.8,0.3S196.4,247.8,196,247.8z M194.1,249.8h3.8v9.5h-3.8
			V249.8z"/>
		<path fill="#5B5B5B" d="M205.5,259.5c-0.5,0-1.1-0.1-1.6-0.2c-0.5-0.1-0.9-0.4-1.3-0.7s-0.7-0.7-0.9-1.2s-0.3-1.2-0.3-1.9V252
			h-1.7v-0.6l4.1-4.5h1.4v2.9h2.8c-0.1,0.4-0.1,0.7-0.2,1.1s-0.1,0.7-0.1,1.1h-2.5v3.5c0,0.2,0,0.4,0,0.6s0.1,0.4,0.2,0.5
			s0.2,0.3,0.4,0.4s0.4,0.1,0.7,0.1c0.2,0,0.4,0,0.7-0.1s0.5-0.1,0.8-0.2l0.2,2.3c-0.4,0.1-0.8,0.2-1.3,0.3
			C206.5,259.5,206,259.5,205.5,259.5z"/>
		<path fill="#5B5B5B" d="M218.6,259.5c-0.4,0-0.7-0.1-1.1-0.2s-0.6-0.3-0.9-0.5s-0.5-0.5-0.6-0.8s-0.2-0.7-0.2-1.2
			c0-0.4,0.1-0.8,0.2-1.1s0.3-0.6,0.6-0.8s0.5-0.4,0.8-0.6s0.7-0.3,1-0.4s0.7-0.1,1.1-0.2s0.7,0,1.1,0c0.2,0,0.5,0,0.7,0
			s0.4,0,0.6,0c0-0.4-0.1-0.7-0.2-0.9s-0.3-0.4-0.5-0.6s-0.5-0.2-0.7-0.3s-0.6-0.1-0.9-0.1c-0.3,0-0.6,0-0.9,0.1s-0.6,0.1-0.9,0.1
			s-0.6,0.1-0.8,0.2s-0.5,0.1-0.7,0.2v-2.5c0.3-0.1,0.6-0.1,0.9-0.2s0.7-0.1,1-0.2s0.7-0.1,1.1-0.1s0.7,0,1.1,0c0.5,0,0.9,0,1.3,0.1
			s0.8,0.1,1.2,0.3s0.8,0.3,1.1,0.5s0.6,0.5,0.9,0.8s0.4,0.7,0.6,1.1s0.2,0.9,0.2,1.5v5.4h-3.6v-1.6c-0.1,0.3-0.3,0.5-0.6,0.8
			s-0.5,0.4-0.9,0.6s-0.7,0.3-1,0.4S218.9,259.5,218.6,259.5z M220.1,257.5c0.2,0,0.4,0,0.6-0.1s0.4-0.2,0.6-0.4s0.4-0.4,0.5-0.7
			s0.2-0.6,0.2-1h-0.3c-0.3,0-0.6,0-0.9,0.1s-0.6,0.1-0.8,0.3s-0.4,0.3-0.6,0.4s-0.2,0.4-0.2,0.6c0,0.2,0,0.3,0.1,0.4
			s0.1,0.2,0.2,0.3s0.2,0.1,0.3,0.2S220,257.5,220.1,257.5z"/>
		<path fill="#5B5B5B" d="M241.9,252.6c-0.6-0.3-1.2-0.5-1.7-0.6s-1.1-0.2-1.5-0.2c-0.4,0-0.8,0-0.9,0.1s-0.3,0.2-0.3,0.4
			c0,0.2,0.1,0.3,0.4,0.4s0.7,0.2,1.2,0.4s1,0.3,1.4,0.5s0.8,0.4,1.1,0.6s0.5,0.6,0.7,0.9s0.2,0.8,0.2,1.3c0,0.5-0.1,0.9-0.3,1.3
			s-0.4,0.7-0.8,1s-0.8,0.5-1.4,0.6s-1.2,0.2-1.9,0.2c-0.7,0-1.3,0-2-0.1c-0.7-0.1-1.3-0.3-2-0.5v-2.7c0.6,0.3,1.2,0.5,1.8,0.6
			s1.2,0.2,1.7,0.2c1,0,1.5-0.2,1.5-0.6c0-0.1,0-0.1-0.1-0.2s-0.1-0.1-0.3-0.2s-0.3-0.1-0.5-0.2s-0.5-0.1-0.9-0.2
			c-0.5-0.1-0.9-0.3-1.4-0.5s-0.8-0.4-1.1-0.7s-0.6-0.6-0.8-0.9s-0.3-0.8-0.3-1.2c0-0.4,0.1-0.8,0.3-1.1s0.4-0.6,0.8-0.9
			s0.8-0.4,1.3-0.6s1.1-0.2,1.8-0.2c0.4,0,0.8,0,1.1,0.1s0.7,0.1,1,0.1s0.6,0.1,0.9,0.2s0.5,0.1,0.8,0.2L241.9,252.6z"/>
		<path fill="#5B5B5B" d="M244.7,249.8h3.8c0,0.2-0.1,0.5-0.1,0.8s-0.1,0.6-0.1,1c0.2-0.3,0.4-0.6,0.8-0.8s0.6-0.5,1-0.6
			s0.7-0.3,1.2-0.4s0.8-0.1,1.2-0.1c0.5,0,0.9,0.1,1.3,0.2s0.8,0.4,1.1,0.7s0.6,0.7,0.7,1.2s0.3,1.1,0.3,1.7v6h-3.8v-5.4
			c0-0.4,0-0.7-0.1-0.9s-0.2-0.4-0.3-0.6s-0.3-0.2-0.5-0.3s-0.4-0.1-0.6-0.1c-0.2,0-0.5,0-0.7,0.1s-0.4,0.2-0.6,0.3
			s-0.3,0.3-0.5,0.5s-0.2,0.4-0.3,0.6v5.8h-3.8V249.8z"/>
		<path fill="#5B5B5B" d="M260.8,259.5c-0.4,0-0.7-0.1-1.1-0.2s-0.6-0.3-0.9-0.5s-0.5-0.5-0.6-0.8s-0.2-0.7-0.2-1.2
			c0-0.4,0.1-0.8,0.2-1.1s0.3-0.6,0.6-0.8s0.5-0.4,0.8-0.6s0.7-0.3,1-0.4s0.7-0.1,1.1-0.2s0.7,0,1.1,0c0.2,0,0.5,0,0.7,0
			s0.4,0,0.6,0c0-0.4-0.1-0.7-0.2-0.9s-0.3-0.4-0.5-0.6s-0.5-0.2-0.7-0.3s-0.6-0.1-0.9-0.1c-0.3,0-0.6,0-0.9,0.1s-0.6,0.1-0.9,0.1
			s-0.6,0.1-0.8,0.2s-0.5,0.1-0.7,0.2v-2.5c0.3-0.1,0.6-0.1,0.9-0.2s0.7-0.1,1-0.2s0.7-0.1,1.1-0.1s0.7,0,1.1,0c0.5,0,0.9,0,1.3,0.1
			s0.8,0.1,1.2,0.3s0.8,0.3,1.1,0.5s0.6,0.5,0.9,0.8s0.4,0.7,0.6,1.1s0.2,0.9,0.2,1.5v5.4h-3.6v-1.6c-0.1,0.3-0.3,0.5-0.6,0.8
			s-0.5,0.4-0.9,0.6s-0.7,0.3-1,0.4S261.2,259.5,260.8,259.5z M262.3,257.5c0.2,0,0.4,0,0.6-0.1s0.4-0.2,0.6-0.4s0.4-0.4,0.5-0.7
			s0.2-0.6,0.2-1h-0.3c-0.3,0-0.6,0-0.9,0.1s-0.6,0.1-0.8,0.3s-0.4,0.3-0.6,0.4s-0.2,0.4-0.2,0.6c0,0.2,0,0.3,0.1,0.4
			s0.1,0.2,0.2,0.3s0.2,0.1,0.3,0.2S262.2,257.5,262.3,257.5z"/>
		<path fill="#5B5B5B" d="M277,257.6c-0.2,0.5-0.6,0.9-1.1,1.2s-1.1,0.4-1.8,0.4c-0.7,0-1.3-0.1-1.9-0.4s-1-0.6-1.3-1.1
			s-0.6-0.9-0.8-1.5s-0.3-1.2-0.3-1.7c0-0.6,0.1-1.2,0.3-1.8s0.4-1.1,0.8-1.6s0.8-0.9,1.3-1.1s1.1-0.4,1.8-0.4c0.4,0,0.8,0,1.2,0.1
			s0.6,0.2,0.9,0.4s0.5,0.4,0.7,0.7s0.4,0.5,0.5,0.9c0-0.1,0-0.2,0-0.3s0-0.3,0-0.5s0-0.4-0.1-0.6s0-0.3-0.1-0.4h3.8v7.4
			c0,1.1-0.1,2-0.4,2.8c-0.3,0.8-0.6,1.4-1.1,2c-0.5,0.5-1.1,0.9-1.8,1.2c-0.7,0.3-1.5,0.4-2.4,0.4c-0.4,0-0.7,0-1,0s-0.5,0-0.8-0.1
			s-0.5-0.1-0.8-0.1s-0.5-0.1-0.8-0.2l0.3-2.2c0.2,0,0.4,0.1,0.6,0.1s0.4,0.1,0.7,0.1c0.2,0,0.5,0.1,0.7,0.1c0.2,0,0.5,0,0.7,0
			c0.5,0,0.9-0.1,1.2-0.3s0.6-0.5,0.7-0.8s0.3-0.7,0.4-1.1C277,258.6,277,258.1,277,257.6z M273.4,254.6c0,0.5,0.1,0.9,0.2,1.2
			s0.2,0.6,0.4,0.8s0.4,0.3,0.6,0.4s0.4,0.1,0.7,0.1s0.5,0,0.7-0.1s0.4-0.2,0.6-0.4s0.3-0.5,0.4-0.8s0.2-0.7,0.2-1.2
			c0-0.5-0.1-0.9-0.2-1.2s-0.2-0.6-0.4-0.8s-0.4-0.3-0.6-0.4s-0.4-0.1-0.7-0.1s-0.5,0-0.7,0.1s-0.4,0.2-0.6,0.4s-0.3,0.5-0.4,0.8
			S273.4,254.1,273.4,254.6z"/>
		<path fill="#5B5B5B" d="M295.5,252v2.8h-7V252H295.5z"/>
		<path fill="#5B5B5B" d="M184.7,281.1c-0.6,0-1.1-0.1-1.6-0.3s-1-0.5-1.4-0.9s-0.7-0.9-0.9-1.6s-0.3-1.4-0.3-2.2
			c0-0.9,0.1-1.7,0.4-2.3s0.5-1.2,0.9-1.5c0.4-0.4,0.8-0.7,1.3-0.9s1-0.3,1.5-0.3c0.3,0,0.7,0,1,0.1s0.6,0.2,0.9,0.3
			s0.6,0.3,0.8,0.5s0.4,0.4,0.6,0.6v-5.3h3.8v13.5h-3.8v-1.6c-0.2,0.3-0.4,0.5-0.6,0.8s-0.5,0.4-0.8,0.6c-0.3,0.2-0.6,0.3-0.9,0.4
			S185,281.1,184.7,281.1z M184.2,276.2c0,0.5,0.1,0.9,0.2,1.2s0.2,0.6,0.4,0.8c0.2,0.2,0.4,0.3,0.6,0.4c0.2,0.1,0.4,0.1,0.7,0.1
			s0.5,0,0.7-0.1c0.2-0.1,0.4-0.2,0.6-0.4c0.2-0.2,0.3-0.5,0.4-0.8c0.1-0.3,0.2-0.7,0.2-1.2c0-0.5-0.1-0.9-0.2-1.2
			c-0.1-0.3-0.2-0.6-0.4-0.8s-0.4-0.3-0.6-0.4s-0.4-0.1-0.7-0.1s-0.5,0-0.7,0.1s-0.4,0.2-0.6,0.4s-0.3,0.5-0.4,0.8
			C184.3,275.3,184.2,275.7,184.2,276.2z"/>
		<path fill="#5B5B5B" d="M199.2,281.1c-0.7,0-1.3-0.1-1.8-0.2s-1-0.3-1.4-0.5s-0.7-0.5-1-0.8s-0.5-0.7-0.7-1s-0.3-0.8-0.4-1.2
			s-0.1-0.8-0.1-1.2c0-0.4,0-0.8,0.1-1.2s0.2-0.8,0.4-1.2c0.2-0.4,0.4-0.7,0.7-1s0.6-0.6,1-0.8c0.4-0.2,0.9-0.4,1.4-0.5
			c0.5-0.1,1.2-0.2,1.8-0.2s1.3,0.1,1.8,0.2c0.5,0.1,1,0.3,1.4,0.5c0.4,0.2,0.8,0.5,1,0.8s0.5,0.7,0.7,1c0.2,0.4,0.3,0.8,0.4,1.2
			s0.1,0.8,0.1,1.2c0,0.4,0,0.8-0.1,1.2s-0.2,0.8-0.4,1.2s-0.4,0.7-0.7,1s-0.6,0.6-1,0.8s-0.9,0.4-1.4,0.5S199.9,281.1,199.2,281.1z
			 M197.5,276.2c0,0.3,0,0.6,0.1,0.9s0.2,0.6,0.3,0.8c0.1,0.2,0.3,0.4,0.5,0.6c0.2,0.1,0.5,0.2,0.8,0.2s0.6-0.1,0.8-0.2
			c0.2-0.1,0.4-0.3,0.5-0.6c0.1-0.2,0.2-0.5,0.3-0.8s0.1-0.6,0.1-0.9s0-0.6-0.1-0.9c-0.1-0.3-0.2-0.6-0.3-0.8
			c-0.1-0.2-0.3-0.4-0.5-0.6s-0.5-0.2-0.8-0.2s-0.6,0.1-0.8,0.2s-0.4,0.3-0.5,0.6c-0.1,0.2-0.2,0.5-0.3,0.8
			C197.5,275.5,197.5,275.8,197.5,276.2z"/>
		<path fill="#5B5B5B" d="M213.3,279.2c-0.2,0.5-0.6,0.9-1.1,1.2s-1.1,0.4-1.8,0.4c-0.7,0-1.3-0.1-1.9-0.4s-1-0.6-1.3-1.1
			s-0.6-0.9-0.8-1.5s-0.3-1.2-0.3-1.7c0-0.6,0.1-1.2,0.3-1.8s0.4-1.1,0.8-1.6s0.8-0.9,1.3-1.1c0.5-0.3,1.1-0.4,1.8-0.4
			c0.4,0,0.8,0,1.2,0.1s0.6,0.2,0.9,0.4c0.3,0.2,0.5,0.4,0.7,0.7c0.2,0.3,0.4,0.5,0.5,0.9c0-0.1,0-0.2,0-0.3s0-0.3,0-0.5
			s0-0.4-0.1-0.6c0-0.2,0-0.3-0.1-0.4h3.8v7.4c0,1.1-0.1,2-0.4,2.8c-0.3,0.8-0.6,1.4-1.1,2c-0.5,0.5-1.1,0.9-1.8,1.2
			c-0.7,0.3-1.5,0.4-2.4,0.4c-0.4,0-0.7,0-1,0s-0.5,0-0.8-0.1s-0.5-0.1-0.8-0.1s-0.5-0.1-0.8-0.2l0.3-2.2c0.2,0,0.4,0.1,0.6,0.1
			s0.4,0.1,0.7,0.1c0.2,0,0.5,0.1,0.7,0.1s0.5,0,0.7,0c0.5,0,0.9-0.1,1.2-0.3s0.6-0.5,0.7-0.8s0.3-0.7,0.4-1.1
			C213.3,280.2,213.3,279.7,213.3,279.2z M209.7,276.2c0,0.5,0.1,0.9,0.2,1.2s0.2,0.6,0.4,0.8c0.2,0.2,0.4,0.3,0.6,0.4
			c0.2,0.1,0.4,0.1,0.7,0.1s0.5,0,0.7-0.1c0.2-0.1,0.4-0.2,0.6-0.4c0.2-0.2,0.3-0.5,0.4-0.8c0.1-0.3,0.2-0.7,0.2-1.2
			c0-0.5-0.1-0.9-0.2-1.2c-0.1-0.3-0.2-0.6-0.4-0.8s-0.4-0.3-0.6-0.4s-0.4-0.1-0.7-0.1s-0.5,0-0.7,0.1s-0.4,0.2-0.6,0.4
			s-0.3,0.5-0.4,0.8C209.7,275.3,209.7,275.7,209.7,276.2z"/>
		<path fill="#5B5B5B" d="M226.4,279.2c-0.2,0.5-0.6,0.9-1.1,1.2s-1.1,0.4-1.8,0.4c-0.7,0-1.3-0.1-1.9-0.4s-1-0.6-1.3-1.1
			s-0.6-0.9-0.8-1.5s-0.3-1.2-0.3-1.7c0-0.6,0.1-1.2,0.3-1.8s0.4-1.1,0.8-1.6s0.8-0.9,1.3-1.1c0.5-0.3,1.1-0.4,1.8-0.4
			c0.4,0,0.8,0,1.2,0.1s0.6,0.2,0.9,0.4c0.3,0.2,0.5,0.4,0.7,0.7c0.2,0.3,0.4,0.5,0.5,0.9c0-0.1,0-0.2,0-0.3s0-0.3,0-0.5
			s0-0.4-0.1-0.6c0-0.2,0-0.3-0.1-0.4h3.8v7.4c0,1.1-0.1,2-0.4,2.8c-0.3,0.8-0.6,1.4-1.1,2c-0.5,0.5-1.1,0.9-1.8,1.2
			c-0.7,0.3-1.5,0.4-2.4,0.4c-0.4,0-0.7,0-1,0s-0.5,0-0.8-0.1s-0.5-0.1-0.8-0.1s-0.5-0.1-0.8-0.2l0.3-2.2c0.2,0,0.4,0.1,0.6,0.1
			s0.4,0.1,0.7,0.1c0.2,0,0.5,0.1,0.7,0.1s0.5,0,0.7,0c0.5,0,0.9-0.1,1.2-0.3s0.6-0.5,0.7-0.8s0.3-0.7,0.4-1.1
			C226.4,280.2,226.4,279.7,226.4,279.2z M222.8,276.2c0,0.5,0.1,0.9,0.2,1.2s0.2,0.6,0.4,0.8c0.2,0.2,0.4,0.3,0.6,0.4
			c0.2,0.1,0.4,0.1,0.7,0.1s0.5,0,0.7-0.1c0.2-0.1,0.4-0.2,0.6-0.4c0.2-0.2,0.3-0.5,0.4-0.8c0.1-0.3,0.2-0.7,0.2-1.2
			c0-0.5-0.1-0.9-0.2-1.2c-0.1-0.3-0.2-0.6-0.4-0.8s-0.4-0.3-0.6-0.4s-0.4-0.1-0.7-0.1s-0.5,0-0.7,0.1s-0.4,0.2-0.6,0.4
			s-0.3,0.5-0.4,0.8C222.8,275.3,222.8,275.7,222.8,276.2z"/>
		<path fill="#5B5B5B" d="M234.9,269.4c-0.3,0-0.6,0-0.9-0.1s-0.5-0.2-0.8-0.3s-0.4-0.3-0.5-0.4s-0.2-0.4-0.2-0.6
			c0-0.2,0.1-0.4,0.2-0.6c0.1-0.2,0.3-0.3,0.5-0.4s0.5-0.2,0.8-0.3s0.6-0.1,0.9-0.1s0.7,0,1,0.1s0.6,0.1,0.8,0.3s0.4,0.3,0.5,0.4
			c0.1,0.2,0.2,0.4,0.2,0.6c0,0.2-0.1,0.4-0.2,0.6s-0.3,0.3-0.5,0.4s-0.5,0.2-0.8,0.3S235.3,269.4,234.9,269.4z M233,271.4h3.8v9.5
			H233V271.4z"/>
		<path fill="#5B5B5B" d="M248.5,280.5c-0.6,0.2-1.1,0.3-1.8,0.5c-0.6,0.1-1.3,0.2-2,0.2c-0.8,0-1.5-0.1-2.2-0.3s-1.3-0.5-1.8-0.9
			s-0.9-1-1.2-1.6c-0.3-0.6-0.5-1.4-0.5-2.3c0-0.5,0.1-1,0.2-1.4s0.4-0.8,0.6-1.2s0.6-0.7,1-0.9s0.8-0.5,1.2-0.7s0.9-0.3,1.3-0.4
			c0.4-0.1,0.9-0.1,1.3-0.1c0.7,0,1.3,0.1,1.8,0.2c0.5,0.1,0.9,0.3,1.3,0.6s0.6,0.5,0.8,0.9s0.3,0.7,0.3,1.1c0,0.5-0.1,0.8-0.2,1.2
			s-0.4,0.6-0.6,0.8c-0.3,0.2-0.6,0.4-0.9,0.5s-0.7,0.2-1.1,0.3c-0.4,0.1-0.8,0.1-1.2,0.1s-0.8,0-1.1,0c-0.1,0-0.2,0-0.4,0
			s-0.2,0-0.3,0c0,0.3,0.1,0.6,0.3,0.8s0.3,0.4,0.5,0.6c0.2,0.1,0.4,0.2,0.7,0.3c0.3,0.1,0.6,0.1,0.9,0.1c0.2,0,0.5,0,0.8-0.1
			s0.5-0.1,0.8-0.1c0.3-0.1,0.5-0.1,0.8-0.2c0.3-0.1,0.5-0.2,0.8-0.3V280.5z M242.8,275.5c0.1,0,0.3,0,0.5,0s0.5,0,0.7-0.1
			s0.5-0.1,0.7-0.1s0.5-0.1,0.7-0.2s0.4-0.2,0.5-0.3s0.2-0.3,0.2-0.4c0-0.3-0.1-0.5-0.4-0.7c-0.2-0.2-0.6-0.3-1-0.3
			c-0.2,0-0.4,0-0.6,0.1s-0.4,0.2-0.6,0.3s-0.4,0.4-0.5,0.7S242.8,275.1,242.8,275.5z"/>
		<path fill="#5B5B5B" d="M261,281.1c-0.6,0-1.1-0.1-1.6-0.3s-1-0.5-1.4-0.9s-0.7-0.9-0.9-1.6s-0.3-1.4-0.3-2.2
			c0-0.9,0.1-1.7,0.4-2.3s0.5-1.2,0.9-1.5c0.4-0.4,0.8-0.7,1.3-0.9s1-0.3,1.5-0.3c0.3,0,0.7,0,1,0.1s0.6,0.2,0.9,0.3
			s0.6,0.3,0.8,0.5s0.4,0.4,0.6,0.6v-5.3h3.8v13.5h-3.8v-1.6c-0.2,0.3-0.4,0.5-0.6,0.8s-0.5,0.4-0.8,0.6c-0.3,0.2-0.6,0.3-0.9,0.4
			S261.3,281.1,261,281.1z M260.5,276.2c0,0.5,0.1,0.9,0.2,1.2s0.2,0.6,0.4,0.8c0.2,0.2,0.4,0.3,0.6,0.4c0.2,0.1,0.4,0.1,0.7,0.1
			s0.5,0,0.7-0.1c0.2-0.1,0.4-0.2,0.6-0.4c0.2-0.2,0.3-0.5,0.4-0.8c0.1-0.3,0.2-0.7,0.2-1.2c0-0.5-0.1-0.9-0.2-1.2
			c-0.1-0.3-0.2-0.6-0.4-0.8s-0.4-0.3-0.6-0.4s-0.4-0.1-0.7-0.1s-0.5,0-0.7,0.1s-0.4,0.2-0.6,0.4s-0.3,0.5-0.4,0.8
			C260.5,275.3,260.5,275.7,260.5,276.2z"/>
		<path fill="#5B5B5B" d="M273,281.1c-0.4,0-0.7-0.1-1.1-0.2s-0.6-0.3-0.9-0.5s-0.5-0.5-0.6-0.8c-0.2-0.3-0.2-0.7-0.2-1.2
			c0-0.4,0.1-0.8,0.2-1.1c0.1-0.3,0.3-0.6,0.6-0.8s0.5-0.4,0.8-0.6c0.3-0.1,0.7-0.3,1-0.4c0.4-0.1,0.7-0.1,1.1-0.2
			c0.4,0,0.7,0,1.1,0c0.2,0,0.5,0,0.7,0s0.4,0,0.6,0c0-0.4-0.1-0.7-0.2-0.9s-0.3-0.4-0.5-0.6s-0.5-0.2-0.7-0.3s-0.6-0.1-0.9-0.1
			c-0.3,0-0.6,0-0.9,0.1s-0.6,0.1-0.9,0.1s-0.6,0.1-0.8,0.2s-0.5,0.1-0.7,0.2v-2.5c0.3-0.1,0.6-0.1,0.9-0.2c0.3-0.1,0.7-0.1,1-0.2
			s0.7-0.1,1.1-0.1s0.7,0,1.1,0c0.5,0,0.9,0,1.3,0.1s0.8,0.1,1.2,0.3s0.8,0.3,1.1,0.5s0.6,0.5,0.9,0.8s0.4,0.7,0.6,1.1
			s0.2,0.9,0.2,1.5v5.4h-3.6v-1.6c-0.1,0.3-0.3,0.5-0.6,0.8c-0.3,0.2-0.5,0.4-0.9,0.6s-0.7,0.3-1,0.4S273.3,281.1,273,281.1z
			 M274.4,279.1c0.2,0,0.4,0,0.6-0.1c0.2-0.1,0.4-0.2,0.6-0.4s0.4-0.4,0.5-0.7s0.2-0.6,0.2-1H276c-0.3,0-0.6,0-0.9,0.1
			s-0.6,0.1-0.8,0.3s-0.4,0.3-0.6,0.4s-0.2,0.4-0.2,0.6c0,0.2,0,0.3,0.1,0.4s0.1,0.2,0.2,0.3s0.2,0.1,0.3,0.2
			S274.3,279.1,274.4,279.1z"/>
		<path fill="#5B5B5B" d="M287.4,281.1c-0.5,0-1.1-0.1-1.6-0.2c-0.5-0.1-0.9-0.4-1.3-0.7c-0.4-0.3-0.7-0.7-0.9-1.2
			c-0.2-0.5-0.3-1.2-0.3-1.9v-3.5h-1.7V273l4.1-4.5h1.4v2.9h2.8c-0.1,0.4-0.1,0.7-0.2,1.1s-0.1,0.7-0.1,1.1H287v3.5
			c0,0.2,0,0.4,0,0.6s0.1,0.4,0.2,0.5c0.1,0.2,0.2,0.3,0.4,0.4s0.4,0.1,0.7,0.1c0.2,0,0.4,0,0.7-0.1c0.2,0,0.5-0.1,0.8-0.2l0.2,2.3
			c-0.4,0.1-0.8,0.2-1.3,0.3S287.9,281.1,287.4,281.1z"/>
		<path fill="#5B5B5B" d="M294.2,281.1c-0.4,0-0.7-0.1-1.1-0.2s-0.6-0.3-0.9-0.5s-0.5-0.5-0.6-0.8c-0.2-0.3-0.2-0.7-0.2-1.2
			c0-0.4,0.1-0.8,0.2-1.1c0.1-0.3,0.3-0.6,0.6-0.8s0.5-0.4,0.8-0.6c0.3-0.1,0.7-0.3,1-0.4c0.4-0.1,0.7-0.1,1.1-0.2
			c0.4,0,0.7,0,1.1,0c0.2,0,0.5,0,0.7,0s0.4,0,0.6,0c0-0.4-0.1-0.7-0.2-0.9s-0.3-0.4-0.5-0.6s-0.5-0.2-0.7-0.3s-0.6-0.1-0.9-0.1
			c-0.3,0-0.6,0-0.9,0.1s-0.6,0.1-0.9,0.1s-0.6,0.1-0.8,0.2s-0.5,0.1-0.7,0.2v-2.5c0.3-0.1,0.6-0.1,0.9-0.2c0.3-0.1,0.7-0.1,1-0.2
			s0.7-0.1,1.1-0.1s0.7,0,1.1,0c0.5,0,0.9,0,1.3,0.1s0.8,0.1,1.2,0.3s0.8,0.3,1.1,0.5s0.6,0.5,0.9,0.8s0.4,0.7,0.6,1.1
			s0.2,0.9,0.2,1.5v5.4h-3.6v-1.6c-0.1,0.3-0.3,0.5-0.6,0.8c-0.3,0.2-0.5,0.4-0.9,0.6s-0.7,0.3-1,0.4S294.5,281.1,294.2,281.1z
			 M295.7,279.1c0.2,0,0.4,0,0.6-0.1c0.2-0.1,0.4-0.2,0.6-0.4s0.4-0.4,0.5-0.7s0.2-0.6,0.2-1h-0.3c-0.3,0-0.6,0-0.9,0.1
			s-0.6,0.1-0.8,0.3s-0.4,0.3-0.6,0.4s-0.2,0.4-0.2,0.6c0,0.2,0,0.3,0.1,0.4s0.1,0.2,0.2,0.3s0.2,0.1,0.3,0.2
			S295.6,279.1,295.7,279.1z"/>
		<path fill="#5B5B5B" d="M181,293h3.8c-0.1,0.2-0.1,0.3-0.1,0.5c0,0.1-0.1,0.3-0.1,0.4s0,0.3,0,0.4s0,0.3,0,0.5
			c0.2-0.3,0.4-0.5,0.6-0.8s0.5-0.5,0.8-0.6c0.3-0.2,0.6-0.3,1-0.4s0.7-0.2,1.1-0.2c0.3,0,0.6,0,0.8,0.1s0.5,0.2,0.8,0.4
			s0.5,0.4,0.7,0.6s0.4,0.5,0.5,0.8c0.2-0.3,0.4-0.5,0.7-0.8c0.3-0.2,0.6-0.4,1-0.6c0.4-0.2,0.7-0.3,1.1-0.4
			c0.4-0.1,0.8-0.1,1.2-0.1c0.6,0,1.2,0.1,1.6,0.3s0.8,0.4,1.1,0.8s0.5,0.7,0.6,1.2s0.2,1,0.2,1.6v5.9h-3.8v-5.4
			c0-0.2,0-0.4-0.1-0.6c0-0.2-0.1-0.4-0.2-0.6c-0.1-0.2-0.3-0.4-0.4-0.5s-0.4-0.2-0.7-0.2c-0.2,0-0.4,0-0.6,0.1s-0.3,0.2-0.5,0.4
			s-0.3,0.4-0.3,0.6s-0.1,0.4-0.1,0.7v5.5h-3.8v-5.4c0-0.2,0-0.5-0.1-0.7s-0.1-0.4-0.2-0.6c-0.1-0.2-0.2-0.3-0.4-0.4
			s-0.4-0.2-0.7-0.2c-0.2,0-0.4,0-0.6,0.1s-0.4,0.2-0.5,0.3s-0.3,0.3-0.4,0.5s-0.2,0.4-0.2,0.6v5.8H181V293z"/>
		<path fill="#5B5B5B" d="M203.1,291c-0.3,0-0.6,0-0.9-0.1s-0.5-0.2-0.8-0.3s-0.4-0.3-0.5-0.4s-0.2-0.4-0.2-0.6
			c0-0.2,0.1-0.4,0.2-0.6c0.1-0.2,0.3-0.3,0.5-0.4s0.5-0.2,0.8-0.3s0.6-0.1,0.9-0.1s0.7,0,1,0.1s0.6,0.1,0.8,0.3s0.4,0.3,0.5,0.4
			c0.1,0.2,0.2,0.4,0.2,0.6c0,0.2-0.1,0.4-0.2,0.6s-0.3,0.3-0.5,0.4s-0.5,0.2-0.8,0.3S203.4,291,203.1,291z M201.2,293h3.8v9.5h-3.8
			V293z"/>
		<path fill="#5B5B5B" d="M215.2,295.8c-0.6-0.3-1.2-0.5-1.7-0.6c-0.6-0.1-1.1-0.2-1.5-0.2c-0.4,0-0.8,0-0.9,0.1s-0.3,0.2-0.3,0.4
			c0,0.2,0.1,0.3,0.4,0.4c0.3,0.1,0.7,0.2,1.2,0.4s1,0.3,1.4,0.5s0.8,0.4,1.1,0.6s0.5,0.6,0.7,0.9s0.2,0.8,0.2,1.3
			c0,0.5-0.1,0.9-0.3,1.3c-0.2,0.4-0.4,0.7-0.8,1s-0.8,0.5-1.4,0.6s-1.2,0.2-1.9,0.2c-0.7,0-1.3,0-2-0.1c-0.7-0.1-1.3-0.3-2-0.5
			v-2.7c0.6,0.3,1.2,0.5,1.8,0.6s1.2,0.2,1.7,0.2c1,0,1.5-0.2,1.5-0.6c0-0.1,0-0.1-0.1-0.2s-0.1-0.1-0.3-0.2
			c-0.1-0.1-0.3-0.1-0.5-0.2c-0.2-0.1-0.5-0.1-0.9-0.2c-0.5-0.1-0.9-0.3-1.4-0.5c-0.4-0.2-0.8-0.4-1.1-0.7c-0.3-0.3-0.6-0.6-0.8-0.9
			s-0.3-0.8-0.3-1.2c0-0.4,0.1-0.8,0.3-1.1s0.4-0.6,0.8-0.9s0.8-0.4,1.3-0.6s1.1-0.2,1.8-0.2c0.4,0,0.8,0,1.1,0.1s0.7,0.1,1,0.1
			c0.3,0.1,0.6,0.1,0.9,0.2c0.3,0.1,0.5,0.1,0.8,0.2L215.2,295.8z"/>
		<path fill="#5B5B5B" d="M225.4,295.8c-0.6-0.3-1.2-0.5-1.7-0.6c-0.6-0.1-1.1-0.2-1.5-0.2c-0.4,0-0.8,0-0.9,0.1s-0.3,0.2-0.3,0.4
			c0,0.2,0.1,0.3,0.4,0.4c0.3,0.1,0.7,0.2,1.2,0.4s1,0.3,1.4,0.5s0.8,0.4,1.1,0.6s0.5,0.6,0.7,0.9s0.2,0.8,0.2,1.3
			c0,0.5-0.1,0.9-0.3,1.3c-0.2,0.4-0.4,0.7-0.8,1s-0.8,0.5-1.4,0.6s-1.2,0.2-1.9,0.2c-0.7,0-1.3,0-2-0.1c-0.7-0.1-1.3-0.3-2-0.5
			v-2.7c0.6,0.3,1.2,0.5,1.8,0.6s1.2,0.2,1.7,0.2c1,0,1.5-0.2,1.5-0.6c0-0.1,0-0.1-0.1-0.2s-0.1-0.1-0.3-0.2
			c-0.1-0.1-0.3-0.1-0.5-0.2c-0.2-0.1-0.5-0.1-0.9-0.2c-0.5-0.1-0.9-0.3-1.4-0.5c-0.4-0.2-0.8-0.4-1.1-0.7c-0.3-0.3-0.6-0.6-0.8-0.9
			s-0.3-0.8-0.3-1.2c0-0.4,0.1-0.8,0.3-1.1s0.4-0.6,0.8-0.9s0.8-0.4,1.3-0.6s1.1-0.2,1.8-0.2c0.4,0,0.8,0,1.1,0.1s0.7,0.1,1,0.1
			c0.3,0.1,0.6,0.1,0.9,0.2c0.3,0.1,0.5,0.1,0.8,0.2L225.4,295.8z"/>
		<path fill="#5B5B5B" d="M230.1,291c-0.3,0-0.6,0-0.9-0.1s-0.5-0.2-0.8-0.3s-0.4-0.3-0.5-0.4s-0.2-0.4-0.2-0.6
			c0-0.2,0.1-0.4,0.2-0.6c0.1-0.2,0.3-0.3,0.5-0.4s0.5-0.2,0.8-0.3s0.6-0.1,0.9-0.1s0.7,0,1,0.1s0.6,0.1,0.8,0.3s0.4,0.3,0.5,0.4
			c0.1,0.2,0.2,0.4,0.2,0.6c0,0.2-0.1,0.4-0.2,0.6s-0.3,0.3-0.5,0.4s-0.5,0.2-0.8,0.3S230.4,291,230.1,291z M228.2,293h3.8v9.5h-3.8
			V293z"/>
		<path fill="#5B5B5B" d="M234.8,293h3.8c0,0.2-0.1,0.5-0.1,0.8c0,0.3-0.1,0.6-0.1,1c0.2-0.3,0.4-0.6,0.8-0.8c0.3-0.2,0.6-0.5,1-0.6
			s0.7-0.3,1.2-0.4s0.8-0.1,1.2-0.1c0.5,0,0.9,0.1,1.3,0.2s0.8,0.4,1.1,0.7s0.6,0.7,0.7,1.2c0.2,0.5,0.3,1.1,0.3,1.7v6h-3.8v-5.4
			c0-0.4,0-0.7-0.1-0.9s-0.2-0.4-0.3-0.6s-0.3-0.2-0.5-0.3s-0.4-0.1-0.6-0.1c-0.2,0-0.5,0-0.7,0.1c-0.2,0.1-0.4,0.2-0.6,0.3
			s-0.3,0.3-0.5,0.5s-0.2,0.4-0.3,0.6v5.8h-3.8V293z"/>
		<path fill="#5B5B5B" d="M255.2,300.8c-0.2,0.5-0.6,0.9-1.1,1.2s-1.1,0.4-1.8,0.4c-0.7,0-1.3-0.1-1.9-0.4s-1-0.6-1.3-1.1
			s-0.6-0.9-0.8-1.5s-0.3-1.2-0.3-1.7c0-0.6,0.1-1.2,0.3-1.8s0.4-1.1,0.8-1.6s0.8-0.9,1.3-1.1c0.5-0.3,1.1-0.4,1.8-0.4
			c0.4,0,0.8,0,1.2,0.1s0.6,0.2,0.9,0.4c0.3,0.2,0.5,0.4,0.7,0.7c0.2,0.3,0.4,0.5,0.5,0.9c0-0.1,0-0.2,0-0.3s0-0.3,0-0.5
			s0-0.4-0.1-0.6c0-0.2,0-0.3-0.1-0.4h3.8v7.4c0,1.1-0.1,2-0.4,2.8c-0.3,0.8-0.6,1.4-1.1,2c-0.5,0.5-1.1,0.9-1.8,1.2
			c-0.7,0.3-1.5,0.4-2.4,0.4c-0.4,0-0.7,0-1,0s-0.5,0-0.8-0.1s-0.5-0.1-0.8-0.1s-0.5-0.1-0.8-0.2l0.3-2.2c0.2,0,0.4,0.1,0.6,0.1
			s0.4,0.1,0.7,0.1c0.2,0,0.5,0.1,0.7,0.1s0.5,0,0.7,0c0.5,0,0.9-0.1,1.2-0.3s0.6-0.5,0.7-0.8s0.3-0.7,0.4-1.1
			C255.2,301.8,255.2,301.3,255.2,300.8z M251.5,297.8c0,0.5,0.1,0.9,0.2,1.2s0.2,0.6,0.4,0.8c0.2,0.2,0.4,0.3,0.6,0.4
			c0.2,0.1,0.4,0.1,0.7,0.1s0.5,0,0.7-0.1c0.2-0.1,0.4-0.2,0.6-0.4c0.2-0.2,0.3-0.5,0.4-0.8c0.1-0.3,0.2-0.7,0.2-1.2
			c0-0.5-0.1-0.9-0.2-1.2c-0.1-0.3-0.2-0.6-0.4-0.8s-0.4-0.3-0.6-0.4s-0.4-0.1-0.7-0.1s-0.5,0-0.7,0.1s-0.4,0.2-0.6,0.4
			s-0.3,0.5-0.4,0.8C251.6,296.9,251.5,297.3,251.5,297.8z"/>
		<path fill="#5B5B5B" d="M270,291c-0.3,0-0.6,0-0.9-0.1s-0.5-0.2-0.8-0.3s-0.4-0.3-0.5-0.4s-0.2-0.4-0.2-0.6c0-0.2,0.1-0.4,0.2-0.6
			c0.1-0.2,0.3-0.3,0.5-0.4s0.5-0.2,0.8-0.3s0.6-0.1,0.9-0.1s0.7,0,1,0.1s0.6,0.1,0.8,0.3s0.4,0.3,0.5,0.4c0.1,0.2,0.2,0.4,0.2,0.6
			c0,0.2-0.1,0.4-0.2,0.6s-0.3,0.3-0.5,0.4s-0.5,0.2-0.8,0.3S270.3,291,270,291z M268.1,293h3.8v9.5h-3.8V293z"/>
		<path fill="#5B5B5B" d="M274.7,293h3.8c0,0.2-0.1,0.5-0.1,0.8c0,0.3-0.1,0.6-0.1,1c0.2-0.3,0.4-0.6,0.8-0.8c0.3-0.2,0.6-0.5,1-0.6
			s0.7-0.3,1.2-0.4s0.8-0.1,1.2-0.1c0.5,0,0.9,0.1,1.3,0.2s0.8,0.4,1.1,0.7s0.6,0.7,0.7,1.2c0.2,0.5,0.3,1.1,0.3,1.7v6h-3.8v-5.4
			c0-0.4,0-0.7-0.1-0.9s-0.2-0.4-0.3-0.6s-0.3-0.2-0.5-0.3s-0.4-0.1-0.6-0.1c-0.2,0-0.5,0-0.7,0.1c-0.2,0.1-0.4,0.2-0.6,0.3
			s-0.3,0.3-0.5,0.5s-0.2,0.4-0.3,0.6v5.8h-3.8V293z"/>
		<path fill="#5B5B5B" d="M183.3,324.3c-0.4,0-0.7-0.1-1.1-0.2s-0.6-0.3-0.9-0.5s-0.5-0.5-0.6-0.8c-0.2-0.3-0.2-0.7-0.2-1.2
			c0-0.4,0.1-0.8,0.2-1.1c0.1-0.3,0.3-0.6,0.6-0.8s0.5-0.4,0.8-0.6c0.3-0.1,0.7-0.3,1-0.4c0.4-0.1,0.7-0.1,1.1-0.2
			c0.4,0,0.7,0,1.1,0c0.2,0,0.5,0,0.7,0s0.4,0,0.6,0c0-0.4-0.1-0.7-0.2-0.9s-0.3-0.4-0.5-0.6s-0.5-0.2-0.7-0.3s-0.6-0.1-0.9-0.1
			c-0.3,0-0.6,0-0.9,0.1s-0.6,0.1-0.9,0.1s-0.6,0.1-0.8,0.2s-0.5,0.1-0.7,0.2v-2.5c0.3-0.1,0.6-0.1,0.9-0.2c0.3-0.1,0.7-0.1,1-0.2
			s0.7-0.1,1.1-0.1s0.7,0,1.1,0c0.5,0,0.9,0,1.3,0.1s0.8,0.1,1.2,0.3s0.8,0.3,1.1,0.5s0.6,0.5,0.9,0.8s0.4,0.7,0.6,1.1
			s0.2,0.9,0.2,1.5v5.4h-3.6v-1.6c-0.1,0.3-0.3,0.5-0.6,0.8c-0.3,0.2-0.5,0.4-0.9,0.6s-0.7,0.3-1,0.4S183.7,324.3,183.3,324.3z
			 M184.8,322.3c0.2,0,0.4,0,0.6-0.1c0.2-0.1,0.4-0.2,0.6-0.4s0.4-0.4,0.5-0.7s0.2-0.6,0.2-1h-0.3c-0.3,0-0.6,0-0.9,0.1
			s-0.6,0.1-0.8,0.3s-0.4,0.3-0.6,0.4s-0.2,0.4-0.2,0.6c0,0.2,0,0.3,0.1,0.4s0.1,0.2,0.2,0.3s0.2,0.1,0.3,0.2
			S184.7,322.3,184.8,322.3z"/>
		<path fill="#5B5B5B" d="M196.1,319.4c0,0.4,0.1,0.8,0.2,1.1s0.2,0.6,0.4,0.8c0.2,0.2,0.4,0.4,0.7,0.5s0.6,0.2,0.9,0.2
			c0.4,0,0.8-0.1,1.2-0.2c0.4-0.1,0.8-0.3,1.2-0.5l0.6,2.3c-0.3,0.1-0.5,0.3-0.8,0.4c-0.3,0.1-0.6,0.2-0.9,0.3
			c-0.3,0.1-0.6,0.1-1,0.2s-0.6,0.1-1,0.1c-0.7,0-1.4-0.1-2-0.3s-1.2-0.5-1.6-0.9s-0.8-0.9-1.1-1.6s-0.4-1.4-0.4-2.2
			s0.1-1.6,0.4-2.2s0.6-1.1,1.1-1.6s1-0.7,1.6-0.9s1.3-0.3,2-0.3c0.3,0,0.6,0,1,0.1s0.6,0.1,1,0.2c0.3,0.1,0.6,0.2,0.9,0.3
			s0.6,0.2,0.8,0.4l-0.6,2.3c-0.4-0.2-0.8-0.4-1.2-0.5c-0.4-0.1-0.8-0.2-1.2-0.2c-0.3,0-0.6,0.1-0.9,0.2c-0.3,0.1-0.5,0.3-0.7,0.5
			s-0.3,0.5-0.4,0.8C196.2,318.6,196.1,318.9,196.1,319.4z"/>
		<path fill="#5B5B5B" d="M208.4,324.3c-0.5,0-1.1-0.1-1.6-0.2c-0.5-0.1-0.9-0.4-1.3-0.7c-0.4-0.3-0.7-0.7-0.9-1.2
			c-0.2-0.5-0.3-1.2-0.3-1.9v-3.5h-1.7v-0.6l4.1-4.5h1.4v2.9h2.8c-0.1,0.4-0.1,0.7-0.2,1.1s-0.1,0.7-0.1,1.1h-2.5v3.5
			c0,0.2,0,0.4,0,0.6s0.1,0.4,0.2,0.5c0.1,0.2,0.2,0.3,0.4,0.4s0.4,0.1,0.7,0.1c0.2,0,0.4,0,0.7-0.1c0.2,0,0.5-0.1,0.8-0.2l0.2,2.3
			c-0.4,0.1-0.8,0.2-1.3,0.3S208.9,324.3,208.4,324.3z"/>
		<path fill="#5B5B5B" d="M214.9,312.6c-0.3,0-0.6,0-0.9-0.1s-0.5-0.2-0.8-0.3s-0.4-0.3-0.5-0.4s-0.2-0.4-0.2-0.6
			c0-0.2,0.1-0.4,0.2-0.6c0.1-0.2,0.3-0.3,0.5-0.4s0.5-0.2,0.8-0.3s0.6-0.1,0.9-0.1s0.7,0,1,0.1s0.6,0.1,0.8,0.3s0.4,0.3,0.5,0.4
			c0.1,0.2,0.2,0.4,0.2,0.6c0,0.2-0.1,0.4-0.2,0.6s-0.3,0.3-0.5,0.4s-0.5,0.2-0.8,0.3S215.2,312.6,214.9,312.6z M213,314.6h3.8v9.5
			H213V314.6z"/>
		<path fill="#5B5B5B" d="M224.4,324.3c-0.7,0-1.3-0.1-1.8-0.2s-1-0.3-1.4-0.5s-0.7-0.5-1-0.8s-0.5-0.7-0.7-1s-0.3-0.8-0.4-1.2
			s-0.1-0.8-0.1-1.2c0-0.4,0-0.8,0.1-1.2s0.2-0.8,0.4-1.2c0.2-0.4,0.4-0.7,0.7-1s0.6-0.6,1-0.8c0.4-0.2,0.9-0.4,1.4-0.5
			c0.5-0.1,1.2-0.2,1.8-0.2s1.3,0.1,1.8,0.2c0.5,0.1,1,0.3,1.4,0.5c0.4,0.2,0.8,0.5,1,0.8s0.5,0.7,0.7,1c0.2,0.4,0.3,0.8,0.4,1.2
			s0.1,0.8,0.1,1.2c0,0.4,0,0.8-0.1,1.2s-0.2,0.8-0.4,1.2s-0.4,0.7-0.7,1s-0.6,0.6-1,0.8s-0.9,0.4-1.4,0.5S225.1,324.3,224.4,324.3z
			 M222.7,319.4c0,0.3,0,0.6,0.1,0.9s0.2,0.6,0.3,0.8c0.1,0.2,0.3,0.4,0.5,0.6c0.2,0.1,0.5,0.2,0.8,0.2s0.6-0.1,0.8-0.2
			c0.2-0.1,0.4-0.3,0.5-0.6c0.1-0.2,0.2-0.5,0.3-0.8s0.1-0.6,0.1-0.9s0-0.6-0.1-0.9c-0.1-0.3-0.2-0.6-0.3-0.8
			c-0.1-0.2-0.3-0.4-0.5-0.6s-0.5-0.2-0.8-0.2s-0.6,0.1-0.8,0.2s-0.4,0.3-0.5,0.6c-0.1,0.2-0.2,0.5-0.3,0.8
			C222.8,318.7,222.7,319,222.7,319.4z"/>
		<path fill="#5B5B5B" d="M232,314.6h3.8c0,0.2-0.1,0.5-0.1,0.8c0,0.3-0.1,0.6-0.1,1c0.2-0.3,0.4-0.6,0.8-0.8c0.3-0.2,0.6-0.5,1-0.6
			s0.7-0.3,1.2-0.4s0.8-0.1,1.2-0.1c0.5,0,0.9,0.1,1.3,0.2s0.8,0.4,1.1,0.7s0.6,0.7,0.7,1.2c0.2,0.5,0.3,1.1,0.3,1.7v6h-3.8v-5.4
			c0-0.4,0-0.7-0.1-0.9s-0.2-0.4-0.3-0.6s-0.3-0.2-0.5-0.3s-0.4-0.1-0.6-0.1c-0.2,0-0.5,0-0.7,0.1c-0.2,0.1-0.4,0.2-0.6,0.3
			s-0.3,0.3-0.5,0.5s-0.2,0.4-0.3,0.6v5.8H232V314.6z"/>
		<path fill="#5B5B5B" d="M248.4,324.3c-0.4,0-0.7-0.1-1-0.2s-0.5-0.3-0.7-0.4c-0.2-0.2-0.3-0.4-0.4-0.6c-0.1-0.2-0.1-0.5-0.1-0.7
			c0-0.2,0-0.5,0.1-0.7s0.2-0.4,0.4-0.6s0.4-0.3,0.7-0.5s0.6-0.2,1-0.2c0.4,0,0.7,0.1,1,0.2s0.5,0.3,0.7,0.5s0.3,0.4,0.5,0.6
			c0.1,0.2,0.2,0.5,0.2,0.7c0,0.3-0.1,0.5-0.2,0.7c-0.1,0.2-0.2,0.4-0.4,0.6c-0.2,0.2-0.4,0.3-0.7,0.4S248.8,324.3,248.4,324.3z"/>
	</g>
</g>
</svg>
