<?xml version="1.0" encoding="utf-8"?>
<!DOCTYPE svg PUBLIC "-//W3C//DTD SVG 1.1//EN" "http://www.w3.org/Graphics/SVG/1.1/DTD/svg11.dtd">
<svg version="1.1" xmlns="http://www.w3.org/2000/svg" xmlns:xlink="http://www.w3.org/1999/xlink" x="0px" y="0px"
	 viewBox="0 0 588.1 344.3" enable-background="new 0 0 588.1 344.3" xml:space="preserve">
<g id="BG">
	<path fill="#AF6A6D" d="M248.3,216.5c-0.1-0.5-0.1-1-0.1-1.5c0.2-2.1-0.9-3.9-1.1-6c-0.1-0.5-0.2-1-0.5-1.5c-0.6-0.9-1.5-0.9-2.1,0
		c-0.6,1-0.7,2-0.4,3.1c0.3,1.2,0.5,2.4,0.1,3.6c-0.1,0.5-0.4,0.9-0.6,1.3c-0.2,0.5-0.4,0.9-0.4,1.4c0,0.3-0.2,0.5-0.3,0.8
		c-0.7,0.9-1.6,1.6-2.4,2.4c-0.2,0.2-0.5,0.3-0.8,0.3c-0.8-0.1-1.5,0.1-2.3,0.2c-0.8,0.1-1.7,0-2.6,0.2c-0.6,0.1-1.2,0.1-1.8-0.1
		c-0.6-0.2-1.2-0.3-1.8-0.3c-0.6,0-1.1-0.2-1.5-0.7c-0.9-0.9-1.6-0.9-2.4,0c-0.4,0.4-0.8,0.7-1.3,0.9c-0.4,0.1-0.6,0.3-0.7,0.7
		c-0.2,0.1-0.4,0.2-0.5,0.5c-0.4,0.4-0.8,0.1-1.3,0.2c-0.6,0-1.1,0.1-1.6,0.4c-1.1,0.8-2.5,0.7-3.7,0.4c-1.4-0.4-2.7-0.9-4.2-0.9
		c-0.3,0-0.6-0.2-0.7-0.5c-1.3-1-1.6-1-3.4,0.5c-1.6,0-3.2,0.2-4.7,0.5c-0.5,0.1-1,0.1-1.5,0c-0.9-0.4-1.9-0.5-2.9-0.4
		c-0.4,0-0.8-0.1-0.9-0.4c-0.4-0.8-1.4-1-2-1.6c-0.3-0.3-0.6-0.2-0.9,0.1c-0.6,0.7-1.6,0.8-2.1,1.6c-0.3,0.4-0.7,0.4-1.1,0.4
		c-0.9-0.1-1.7,0.2-2.6,0.6c-1.3,0.6-2.6,0.6-3.9,0c-0.8-0.4-1.6-0.7-2.5-0.6c-0.6,0.1-1.1-0.2-1.5-0.6c-1-1-2.5-1-3.4,0.1
		c-0.4,0.4-0.8,0.6-1.3,0.5c-1-0.1-1.9,0.3-2.8,0.7c-1,0.5-2.3,0.5-3.3,0c-1-0.4-2-0.8-3.2-0.8c-0.9,0-1.8-0.4-2.8-0.1
		c-0.6,0.2-1.1,0.3-1.4,0.8c-0.5,0.6-1.1,0.8-1.8,0.8c-0.8-0.1-1.6,0.1-2.2,0.5c-0.3,0.2-0.5,0.2-0.8,0.2c-1.3,0-2.7,0.3-3.9-0.5
		c-0.5-0.3-1.1-0.3-1.7-0.2c-0.7,0-1.1-0.2-1.5-0.8c-0.7-1-1.4-1-2.1,0c-0.3,0.4-0.6,0.5-1,0.6c-0.4,0.1-0.8,0.2-1.2,0.2
		c-1.2-0.1-2.4,0.3-3.7,0.3c-0.3,0-0.5,0.2-0.8,0.3c-0.4,0.3-0.9,0.3-1.3,0c-0.7-0.6-1.5-0.6-2.3-0.6c-0.6,0-1-0.2-1.3-0.7
		c-0.9-1.2-3.1-1.5-4.2-0.3c-0.8,0.8-1.6,1.1-2.6,1c-0.6-0.1-1.1,0.1-1.7,0.4c-1.6,0.6-3.2,0.7-4.8-0.1c-0.5-0.3-1.1-0.2-1.7-0.3
		c-0.8,0-1.5-0.1-1.9-0.9c-0.1-0.2-0.3-0.4-0.6-0.5c-1.7-0.4-2.6-1.8-3.5-3.1c-0.2-0.3-0.4-0.7-0.7-1c-0.2-0.2-0.5-0.4-0.5-0.7
		c0-1-0.7-1.5-1.2-2.2c-0.2-1.4,0-2.8-0.9-4c-0.2-0.3-0.1-0.7-0.1-1.1c0-0.7,0-1.5,0-2.2c0-0.5,0.1-0.9,0.3-1.3
		c0.5-0.9,0.5-1.9,0.4-2.9c0-0.6-0.4-0.9-1-1.1c-1.1-0.3-2.2-0.3-3.3-0.1c-1,0.1-2,0.2-2.9,0.2c-2.1,0-4.2,0-6.3,0.1
		c-1.8,0.1-3.6,0.1-5.3,0.5c-1.4,0.4-2.8,0.5-4.2,0.7c-2,0.4-4.2,0.2-6.2,0.1c-0.3,0-0.6-0.1-0.7-0.4c-0.5-0.6-1.1-0.9-1.8-1
		c-0.5-0.1-0.9-0.3-1.1-0.7c-0.2-0.3-0.4-0.5-0.7-0.7c-1.1-0.9-1.2-2.4-2.3-3.4c-0.1-0.1,0-0.5,0-0.7c0-1.1,0-2.2-0.7-3.2
		c-0.1-0.1-0.1-0.3-0.1-0.5c-0.2-1.3-0.6-1.9-1.9-1.9c-2.1-0.1-3.7-1-5.3-2.2c-0.6-0.5-1.4-0.4-2.1-0.5c-0.8-0.1-1.6-0.2-2.2-0.8
		c-0.3-0.3-0.8-0.4-1.2-0.4c-1.1,0-2.1-0.1-2.9-1c-0.4-0.4-1-0.5-1.5-0.5c-1,0-1.9-0.1-2.6-0.9c-0.3-0.3-0.7-0.3-1-0.3
		c-1.2-0.2-2.4-0.2-3.2-1.2c-0.3-0.4-0.9-0.3-1.3-0.2c-0.7,0.1-1.4-0.1-1.9-0.6c-0.7-0.6-1.5-0.8-2.4-0.8c-0.8,0-1.4-0.3-1.9-0.7
		c-0.5-0.4-0.9-0.6-1.6-0.6c-0.9,0-1.8-0.2-2.4-0.9c-0.5-0.5-1.2-0.6-1.8-0.5c-0.7,0-1.4-0.1-1.9-0.7c-0.7-0.8-1.7-0.6-2.6-0.8
		c-0.5-0.1-1-0.2-1.4-0.6c-0.4-0.5-0.9-0.6-1.5-0.7c-0.9,0-1.9-0.2-2.6-1c-0.3-0.4-0.9-0.5-1.4-0.5c-0.7,0-1.2-0.3-1.6-0.8
		c-0.3-0.4-0.8-0.5-1.3-0.5c-0.1-0.1-0.2-0.3-0.3-0.4c0-0.3,0-0.6-0.2-0.8c-0.6-0.5-0.8-1.2-1.3-1.7c0,0,0,0,0,0
		c-0.3-0.4-0.7-0.8-1-1.2c-0.1,0-0.1-0.1-0.2-0.1c0-0.2,0-0.5-0.1-0.7c-0.1-0.8-0.8-1.4-1-2.2l0,0c-0.1-1.8-0.3-3.6-0.3-5.3
		c0-1.2,0.1-2.4,0.2-3.6c0-0.4,0.2-0.7,0.5-0.9c0.4-0.3,0.6-0.8,0.7-1.3c0.1-0.7,0.4-1.3,0.8-1.8c0.6-0.6,1.2-1.2,1.7-1.9
		c0.6-0.7,1.5-1.1,2.1-1.8c1.2-0.1,1.9-1,2.8-1.6c0.3-0.2,0.7-0.4,0.9-0.7c0.1-0.2,0.3-0.4,0.5-0.5c1.6-0.4,2.7-1.6,3.9-2.6
		c0.1-0.1,0.2-0.3,0.4-0.3c1.6-0.3,2.6-1.7,3.9-2.5c1-0.6,1.9-1.2,2.9-1.7c0.3-0.2,0.6-0.3,0.7-0.6c0.3-0.5,0.7-0.8,1.3-0.8
		c0.4,0,0.6-0.2,0.8-0.5c0.4-0.4,1-0.6,1.3-1c1-1.2,2.6-1.2,3.6-2.4c0.4-0.5,1.2-0.6,1.5-1.3c0.1-0.2,0.3-0.2,0.5-0.2
		c0.7,0,1-0.5,1.5-0.9c1.5-1.2,2.8-2.6,4.5-3.4c0.1-0.1,0.3-0.1,0.3-0.2c0.9-1.1,2.4-1.5,3.4-2.4c1.6-0.4,3-1.3,4.6-1.8
		c2.5-0.7,3-2.2,2.5-4.7c-0.4-1.6-0.6-3.4-0.8-5c-0.2-1.3-0.1-2.7-0.3-4l0,0c-0.2-0.9-0.2-1.8,0-2.7l0,0c0.2-0.6,0.2-1.3,0.6-1.9
		c0.4-0.5-0.1-1.1-0.7-1.1c-0.8,0-1.7,0.1-2.3,0.8l0,0c-0.5,0.3-1,0-1.5,0.2l-0.1,0l-0.1,0c-1.3,0.2-2.6,0.2-3.9,0l-0.1,0l-0.1,0
		c-1-0.2-2-0.3-2.8-0.9c-0.5-0.3-1.1-0.2-1.5,0.3c-0.5,0.7-1.1,1.3-1.8,1.8l0,0c-2.1,0-3.8,1.3-5.8,1.5c-0.4,0-0.7,0.2-1.1,0l0,0
		c-1.5-0.3-2.7-1.4-4.2-1.5c-0.5,0-0.8-0.4-1.2-0.7c-0.4-0.3-0.7-0.3-1.1,0.1c-0.4,0.5-0.9,0.9-1.3,1.3c-0.4,0.4-0.8,0.8-1.4,0.8
		c-0.3,0-0.5,0.1-0.6,0.3c-0.6,0.8-1.6,0.9-2.4,0.9c-1.7,0.1-3.3,0-5,0c-0.9,0-1.8-0.1-2.4-0.9c-0.2-0.2-0.4-0.3-0.6-0.3
		c-0.9,0.1-1.4-0.4-1.9-1c-0.4-0.5-1.1-0.8-1.5-1.3c-0.7-0.8-1.5-1.4-2-2.4c-0.2-0.4-0.6-0.8-1-1c-0.3-0.9-0.3-1.8-1.1-2.5
		c-0.4-0.3-0.4-1-0.4-1.5c0-1.2,0-2.4-0.6-3.6c-0.3-0.6-0.2-1.4,0.1-2c0.4-1,0.6-1.9,0.6-3c0-0.9,0.1-1.8,0.9-2.4
		c0.1-0.1,0.2-0.2,0.2-0.3c0.2-1.6,1.7-2.5,2.4-3.7c0.1-0.2,0.3-0.4,0.5-0.5c0.7-0.2,1.3-0.6,1.8-1.2c0.3-0.3,0.6-0.4,1-0.3
		c0.8,0.1,1.5-0.2,2.2-0.6c0.7-0.5,1.6-0.7,2.5-0.7c0.8,0,1.6,0,2.3,0c1.1,0,2.1,0.2,3,0.9c0.8,0.6,2.7,0.4,3.3-0.3
		c0.4-0.5,0.9-0.7,1.5-0.6c0.7,0.1,1.4-0.1,2-0.3c1.1-0.4,2.2-0.8,3.3-1.1c1.3-0.6,2.7-0.4,3.9,0.2c1.6,0.8,2.8,0.4,4-0.7
		c0.7-0.7,1.5-1.3,2.6-1.2c0.2,0,0.4-0.1,0.6-0.2c2.1-1.4,4.4-1,6.6-1c0.7,0,1.4,0.3,1.9,0.7c1.3,0.8,2.6,1,3.8-0.2
		c0.1-0.1,0.3-0.2,0.4-0.3c3.1-1.1,6.1-2.4,9.4-1.5c0.6,0.2,1,0.5,1.5,0.8c1.6,0.7,1.9,0.7,3.1-0.5c0-0.1,0-0.1,0.1-0.2
		c0.1-0.2,0.3-0.3,0.5-0.3c1.7,0.2,3.2-0.4,4.7-0.9c1.6-0.6,3.2-0.2,4.9-0.3c0.5,0,0.9,0.4,1.3,0.7c0.7,0.5,1.2,0.5,2-0.1
		c1.2-0.9,2.3-2,4-2.2c1.2-0.1,2.2-1.1,3.4-1.2c2.1-0.3,4.1-0.2,6,0.8c1.4,0.7,2.7,1,3.8-0.4c0.1-0.1,0.2-0.3,0.4-0.3
		c2.7-0.7,5.4-1.9,8.3-1.3c0.9,0.2,1.7,0.3,2.5,0.9c0.9,0.7,2.3,0.5,3.1-0.2c0.2-0.2,0.5-0.5,0.8-0.6c2.9-0.9,5.8-2.2,8.9-1.4
		c1.7,0.5,3.4,1.1,5,2c1.1,0.7,2.3,1.2,3,2.3l0,0c1.3,1.1,1.6,3,2.7,4.2c0.3,0.4,0.2,0.9,0.2,1.4c0,0.8,0.2,1.6,0.5,2.4
		c0.6,1.7,0.6,3.5,0,5.3c-0.2,0.7-0.5,1.5-0.5,2.3c0.1,0.9-0.5,1.5-0.7,2.3c-0.4,1.2-0.1,1.6,1.2,1.5c3.6-0.4,7.2-0.4,10.8-0.4
		c0.8,0,1.6,0.1,2.3,0.7c0.2,0.2,0.5,0.3,0.8,0.4c2,0.3,3.1,1.8,4.4,3.2c0.2,0.2,0.5,0.5,0.4,0.9c-0.1,1.3,0.5,2.4,1,3.5
		c0.2,0.4,0.3,0.8,0.3,1.3c-0.1,3.6,0.4,7.2,0.3,10.8c-0.1,1.7,0.5,2,2.2,1.8c2.3-0.3,4.5-0.9,6.6-1.5c1.8-0.6,3.8-0.6,5.7-0.7
		c2.3-0.1,4.5-0.8,6.8-0.9c0.9,0,1.7-0.2,2.6-0.1c3.6,0.2,7.3-0.4,10.9-0.2c3.6,0.2,7.3-0.3,10.9,0c1.3,0.1,2.7,0.2,4,0
		c0.8-0.1,1.3-0.5,1.4-1.3c0.1-0.7,0.1-1.4-0.1-2.1c-0.6-2.3-0.8-4.6-0.7-6.9c0-0.1,0.1-0.2,0.1-0.3c0.5-1.2,1.2-2.2,1.3-3.5
		c0-0.4,0.6-0.9,0.9-1.2c0.7-0.7,1.4-1.3,2.2-2c0.2-0.2,0.5-0.2,0.7-0.2c1,0.1,1.9-0.2,2.8-0.7c0.7-0.5,1.5-0.6,2.3-0.5
		c0.3,0,0.7,0,1,0c0.5,0,0.9-0.3,1-0.8c0.1-0.5,0.1-1-0.4-1.2c-0.7-0.4-1.1-0.9-1.1-1.7c0-0.1-0.1-0.3-0.3-0.4
		c-0.8-0.6-1-1.4-1.1-2.2c-0.1-0.5-0.3-1-0.6-1.5c-0.4-0.6-0.6-1.3-0.6-2c-0.1-2.1-0.3-4.2,0.2-6.2c0.3-1.3,0.8-2.6,1.4-3.7
		c0.6-1.1,1-2.4,2.1-3.2c0.7-0.6,1.7-1,2.2-1.9c1.1-0.1,2-0.7,2.9-1.4c0.1-0.1,0.3-0.1,0.5,0c1.3,0,2.5-0.1,3.8-0.4
		c0.2,0,0.3-0.1,0.5,0c1.2,0.4,2.4,0.5,3.6,0.4c0.6,0,0.9,0.3,1.3,0.7c0.9,0.8,2.7,0.9,3.5,0c0.5-0.5,1-0.7,1.6-0.7
		c1.5,0,3.1,0,4.6-0.2c1.5-0.3,3.1,0.2,4.6,0.2c0.4,0,0.6,0.3,0.9,0.6c1.2,1.2,2.9,1.2,4.2,0.1c0.4-0.3,0.8-0.6,1.3-0.7
		c2.6-0.3,5.3-0.3,7.9,0c0.5,0.1,0.9,0.2,1.3,0.5c1.5,1.2,3.3,1.2,4.8,0c0.4-0.3,0.7-0.5,1.2-0.6c2.6-0.2,5.1-0.3,7.7,0
		c0.7,0.1,1.3,0.2,1.9,0.8c0.7,0.7,2.6,0.6,3.3-0.1c0.6-0.6,1.2-0.8,2-0.8c1.5,0,3,0,4.5-0.4c0.7-0.2,1.5,0.1,2.2,0.2
		c0.4,0.1,0.9,0.2,1.3,0.1c0.9-0.1,1.6,0.1,2.3,0.9c0.5,0.7,2.3,0.6,2.9,0c0.6-0.7,1.3-0.8,2.2-0.8c1.4,0,2.8,0.1,4.1-0.4
		c0.7-0.2,1.4,0.2,2.2,0.2c0.7,0.1,1.4,0.2,2.1,0.2c0.6,0,1.1,0.1,1.5,0.7c0.2,0.5,0.6,0.6,1.1,0.6c1,0,2.1,0.2,2.8-0.8
		c0.2-0.3,0.7-0.4,1-0.4c2.9-0.3,5.8-0.4,8.8,0.1c0.3,0.1,0.6,0.1,0.8,0.3c1,1.2,2.3,0.6,3.4,0.7c0.3,0,0.5-0.2,0.6-0.4
		c0.6-0.7,1.3-0.9,2.2-0.8c0.7,0,1.3,0,1.9-0.2c0.6-0.2,1.3-0.2,1.9,0c0.9,0.2,1.8,0.3,2.7,0.3c0.7,0,1.3,0.1,1.8,0.6
		c0.6,0.5,1.3,0.7,2.1,0.7c0.3,0.1,0.5,0.4,0.8,0.6c0.3,0.2,0.6,0.5,1,0.3c0.4-0.2,0.5-0.6,0.5-0.9c0-1.2,0.1-2.4,0.2-3.6
		c0-1.5,0.3-3,0.7-4.5c0.4-1.5,0.5-3.1,0.6-4.6c0-0.8,0-1.7,0.4-2.4c0.6-1.2,0.8-2.4,0.9-3.7c0-1,0.2-2,0.9-2.7
		c0.1-0.1,0.2-0.2,0.1-0.3c0-1.9,1.4-3.4,1.8-5.1c0.3-1,1.1-1.8,1.6-2.7c1.6-2.8,3.4-5.4,6.1-7.2c1.3-0.9,2.4-2.5,4.3-2.2
		c0.2,0,0.5-0.1,0.7-0.2c2.7-1.5,5.6-1.1,8.5-0.6c1.2,0.2,2.4,1.1,3.7,1c0.1,0,0.2,0,0.2,0.1c1.6,1.3,3.5,2.1,5.1,3.3
		c3,2.3,12.1,21.6,17.3,28.3c1,1.2,8.6,2.4,8.7,2.5c0.6,0.9,1.8,0.4,2.7,0.3c1.2-0.1,2.2-0.9,3.5-1.1c2-0.3,4-0.2,6-0.3
		c0.5,0,1,0,1.5,0c2.2-0.1,2.5-0.6,3.1-2.7c0.6-2,1.1-4,2.2-5.7c0.5-0.8,0.5-1.7,0.6-2.6c0.7-1,0.9-2.2,1.4-3.1
		c0.9-1.7,0.9-3.8,2.3-5.3c0.2-0.2,0.3-0.4,0.3-0.7c0-1,0.7-1.8,1-2.7c0.5-1.4,1-2.8,1.7-4.1c0.3-1.5,1.5-2.5,2-3.8
		c0.5-1.5,1.8-2.6,2.4-4.1c0.4-0.8,1.1-1.5,1.6-2.3c1.5-2.5,3.3-4.6,5.5-6.5c0.9-0.8,1.8-1.7,3.2-1.9c0.9-0.1,1.6-0.9,2.4-1.4
		c2.8-0.1,5.5-0.1,8.3,0c0.1,0.2-0.3,0.6,0.2,0.7c0.9,0.4,1.8,0.9,2.9,0.9c0.5,0,1,0.1,1.2,0.6c0.1,0.1,0.2,0.3,0.3,0.4
		c0.9,0.4,1.6,1.2,2.4,1.5c1.1,0.4,1.7,1.3,2.4,1.9c1.5,1.3,2.9,2.7,4,4.3c0.7,1.1,1.9,1.8,2.2,3.2c1.1,0.9,1.1,2.6,2.3,3.4
		c0.1,0.1,0.2,0.2,0.2,0.3c0,1,0.8,1.5,1.1,2.2c0.4,0.8,0.6,1.8,1.3,2.4c0.2,1.6,1.8,2.7,1.8,4.5c0,0.1,0,0.2,0.1,0.2
		c0.9,0.8,1.2,1.8,1.2,3c0,0.2,0.2,0.5,0.3,0.6c0.8,0.7,0.9,1.6,1,2.5c0.1,0.5,0.2,0.9,0.5,1.3c0.5,0.6,0.7,1.2,0.8,2
		c0,0.8,0.2,1.5,0.7,2.2c0.6,0.8,0.7,1.7,0.8,2.7c0,0.8,0.2,1.5,0.7,2.2c0.7,0.9,0.5,2.1,0.7,3.2c0.1,0.6,0.2,1.1,0.5,1.6
		c0.5,0.8,0.8,1.7,0.8,2.7c0,1.3,0.2,2.5,0.8,3.7c0.6,1.1,0.6,2.4,0.6,3.6c0,1,0.2,2,0.6,2.9c0.5,1.1,0.7,2.3,0.7,3.6
		c0.1,1.4,0.2,2.8,0.9,4c0.4,0.7,0.5,1.6,0.5,2.5c0,1.1,0.2,2.2,0.6,3.2c0.4,1,0.6,2.1,0.6,3.2c0.1,4.3,0.3,8.5,0.2,12.8
		c0,2.5,0,5.1-0.2,7.6c0,0.6-0.1,1.2-0.4,1.6c-0.6,0.9-0.8,1.8-0.8,2.8c0,0.4-0.2,0.8-0.2,1.2c-0.6,0.4-1,0.8-1,1.6
		c0,0.1,0,0.2-0.1,0.2c-1,0.9-1.3,2.2-2.3,3.1c-0.8,0.6-1.3,1.5-2,2.2c-0.6,0.6-0.2,2.3,0.7,2.8c0.8,0.5,1.2,1.4,1.9,2
		c0.4,0.4,0.2,0.9,0.3,1.4c-0.1,0.9,0.1,1.7,0.6,2.4c0.6,0.9,0.6,1.8,0,2.7c-0.4,0.7-0.6,1.4-0.7,2.2c-0.1,1.3-0.1,2.6,0,3.9
		c0.2,1.5,0,3.1-0.2,4.6c0,0.1,0,0.3-0.1,0.4c-1.1,0.9-1.3,2.5-2.5,3.3c-0.9,0.6-1.6,1.4-2.3,2.2c-0.5,0.6-0.5,1.4-0.5,2.1
		c0,0.6-0.2,1.1-0.7,1.5c-0.4,0.3-0.5,0.7-0.8,1.1c-0.5,0.6-0.9,1.4-1.9,1.5c-0.1,0-0.3,0.1-0.3,0.1c-1,1.6-2.6,1-4,1.3
		c-1,0.2-1.7,0.6-2,1.7c-0.1,0.2-0.2,0.5-0.2,0.7c-0.1,1.4-0.3,2.8-0.9,4.2c-0.3,0.6-0.2,1.2,0.2,1.8c0.7,0.9,0.9,2,0.9,3.1
		c0,1,0,1.9,0.8,2.6c0.4,0.4,0.4,1,0.4,1.5c0,1.1,0.3,2.1,0.3,3.2c0,0.8,0.2,1.5,0.6,2.1c0.2,0.2,0.3,0.5,0.4,0.8
		c0.7,1.5,2.4,2.4,4,2c1.2-0.3,2.4-0.6,3.6-0.9c0.3-0.1,0.6-0.2,0.8-0.5c0.3-0.3,0.6-0.5,1-0.6c0.5-0.1,1-0.3,1.3-0.9
		c0.2-0.4,0.7-0.6,1.2-0.5c1.2,0.1,2.3-0.3,3.4-0.9c0.3-0.2,0.7-0.3,1-0.3c3.3,0,6.5-0.4,9.8-0.3c1.6,0.1,3.1,0.3,4.5,1.1
		c0.9,0.5,1.8,0.8,2.4,1.6c0.5,0.6,0.8,1.4,1.4,1.9c0.2,0.2,0.2,0.5,0.2,0.8c0,2.7,0,5.5,0,8.2c0,0.6-0.1,1.2-0.5,1.7
		c-0.6,0.7-0.8,1.5-0.7,2.4c0,0.5,0,1,0,1.5c0,1,0.2,1.2,1.2,1.4c0.2,0,0.4,0.1,0.6,0.1c0.9,0.1,1.8,0.2,2.5,1
		c0.3,0.4,1,0.4,1.5,0.4c1,0,1.9,0.1,2.7,0.9c0.4,0.4,1,0.5,1.6,0.5c0.6,0,1.1,0,1.5,0.5c0.7,0.8,1.5,0.8,2.4,0.8c0.2,0,0.3,0,0.5,0
		c0.1,0.1,0.2,0.1,0.3,0.2c1,0.9,2.2,1.3,3.6,1.3c0.4,0,0.7,0.3,0.9,0.5c0.4,0.5,1,0.7,1.6,0.7c0.8,0,1.6,0.3,2.2,0.9
		c0.4,0.5,1.1,0.6,1.7,0.6c0.6,0,1.2,0.1,1.7,0.6c0.5,0.5,1.1,0.7,1.8,0.7c0.9,0,1.7,0.2,2.3,1c0.3,0.5,0.8,0.5,1.3,0.5
		c0.8,0,1.6,0.2,2.2,0.9c0.5,0.6,1.3,0.4,2,0.6c0.5,0.1,1,0.2,1.3,0.6c0.6,0.6,1.3,0.8,2.1,0.8c0.7,0,1.4,0.1,1.8,0.7
		c0.4,0.5,0.9,0.7,1.5,0.7c0.6,0,0.9,0.2,1.2,0.7c0.1,0.2,0.3,0.4,0.5,0.5c1.1,0.4,1.7,1.3,2.3,2.1c0.3,0.4,0.7,0.6,0.9,1
		c0.6,1.1,0.8,2.5,1.7,3.4c0.2,0.2,0.1,0.6,0.1,0.8c0,2.5,0,4.9,0,7.4c0,1,0,2.1-1,2.9c-0.3,0.3-0.3,0.7-0.3,1
		c-0.1,0.6-0.3,1.2-0.9,1.5c-0.3,0.2-0.4,0.6-0.5,0.9c-0.8,0.7-1.7,1.4-2.6,2c-1,0.7-2.4,1.1-3.1,2.2c-0.1,0.2-0.3,0.3-0.5,0.3
		c-1.5,0.2-2.3,1.4-3.4,2.2c-0.1,0.1-0.2,0.2-0.3,0.2c-1.5,0.2-2.4,1.5-3.7,1.9c-0.8,0.2-1.2,0.8-1.8,1.2c-1.7,1.4-3.8,2.1-5.4,3.6
		c-0.1,0.1-0.1,0.2-0.2,0.2c-1.6,0-2.4,1.5-3.8,2c-1,0.3-1.9,1.1-2.7,1.9c-0.4,0.4-0.9,0.7-1.5,0.8c-1.1,0.3-1.8,1.3-2.7,2
		c-0.5,0.3-0.8,0.8-1.5,0.7c-0.2,0-0.4,0-0.5,0.1c-0.8,1.1-2.3,1.2-3.2,2.1c-0.3,0.3-0.6,0.5-1.1,0.5c-1,0-1.8,0.3-2.7,0.8
		c-0.8,0.4-1.6,0.4-2.4,0c-1-0.5-2-0.7-3.2-0.8c-1.4-0.1-2.2-1.1-3-2c-1-1.1-2-1.4-3.1-0.4c-1,0.9-2.1,1.6-3.3,2.2
		c-1.6,0.8-2.5,1.9-2.3,3.8c0,0.2,0,0.3,0,0.5c-0.2,1-0.4,2-0.9,3c-0.5,1-0.5,2-0.5,3.1c-0.5,0.8-1.2,1.5-1.8,2.2
		c-0.4,0.3-0.8,0.6-1.1,1c-0.1,0.1-0.3,0.2-0.4,0.3c-1.4,0.1-2.3,1.4-3.7,1.5c-0.1,0-0.3,0-0.4,0c-2.2,0-4.3,0.3-6.5,0.9
		c-2.6,0.7-5.3,0.9-7.9-0.4c-0.7-0.3-1.4-0.5-2.1-0.5c-0.1,0-0.3,0-0.4,0c-1.4-0.2-1.8,0-1.9,1.4c-0.1,1-0.2,1.8-0.8,2.6
		c-0.3,0.4-0.4,1-0.5,1.5c-0.1,1-0.4,1.8-1,2.7c-0.6,0.9-1,2-1.5,3c-2.5,5-6.1,8.9-10.4,12.3c-1.4,1.2-2.9,2.2-4.6,2.9
		c-0.4,0.3-0.7,0.7-1.2,1c-0.4,0.2-0.9,0-1.3,0.2c-0.1,0.1-0.2,0.1-0.3,0.2c-0.2,0.2-0.4,0.5-0.6,0.6c-0.6,0.6-1.5,0.4-2.2,0.6
		c-0.3,0.1-0.7-0.1-0.9,0.1c-1.4,1.7-3.6,0.9-5.3,1.8c-1.7,0.8-3.7,0.6-5.5,0.9c-2.5,0.3-4.9,0.4-7.3,0.2c-2.5-0.1-5-0.2-7.4-0.6
		c-1.1-0.2-2-1-3.1-1c-1.6,0-2.8-0.9-4.2-1.4c-1.1-0.3-1.7-1.1-2.1-2.1c0-0.4-0.1-0.8-0.3-1.2c-1.3-2.2-1.1-4.6-0.8-7.1
		c0.1-0.8,0.4-1.5,0.8-2.2c0.7-1.2,0-2.3-1.4-2.1c-3.3,0.4-6.5,0-9.7-0.5c-1.6-0.2-3.3-0.1-4.9-0.3c-8.2-0.9-16.3-0.5-24.5-0.4
		c-3,0-6.2,0.3-9.1,1.5c-0.3,0.1-0.6,0.2-0.8,0.2c-3,0.5-4.9,2.7-7,4.6c-0.1,0.1-0.2,0.3-0.2,0.4c-0.5,1.7-1.2,3.4-1.4,5.2
		c-0.2,1.7-0.6,3.3-1.6,4.8c-1.1,1.6-2.3,3.2-4,4.3c-1.8,1.2-3.9,2-6.2,1.9c-2.1,0-4.2-0.2-6.4-0.4c-1.6-0.2-3.3-0.1-4.6,1
		c-0.3,0.2-0.6,0.4-0.9,0.4c-1.9,0-3.7,0.7-5.6,0.3c-0.6-0.2-1.3-0.1-2-0.2c-0.6,0-1.2-0.1-1.7-0.6c-0.7-0.7-1.5-0.7-2.3,0
		c-0.4,0.4-0.8,0.6-1.4,0.6c-0.7,0-1.3,0.3-1.9,0.6c-2.4,1.2-4.8,1.3-7.3,0c-0.9-0.5-1.9-0.6-2.7-1.1c-0.5-0.3-1,0-1.3,0.5
		c-0.6,1-1.6,1.5-2.7,1.6c-0.3,0-0.6,0.2-0.9,0.3c-2.7,1.4-5.3,1.3-7.9-0.1c-1.4-0.8-2.9-0.6-4.1,0.6c-0.3,0.3-0.6,0.4-1,0.5
		c-0.3,0.1-0.6,0.1-0.8,0.2c-3.1,2.1-6.5,1.2-9.8,0.9c-0.6,0-1-0.4-1.5-0.8c-0.7-0.6-1.3-0.5-1.7,0.3c-0.3,0.5-0.8,0.8-1.4,0.9
		c-0.2,0-0.5,0-0.6,0.1c-1.6,1.8-3.8,1.2-5.7,1.5c-1.5,0.2-3.2-0.4-4.8-0.6c-0.2,0-0.3-0.1-0.4-0.2c-1.4-1-1.4-1-2.8,0.2
		c-0.5,0.2-1,0.3-1.5,0.6c-2.5,1.4-5.1,1-7.8,0.8c-0.9-0.1-1.4-0.9-2.1-1.4c-0.8-0.6-1.5-0.7-2.2,0.1c-1.1,1.3-2.6,1.9-4,2.4
		c-1.9,0.7-4,1-6.1,0.6c-0.4-0.1-0.7-0.2-1.1-0.1c-2.1,0.1-3.7-1.1-5.2-2.3c-1.1-0.8-2.2-1.7-3-2.9c-0.4-0.5-0.6-1.1-0.9-1.6
		c-0.8-0.7-1.2-1.7-1.2-2.7c-0.1-1.3-1.1-2.3-1.2-3.7c-0.1-2.6-0.5-5.1,0.8-7.5c0.3-0.5,0.1-1.1,0.5-1.5c1.1-1.2,1.9-2.7,3.2-3.9
		c0.5-0.4,0.9-0.9,1.6-1.1c0.2,0,0.4-0.1,0.5-0.3c0.4-0.8,1.1-1,1.9-0.9c0.7,0,1.4-0.2,2-0.5c2.1-1.1,4.1-0.9,6.2,0.1
		c1.1,0.6,2.3,0.7,3.5,0.5c0.6-0.1,1.2-0.3,1.6-0.8c0.4-0.5,0.9-0.7,1.6-0.7c0.6,0,1.2,0.1,1.7-0.2c0.1-0.1,0.3-0.2,0.4-0.2
		c1.5-0.3,1.5-0.3,0.8-1.8l0,0c-0.3-0.7,0.1-1.5-0.2-2.2l0,0c-0.2-0.6-0.4-1.2-0.7-1.7l0,0c-0.2-0.2,0-0.5-0.3-0.7l0,0
		c-0.3-0.5,0.1-1-0.2-1.5c0-0.3,0-0.6,0-1c0-1.2,0.2-2.4-0.4-3.5c-0.4-0.8-0.6-1.6-0.8-2.4"/>
	<path fill="#FFFFFF" d="M243.2,204c-0.1-0.5-0.2-1-0.5-1.5c-0.6-0.9-1.5-0.9-2.1,0c-0.6,0.9-0.7,2-0.4,3.1c0.3,1.2,0.5,2.4,0.1,3.6
		c-0.1,0.5-0.4,0.9-0.6,1.3c-0.2,0.5-0.4,0.9-0.4,1.4c0,0.3-0.2,0.5-0.3,0.8c-0.7,0.9-1.6,1.6-2.4,2.4c-0.2,0.2-0.5,0.3-0.8,0.3
		c-0.8-0.1-1.5,0.1-2.3,0.2c-0.8,0.1-1.7,0-2.5,0.2c-0.6,0.1-1.2,0.1-1.8-0.1c-0.6-0.2-1.2-0.3-1.8-0.3c-0.6,0-1.1-0.2-1.5-0.6
		c-0.9-0.9-1.5-0.9-2.4,0c-0.4,0.4-0.8,0.7-1.3,0.9c-0.4,0.1-0.6,0.3-0.7,0.7c-0.2,0.1-0.4,0.2-0.5,0.5c-0.4,0.4-0.8,0.1-1.3,0.2
		c-0.6,0-1.1,0.1-1.6,0.4c-1.1,0.8-2.5,0.7-3.7,0.4c-1.4-0.4-2.7-0.9-4.2-0.9c-0.3,0-0.6-0.2-0.7-0.5c-1.3-1-1.6-1-3.4,0.5
		c-1.6,0-3.2,0.2-4.7,0.5c-0.5,0.1-1,0.1-1.5,0c-0.9-0.4-1.9-0.5-2.9-0.4c-0.4,0-0.8-0.1-0.9-0.4c-0.4-0.8-1.4-1-2-1.6
		c-0.3-0.3-0.6-0.2-0.9,0.1c-0.6,0.7-1.6,0.8-2.1,1.6c-0.3,0.4-0.7,0.4-1.1,0.4c-0.9-0.1-1.7,0.2-2.6,0.6c-1.3,0.6-2.6,0.6-3.9,0
		c-0.8-0.4-1.6-0.7-2.5-0.6c-0.6,0.1-1.1-0.2-1.5-0.6c-1-1-2.5-1-3.4,0.1c-0.4,0.4-0.8,0.5-1.3,0.5c-1-0.1-1.9,0.3-2.8,0.7
		c-1,0.5-2.3,0.5-3.3,0c-1-0.4-2-0.8-3.2-0.8c-0.9,0-1.8-0.4-2.8-0.1c-0.6,0.2-1.1,0.3-1.4,0.8c-0.5,0.6-1.1,0.8-1.8,0.8
		c-0.8-0.1-1.5,0.1-2.2,0.5c-0.2,0.2-0.5,0.2-0.8,0.2c-1.3,0-2.7,0.3-3.9-0.5c-0.5-0.3-1.1-0.3-1.7-0.2c-0.7,0-1.1-0.2-1.5-0.8
		c-0.7-1-1.4-1-2.1,0c-0.3,0.4-0.6,0.5-1,0.6c-0.4,0.1-0.8,0.2-1.2,0.2c-1.2-0.1-2.4,0.3-3.6,0.3c-0.3,0-0.5,0.2-0.8,0.3
		c-0.4,0.3-0.9,0.3-1.3,0c-0.7-0.6-1.5-0.6-2.3-0.6c-0.6,0-1-0.2-1.3-0.7c-0.9-1.2-3.1-1.5-4.2-0.3c-0.8,0.8-1.5,1.1-2.6,1
		c-0.6-0.1-1.1,0.1-1.7,0.3c-1.6,0.6-3.2,0.7-4.8-0.1c-0.5-0.3-1.1-0.2-1.7-0.3c-0.8,0-1.5-0.1-1.9-0.9c-0.1-0.2-0.3-0.4-0.6-0.5
		c-1.7-0.4-2.6-1.8-3.5-3.1c-0.2-0.3-0.4-0.7-0.7-1c-0.2-0.2-0.5-0.4-0.5-0.7c0-0.9-0.7-1.5-1.2-2.2c-0.2-1.3,0-2.8-0.9-4
		c-0.2-0.3-0.1-0.7-0.1-1.1c0-0.7,0-1.5,0-2.2c0-0.5,0.1-0.9,0.3-1.3c0.5-0.9,0.5-1.9,0.4-2.9c0-0.6-0.4-0.9-1-1.1
		c-1.1-0.3-2.2-0.3-3.3-0.1c-1,0.1-1.9,0.2-2.9,0.2c-2.1,0-4.2,0-6.2,0.1c-1.8,0.1-3.6,0.1-5.3,0.5c-1.4,0.4-2.8,0.5-4.2,0.7
		c-2,0.4-4.1,0.2-6.2,0.1c-0.3,0-0.6-0.1-0.7-0.4c-0.5-0.6-1.1-0.9-1.8-1c-0.5-0.1-0.9-0.3-1.1-0.7c-0.2-0.3-0.4-0.5-0.7-0.7
		c-1.1-0.9-1.2-2.4-2.2-3.4c-0.1-0.1,0-0.5,0-0.7c0-1.1,0-2.2-0.7-3.2c-0.1-0.1-0.1-0.3-0.1-0.5c-0.2-1.3-0.6-1.9-1.9-1.9
		c-2.1-0.1-3.7-1-5.3-2.2c-0.6-0.5-1.4-0.4-2.1-0.5c-0.8-0.1-1.6-0.2-2.2-0.8c-0.3-0.3-0.8-0.4-1.2-0.4c-1.1,0-2.1-0.1-2.9-1
		c-0.4-0.4-0.9-0.5-1.5-0.5c-1,0-1.9-0.1-2.5-0.9c-0.3-0.3-0.7-0.3-1-0.3c-1.2-0.2-2.4-0.2-3.2-1.2c-0.3-0.4-0.8-0.3-1.3-0.2
		c-0.7,0.1-1.4-0.1-1.9-0.6c-0.7-0.6-1.5-0.8-2.3-0.8c-0.8,0-1.4-0.3-1.9-0.7c-0.5-0.4-0.9-0.6-1.5-0.6c-0.9,0-1.8-0.2-2.4-0.9
		c-0.5-0.5-1.2-0.6-1.8-0.5c-0.7,0-1.4-0.1-1.9-0.7c-0.7-0.8-1.7-0.6-2.6-0.8c-0.5-0.1-1-0.2-1.4-0.6c-0.4-0.5-0.9-0.6-1.5-0.7
		c-0.9,0-1.9-0.2-2.5-1c-0.3-0.4-0.9-0.5-1.4-0.5c-0.7,0-1.2-0.3-1.6-0.8c-0.3-0.4-0.8-0.5-1.3-0.5c-0.1-0.1-0.2-0.3-0.3-0.4
		c0-0.3,0-0.6-0.2-0.8c-0.6-0.4-0.8-1.2-1.3-1.7l0,0c-0.3-0.4-0.7-0.8-1-1.2c-0.1,0-0.1-0.1-0.2-0.1c0-0.2,0-0.5-0.1-0.7
		c-0.1-0.8-0.8-1.4-1-2.2l0,0c-0.1-1.8-0.3-3.5-0.3-5.3c0-1.2,0.1-2.4,0.2-3.6c0-0.4,0.2-0.7,0.5-0.9c0.4-0.3,0.6-0.8,0.7-1.3
		c0.1-0.7,0.4-1.3,0.8-1.8c0.6-0.6,1.2-1.2,1.7-1.9c0.6-0.7,1.5-1.1,2.1-1.8c1.2-0.1,1.9-1,2.8-1.6c0.3-0.2,0.7-0.4,0.9-0.7
		c0.1-0.2,0.3-0.4,0.5-0.5c1.6-0.4,2.6-1.6,3.9-2.6c0.1-0.1,0.2-0.3,0.4-0.3c1.6-0.3,2.6-1.7,3.9-2.5c1-0.5,1.9-1.2,2.9-1.7
		c0.3-0.2,0.6-0.3,0.7-0.6c0.3-0.5,0.7-0.8,1.3-0.8c0.4,0,0.6-0.2,0.8-0.5c0.4-0.4,1-0.6,1.3-1c1-1.1,2.6-1.2,3.6-2.4
		c0.4-0.5,1.2-0.6,1.5-1.3c0.1-0.2,0.3-0.2,0.5-0.2c0.7,0,1-0.5,1.5-0.9c1.5-1.1,2.8-2.5,4.5-3.4c0.1-0.1,0.3-0.1,0.3-0.2
		c0.9-1.1,2.4-1.4,3.4-2.4c1.6-0.4,3-1.3,4.6-1.8c2.5-0.7,3-2.2,2.4-4.7c-0.4-1.6-0.6-3.3-0.8-5c-0.2-1.3-0.1-2.7-0.3-4l0,0
		c-0.2-0.9-0.2-1.8,0-2.7l0,0c0.2-0.6,0.2-1.3,0.6-1.9c0.4-0.5-0.1-1.1-0.7-1.1c-0.8,0-1.7,0.1-2.3,0.8l0,0c-0.5,0.3-1,0-1.5,0.2
		l-0.1,0l-0.1,0c-1.3,0.2-2.6,0.2-3.9,0l-0.1,0l-0.1,0c-1-0.2-1.9-0.3-2.8-0.8c-0.5-0.3-1-0.2-1.5,0.3c-0.5,0.7-1.1,1.3-1.8,1.8l0,0
		c-2.1,0-3.8,1.3-5.8,1.5c-0.4,0-0.7,0.2-1,0l0,0c-1.4-0.3-2.6-1.4-4.2-1.5c-0.4,0-0.8-0.4-1.2-0.7c-0.4-0.3-0.7-0.3-1.1,0.1
		c-0.4,0.5-0.9,0.9-1.3,1.3c-0.4,0.4-0.8,0.8-1.4,0.8c-0.3,0-0.5,0.1-0.6,0.3c-0.6,0.8-1.5,0.9-2.4,0.9c-1.7,0.1-3.3,0-5,0
		c-0.9,0-1.8-0.1-2.4-0.9c-0.2-0.2-0.4-0.3-0.6-0.3c-0.8,0.1-1.4-0.4-1.9-1c-0.4-0.5-1.1-0.8-1.5-1.2c-0.7-0.8-1.5-1.4-2-2.4
		c-0.2-0.4-0.6-0.8-1-1c-0.3-0.9-0.3-1.8-1.1-2.5c-0.4-0.3-0.4-1-0.4-1.5c0-1.2,0-2.4-0.6-3.6c-0.3-0.6-0.2-1.4,0.1-2
		c0.4-0.9,0.6-1.9,0.6-3c0-0.9,0.1-1.8,0.9-2.4c0.1-0.1,0.2-0.2,0.2-0.3c0.2-1.6,1.6-2.5,2.4-3.7c0.1-0.2,0.3-0.4,0.5-0.5
		c0.7-0.2,1.3-0.6,1.8-1.2c0.3-0.3,0.6-0.4,1-0.3c0.8,0.1,1.5-0.2,2.2-0.6c0.7-0.5,1.6-0.7,2.4-0.6c0.8,0,1.5,0,2.3,0
		c1.1,0,2.1,0.2,3,0.9c0.8,0.6,2.7,0.4,3.3-0.3c0.4-0.5,0.9-0.7,1.5-0.6c0.7,0.1,1.4-0.1,2-0.3c1.1-0.4,2.2-0.8,3.3-1.1
		c1.3-0.5,2.7-0.4,3.9,0.2c1.6,0.8,2.8,0.4,4-0.7c0.7-0.7,1.5-1.2,2.6-1.2c0.2,0,0.4-0.1,0.6-0.2c2-1.4,4.4-1,6.6-1
		c0.7,0,1.4,0.3,1.9,0.6c1.3,0.8,2.5,0.9,3.8-0.2c0.1-0.1,0.3-0.2,0.4-0.3c3-1.1,6-2.3,9.4-1.4c0.6,0.2,1,0.5,1.5,0.8
		c1.6,0.7,1.9,0.7,3.1-0.5c0-0.1,0-0.1,0.1-0.2c0.1-0.2,0.3-0.3,0.5-0.3c1.7,0.2,3.2-0.4,4.7-0.9c1.6-0.6,3.2-0.2,4.8-0.3
		c0.5,0,0.9,0.4,1.3,0.7c0.7,0.5,1.2,0.5,2-0.1c1.2-0.9,2.2-2,3.9-2.2c1.2-0.1,2.1-1,3.4-1.2c2.1-0.3,4.1-0.2,5.9,0.8
		c1.4,0.7,2.7,1,3.8-0.4c0.1-0.1,0.2-0.3,0.4-0.3c2.7-0.7,5.3-1.9,8.3-1.3c0.9,0.2,1.7,0.3,2.5,0.9c0.9,0.7,2.3,0.5,3.1-0.2
		c0.2-0.2,0.5-0.5,0.8-0.6c2.9-0.9,5.8-2.2,8.9-1.4c1.7,0.5,3.4,1.1,5,2c1.1,0.7,2.3,1.2,3,2.3l0,0c1.3,1.1,1.6,2.9,2.7,4.2
		c0.3,0.4,0.2,0.9,0.2,1.4c0,0.8,0.2,1.6,0.5,2.4c0.6,1.7,0.6,3.5,0,5.3c-0.2,0.7-0.5,1.5-0.5,2.2c0.1,0.9-0.5,1.5-0.7,2.3
		c-0.4,1.2-0.1,1.6,1.2,1.5c3.6-0.4,7.1-0.4,10.7-0.4c0.8,0,1.6,0.1,2.3,0.7c0.2,0.2,0.5,0.3,0.8,0.4c2,0.3,3.1,1.8,4.4,3.2
		c0.2,0.2,0.5,0.5,0.4,0.8c-0.1,1.3,0.5,2.4,1,3.5c0.2,0.4,0.3,0.8,0.3,1.3c-0.1,3.6,0.4,7.2,0.3,10.7c-0.1,1.7,0.5,2,2.2,1.8
		c2.3-0.3,4.4-0.8,6.6-1.5c1.8-0.6,3.8-0.6,5.7-0.7c2.3-0.1,4.5-0.8,6.8-0.9c0.9,0,1.7-0.2,2.6-0.1c3.6,0.2,7.2-0.4,10.9-0.2
		c3.6,0.2,7.2-0.3,10.9,0c1.3,0.1,2.7,0.2,4,0c0.8-0.1,1.3-0.5,1.4-1.3c0.1-0.7,0.1-1.4-0.1-2.1c-0.6-2.3-0.8-4.5-0.7-6.9
		c0-0.1,0.1-0.2,0.1-0.3c0.5-1.2,1.2-2.2,1.3-3.5c0-0.4,0.6-0.9,0.9-1.2c0.7-0.7,1.4-1.3,2.1-2c0.2-0.2,0.5-0.2,0.7-0.1
		c1,0.1,1.9-0.2,2.8-0.7c0.7-0.5,1.5-0.6,2.3-0.5c0.3,0,0.7,0,1,0c0.5,0,0.9-0.3,1-0.8c0.1-0.5,0.1-0.9-0.3-1.2
		c-0.7-0.4-1.1-0.9-1.1-1.7c0-0.1-0.1-0.3-0.3-0.4c-0.8-0.6-1-1.4-1.1-2.2c-0.1-0.5-0.3-1-0.6-1.5c-0.4-0.6-0.6-1.3-0.6-2
		c-0.1-2.1-0.3-4.2,0.2-6.2c0.3-1.3,0.8-2.6,1.4-3.7c0.6-1.1,1-2.4,2.1-3.2c0.7-0.6,1.7-1,2.2-1.9c1.1-0.1,2-0.7,2.8-1.4
		c0.1-0.1,0.3-0.1,0.5,0c1.3,0,2.5-0.1,3.7-0.4c0.2,0,0.3-0.1,0.5,0c1.2,0.3,2.4,0.5,3.6,0.4c0.6,0,0.9,0.3,1.3,0.7
		c0.9,0.8,2.7,0.9,3.5,0c0.5-0.5,1-0.6,1.6-0.7c1.5,0,3.1,0,4.6-0.2c1.5-0.3,3.1,0.2,4.6,0.2c0.4,0,0.6,0.3,0.9,0.6
		c1.2,1.2,2.9,1.2,4.2,0.1c0.4-0.3,0.8-0.6,1.3-0.6c2.6-0.3,5.3-0.3,7.9,0c0.5,0.1,0.9,0.2,1.3,0.5c1.5,1.2,3.3,1.2,4.7,0
		c0.4-0.3,0.7-0.5,1.2-0.6c2.6-0.2,5.1-0.3,7.7,0c0.7,0.1,1.3,0.2,1.9,0.8c0.7,0.7,2.6,0.6,3.3-0.1c0.6-0.6,1.2-0.8,2-0.8
		c1.5,0,3,0,4.5-0.4c0.7-0.2,1.4,0.1,2.2,0.2c0.4,0.1,0.9,0.2,1.3,0.1c0.9-0.1,1.6,0.1,2.3,0.9c0.5,0.6,2.3,0.6,2.9,0
		c0.6-0.7,1.3-0.8,2.2-0.8c1.4,0,2.8,0.1,4.1-0.4c0.7-0.2,1.4,0.2,2.2,0.2c0.7,0.1,1.4,0.2,2.1,0.2c0.6,0,1.1,0.1,1.4,0.7
		c0.2,0.5,0.6,0.6,1.1,0.6c1,0,2.1,0.2,2.8-0.8c0.2-0.3,0.7-0.4,1-0.4c2.9-0.3,5.8-0.4,8.7,0.1c0.3,0.1,0.6,0.1,0.8,0.3
		c1,1.2,2.3,0.6,3.4,0.7c0.3,0,0.5-0.2,0.6-0.4c0.6-0.7,1.3-0.9,2.2-0.8c0.7,0,1.3,0,1.9-0.2c0.6-0.2,1.2-0.2,1.9,0
		c0.9,0.2,1.8,0.3,2.7,0.3c0.7,0,1.3,0.1,1.8,0.6c0.6,0.5,1.3,0.7,2.1,0.7c0.3,0.1,0.5,0.4,0.8,0.6c0.3,0.2,0.6,0.5,1,0.3
		c0.4-0.2,0.5-0.6,0.5-0.9c0-1.2,0.1-2.4,0.2-3.5c0-1.5,0.3-3,0.7-4.4c0.4-1.5,0.5-3,0.6-4.6c0-0.8,0-1.7,0.4-2.4
		c0.6-1.2,0.8-2.4,0.9-3.6c0-1,0.2-1.9,0.9-2.7c0.1-0.1,0.2-0.2,0.1-0.3c0-1.9,1.4-3.3,1.8-5.1c0.3-1,1.1-1.8,1.6-2.7
		c1.6-2.8,3.4-5.4,6.1-7.2c1.3-0.9,2.4-2.4,4.3-2.1c0.2,0,0.5-0.1,0.7-0.2c2.7-1.4,5.6-1.1,8.5-0.6c1.2,0.2,2.4,1.1,3.7,1
		c0.1,0,0.2,0,0.2,0.1c1.6,1.3,3.5,2.1,5.1,3.3c3.5,2.7,6.8,5.7,9.7,9.1c1.8,2.1,3.5,4.2,5.1,6.3c1.6,2.1,3.2,4.3,4.8,6.4
		c1.5,2,2.9,4.2,4.4,6.3c0.6,0.9,1.3,1.7,1.9,2.5c0.6,0.9,1.8,0.4,2.7,0.3c1.2-0.1,2.2-0.9,3.5-1.1c2-0.3,4-0.2,6-0.3
		c0.5,0,1,0,1.5,0c2.2-0.1,2.5-0.6,3.1-2.6c0.6-1.9,1.1-4,2.2-5.7c0.5-0.8,0.5-1.7,0.6-2.6c0.7-1,0.9-2.2,1.4-3.1
		c0.9-1.7,0.9-3.8,2.3-5.3c0.2-0.2,0.3-0.4,0.3-0.7c0-1,0.7-1.8,1-2.7c0.5-1.4,1-2.8,1.7-4.1c0.3-1.5,1.5-2.5,2-3.8
		c0.5-1.5,1.8-2.6,2.4-4.1c0.4-0.8,1.1-1.5,1.6-2.3c1.5-2.5,3.3-4.6,5.5-6.4c0.9-0.8,1.8-1.7,3.2-1.9c0.9-0.1,1.6-0.9,2.4-1.4
		c2.8-0.1,5.5-0.1,8.3,0c0.1,0.2-0.2,0.6,0.2,0.7c0.9,0.4,1.8,0.9,2.9,0.9c0.5,0,1,0.1,1.2,0.6c0.1,0.1,0.2,0.3,0.3,0.4
		c0.9,0.4,1.6,1.2,2.4,1.5c1.1,0.4,1.7,1.3,2.4,1.9c1.5,1.2,2.9,2.6,4,4.3c0.7,1.1,1.9,1.8,2.1,3.2c1.1,0.9,1.1,2.6,2.3,3.4
		c0.1,0.1,0.2,0.2,0.2,0.3c0,1,0.8,1.5,1.1,2.2c0.4,0.8,0.6,1.8,1.3,2.4c0.2,1.6,1.8,2.7,1.8,4.4c0,0.1,0,0.2,0.1,0.2
		c0.9,0.8,1.2,1.8,1.2,3c0,0.2,0.2,0.5,0.3,0.6c0.8,0.7,0.9,1.6,1,2.5c0.1,0.5,0.2,0.9,0.5,1.3c0.5,0.6,0.7,1.2,0.8,2
		c0,0.8,0.2,1.5,0.7,2.2c0.6,0.8,0.7,1.7,0.8,2.7c0,0.8,0.2,1.5,0.7,2.2c0.7,0.9,0.5,2.1,0.7,3.2c0.1,0.6,0.2,1.1,0.5,1.6
		c0.5,0.8,0.8,1.7,0.8,2.7c0,1.3,0.2,2.5,0.8,3.6c0.6,1.1,0.6,2.4,0.6,3.6c0,1,0.2,1.9,0.6,2.8c0.5,1.1,0.7,2.3,0.7,3.6
		c0.1,1.4,0.2,2.7,0.9,4c0.4,0.7,0.5,1.6,0.5,2.5c0,1.1,0.2,2.2,0.6,3.2c0.4,1,0.6,2.1,0.6,3.2c0.1,4.2,0.3,8.5,0.2,12.7
		c0,2.5,0,5-0.2,7.6c0,0.6-0.1,1.2-0.4,1.6c-0.6,0.8-0.8,1.8-0.8,2.8c0,0.4-0.2,0.8-0.2,1.2c-0.6,0.4-1,0.8-1,1.6
		c0,0.1,0,0.2-0.1,0.2c-1,0.9-1.3,2.2-2.3,3.1c-0.8,0.6-1.3,1.5-2,2.1c-0.6,0.6-0.2,2.3,0.7,2.8c0.8,0.5,1.2,1.4,1.9,2
		c0.4,0.4,0.2,0.9,0.3,1.4c-0.1,0.9,0.1,1.7,0.6,2.4c0.6,0.9,0.6,1.8,0,2.7c-0.4,0.7-0.6,1.4-0.7,2.2c-0.1,1.3-0.1,2.6,0,3.9
		c0.2,1.5,0,3.1-0.2,4.6c0,0.1,0,0.3-0.1,0.4c-1,0.9-1.3,2.4-2.5,3.3c-0.9,0.6-1.6,1.4-2.3,2.2c-0.5,0.6-0.5,1.4-0.5,2.1
		c0,0.6-0.2,1.1-0.7,1.5c-0.4,0.3-0.5,0.7-0.8,1c-0.5,0.6-0.9,1.4-1.9,1.5c-0.1,0-0.3,0.1-0.3,0.1c-0.9,1.6-2.6,1-3.9,1.2
		c-1,0.2-1.7,0.6-2,1.7c-0.1,0.2-0.2,0.5-0.2,0.7c-0.1,1.4-0.3,2.8-0.9,4.1c-0.3,0.6-0.2,1.2,0.2,1.7c0.7,0.9,0.9,2,0.9,3.1
		c0,1,0,1.8,0.8,2.6c0.4,0.4,0.4,1,0.4,1.5c0,1.1,0.3,2.1,0.3,3.2c0,0.8,0.2,1.4,0.6,2.1c0.2,0.2,0.3,0.5,0.4,0.8
		c0.7,1.5,2.4,2.4,4,2c1.2-0.3,2.4-0.6,3.5-0.9c0.3-0.1,0.6-0.2,0.8-0.5c0.3-0.3,0.6-0.5,1-0.6c0.5-0.1,1-0.3,1.3-0.9
		c0.2-0.4,0.7-0.6,1.1-0.5c1.2,0.1,2.3-0.3,3.4-0.9c0.3-0.2,0.7-0.3,1-0.3c3.3,0,6.5-0.4,9.8-0.2c1.6,0.1,3.1,0.3,4.5,1.1
		c0.8,0.5,1.8,0.8,2.4,1.6c0.5,0.6,0.8,1.4,1.4,1.9c0.2,0.2,0.2,0.5,0.2,0.8c0,2.7,0,5.5,0,8.2c0,0.6-0.1,1.2-0.5,1.7
		c-0.6,0.7-0.8,1.5-0.7,2.4c0,0.5,0,1,0,1.5c0,1,0.2,1.2,1.2,1.4c0.2,0,0.4,0.1,0.6,0.1c0.9,0.1,1.8,0.2,2.5,1
		c0.3,0.4,1,0.4,1.5,0.4c1,0,1.9,0.1,2.7,0.9c0.4,0.4,1,0.5,1.6,0.5c0.5,0,1.1,0,1.5,0.5c0.7,0.8,1.5,0.8,2.4,0.8c0.2,0,0.3,0,0.5,0
		c0.1,0.1,0.2,0.1,0.3,0.2c1,0.9,2.2,1.3,3.6,1.3c0.4,0,0.7,0.3,0.9,0.5c0.4,0.5,1,0.7,1.6,0.7c0.8,0,1.6,0.3,2.2,0.9
		c0.4,0.5,1.1,0.6,1.7,0.6c0.6,0,1.2,0.1,1.7,0.6c0.5,0.4,1.1,0.7,1.8,0.7c0.9,0,1.7,0.2,2.3,1c0.3,0.4,0.8,0.5,1.3,0.5
		c0.8,0,1.6,0.2,2.2,0.9c0.5,0.6,1.3,0.4,1.9,0.6c0.5,0.1,1,0.2,1.3,0.5c0.6,0.6,1.3,0.8,2.1,0.7c0.7,0,1.4,0.1,1.8,0.7
		c0.4,0.5,0.9,0.7,1.5,0.7c0.6,0,0.9,0.2,1.2,0.7c0.1,0.2,0.3,0.4,0.5,0.5c1.1,0.4,1.7,1.3,2.3,2.1c0.3,0.4,0.7,0.6,0.9,1
		c0.6,1.1,0.8,2.4,1.7,3.4c0.1,0.2,0.1,0.6,0.1,0.8c0,2.4,0,4.9,0,7.3c0,1,0,2.1-1,2.9c-0.3,0.3-0.3,0.7-0.3,1
		c-0.1,0.6-0.3,1.2-0.9,1.5c-0.3,0.2-0.4,0.6-0.5,0.9c-0.8,0.7-1.7,1.4-2.5,2c-1,0.7-2.4,1.1-3.1,2.2c-0.1,0.2-0.3,0.3-0.5,0.3
		c-1.5,0.2-2.3,1.4-3.4,2.2c-0.1,0.1-0.2,0.2-0.3,0.2c-1.5,0.2-2.4,1.5-3.7,1.9c-0.7,0.2-1.2,0.8-1.8,1.2c-1.7,1.3-3.8,2.1-5.4,3.6
		c-0.1,0.1-0.1,0.2-0.2,0.2c-1.6,0-2.4,1.5-3.8,1.9c-1,0.3-1.9,1.1-2.7,1.9c-0.4,0.4-0.9,0.6-1.5,0.8c-1.1,0.3-1.8,1.3-2.7,1.9
		c-0.5,0.3-0.8,0.8-1.5,0.7c-0.2,0-0.4,0-0.5,0.1c-0.8,1.1-2.3,1.2-3.2,2.1c-0.3,0.3-0.6,0.5-1.1,0.5c-1,0-1.8,0.3-2.7,0.8
		c-0.8,0.4-1.6,0.4-2.3,0c-1-0.5-2-0.7-3.2-0.8c-1.4-0.1-2.2-1.1-3-2c-1-1.1-2-1.4-3.1-0.4c-1,0.9-2.1,1.6-3.2,2.2
		c-1.6,0.8-2.5,1.9-2.3,3.8c0,0.2,0,0.3,0,0.5c-0.2,1-0.4,2-0.9,3c-0.5,0.9-0.5,2-0.5,3.1c-0.5,0.8-1.2,1.5-1.8,2.2
		c-0.4,0.3-0.8,0.6-1.1,1c-0.1,0.1-0.3,0.2-0.4,0.3c-1.4,0.1-2.3,1.4-3.7,1.5c-0.1,0-0.3,0-0.4,0c-2.2,0-4.3,0.3-6.5,0.9
		c-2.6,0.7-5.3,0.9-7.9-0.4c-0.7-0.3-1.4-0.5-2.1-0.5c-0.1,0-0.3,0-0.4,0c-1.4-0.2-1.8,0-1.9,1.4c-0.1,1-0.2,1.8-0.8,2.6
		c-0.3,0.4-0.4,1-0.5,1.5c-0.1,1-0.4,1.8-1,2.7c-0.6,0.9-1,2-1.5,3c-2.4,5-6.1,8.8-10.4,12.2c-1.4,1.1-2.9,2.2-4.6,2.9
		c-0.4,0.3-0.7,0.7-1.1,1c-0.4,0.2-0.9,0-1.3,0.2c-0.1,0.1-0.2,0.1-0.3,0.2c-0.2,0.2-0.4,0.4-0.6,0.6c-0.6,0.6-1.4,0.4-2.2,0.6
		c-0.3,0.1-0.7-0.1-0.9,0.1c-1.4,1.7-3.6,0.9-5.3,1.8c-1.7,0.8-3.6,0.6-5.5,0.9c-2.4,0.3-4.9,0.4-7.3,0.2c-2.5-0.1-4.9-0.2-7.4-0.6
		c-1.1-0.2-2-1-3.1-1c-1.6,0-2.8-0.9-4.2-1.4c-1.1-0.3-1.7-1.1-2.1-2.1c0-0.4-0.1-0.8-0.3-1.2c-1.3-2.2-1.1-4.6-0.8-7
		c0.1-0.8,0.4-1.5,0.8-2.2c0.7-1.2,0-2.3-1.4-2.1c-3.3,0.4-6.5,0-9.7-0.5c-1.6-0.2-3.2-0.1-4.9-0.3c-8.1-0.9-16.3-0.5-24.4-0.4
		c-3,0-6.2,0.3-9.1,1.5c-0.3,0.1-0.5,0.1-0.8,0.2c-3,0.5-4.9,2.7-7,4.6c-0.1,0.1-0.2,0.3-0.2,0.4c-0.5,1.7-1.2,3.4-1.4,5.1
		c-0.2,1.7-0.6,3.3-1.6,4.7c-1.1,1.6-2.3,3.2-4,4.2c-1.8,1.2-3.8,2-6.1,1.9c-2.1,0-4.2-0.2-6.3-0.4c-1.6-0.2-3.2-0.1-4.6,1
		c-0.3,0.2-0.6,0.4-0.9,0.4c-1.9,0-3.7,0.7-5.6,0.3c-0.6-0.2-1.3-0.1-1.9-0.2c-0.6,0-1.2-0.1-1.7-0.6c-0.7-0.7-1.5-0.7-2.3,0
		c-0.4,0.4-0.8,0.6-1.4,0.6c-0.7,0-1.3,0.3-1.9,0.6c-2.4,1.2-4.8,1.2-7.2,0c-0.9-0.5-1.9-0.6-2.7-1.1c-0.5-0.3-1,0-1.3,0.5
		c-0.6,1-1.6,1.5-2.7,1.6c-0.3,0-0.6,0.2-0.9,0.3c-2.7,1.4-5.3,1.3-7.9-0.1c-1.4-0.8-2.9-0.6-4.1,0.6c-0.3,0.3-0.6,0.4-1,0.5
		c-0.3,0.1-0.6,0.1-0.8,0.2c-3.1,2.1-6.4,1.2-9.7,0.9c-0.6,0-1-0.4-1.5-0.8c-0.7-0.6-1.2-0.5-1.7,0.3c-0.3,0.5-0.8,0.8-1.4,0.9
		c-0.2,0-0.5,0-0.6,0.1c-1.6,1.8-3.8,1.2-5.7,1.5c-1.5,0.2-3.2-0.4-4.8-0.6c-0.2,0-0.3-0.1-0.4-0.2c-1.4-1-1.4-1-2.8,0.2
		c-0.5,0.2-1,0.3-1.5,0.6c-2.5,1.4-5.1,1-7.7,0.8c-0.9-0.1-1.4-0.9-2.1-1.4c-0.8-0.6-1.5-0.7-2.1,0.1c-1.1,1.3-2.6,1.9-4,2.4
		c-1.9,0.7-4,1-6.1,0.6c-0.4-0.1-0.7-0.2-1.1-0.1c-2.1,0.1-3.6-1.1-5.2-2.2c-1.1-0.8-2.2-1.7-3-2.8c-0.4-0.5-0.6-1.1-0.9-1.6
		c-0.8-0.7-1.2-1.7-1.2-2.7c-0.1-1.3-1.1-2.3-1.2-3.7c-0.1-2.6-0.5-5.1,0.8-7.5c0.3-0.5,0.1-1.1,0.5-1.5c1.1-1.2,1.9-2.7,3.2-3.8
		c0.5-0.4,0.9-0.9,1.6-1.1c0.2,0,0.4-0.1,0.5-0.3c0.4-0.8,1.1-1,1.9-0.9c0.7,0,1.4-0.2,2-0.5c2.1-1.1,4.1-0.9,6.2,0.1
		c1.1,0.6,2.3,0.7,3.5,0.5c0.6-0.1,1.2-0.3,1.6-0.8c0.4-0.5,0.9-0.7,1.6-0.7c0.6,0,1.1,0.1,1.7-0.2c0.1-0.1,0.3-0.2,0.4-0.2
		c1.1-0.2,1.4-0.3,1.2-0.9"/>
</g>
<g id="Doggo">
	<path fill="#FEFEFE" d="M397,178.8l4-16.3l-5.7-5.3l-5.4,1.5l-2-0.5c0,0-3.1-2.4-3.2-2.6c-0.1-0.2-3.3-2.3-3.6-2.8
		c-0.2-0.5,3.7-2.1,3.7-2.1l6.2-5.8l2.3-1.8c0,0,5.5-7.1,5.8-7.3c0.3-0.2,5-12.5,5-12.5l5.2-11.6c0,0,1.6-7.4,1.6-8.8
		c0-1.4,0-9.9,0-9.9l0-9.4l-0.8-10.2l2.1-4.9l14.3-1.9l6.2,0l2.7,0l-1.9,13.2l3.7,14.4l4.8,8.6l5.8,7.8l6.7,4.6l12,6.5l12.5,8.5
		l8,2.9l1.1,4.5l-1.6,4.5l-3.4,4.3l-9.3,6.1l0,5.6l2.4,21.2l-9,1.1l-59.6,0.3L397,178.8z"/>
	<path fill="#434343" d="M399.3,180.6c-0.9,1.1-2,1.7-3.3,1.1c-1.3-0.6-1.1-1.9-1-3c0.4-4.5,1-9,1.9-13.4c0.3-1.7,0-2.6-1.8-3.3
		c-2.6-0.9-5.1-0.7-7.6-0.7c-2.8,0-3.3-0.3-4.2-3c-0.4-1.1-1-1.8-2.2-1.7c-3,0.2-4.7-2.5-3.5-5.6c0.3-0.8,0.5-1.2-0.4-1.6
		c-3.9-1.7-3.3-5.6-1-7.7c2.4-2.2,2.9-5,2.9-8.1c0-1-0.3-1.8-1.3-2.4c-5.3-3-8.8-7.6-11.1-13.2c-2.3-5.5-3.4-11.3-4.1-17.2
		c-1.2-10.3-3.3-20.5-2.9-30.9c0.3-9.1,0.8-18.2,3.6-26.9c1.2-3.7,2.9-7.2,5.6-10c3.7-3.9,8.9-4.6,13.5-1.7c6,3.7,10.8,8.8,15,14.3
		c4.8,6.4,9.5,12.8,14.2,19.3c0.8,1.1,1.5,1.5,2.8,0.9c5.7-2.3,11.8-2.7,17.8-2.9c2.6-0.1,3.7-1,4.6-3.5c3.3-9.1,6.5-18.3,10.5-27.1
		c2-4.3,4.6-8.3,7.5-12.1c3.4-4.5,8.7-4.3,12.6-2.1c3.8,2.1,6.6,5.3,8.9,8.9c6.6,10.1,10.8,21.2,13.6,32.8
		c2.3,9.6,4.6,19.2,5.8,28.9c0.7,5.2,0.5,10.4,0.2,15.6c-0.3,5-2.9,8.8-7.1,11.3c-1.5,0.9-1.6,1.6-0.9,3c0.6,1.3,0.9,2.8,1.3,4.2
		c0.4,1.3,1,2.5,2,3.4c2,1.8,2.1,3.8,0.3,5.9c-0.9,1-1.1,1.7-0.2,2.9c1.7,2.3,1.2,4.6-1.4,6c-1.9,1-3,2.1-2.7,4.5
		c0.2,1.5-0.9,2.6-2.5,2.7c-2.9,0.2-5,2-7.1,3.6c-0.5,0.4-0.6,0.9-0.7,1.5c-0.2,2.1-0.3,4.2-0.7,6.3c-0.4,2.5,0.3,4.7,1,7
		c1.1,3.9,1.8,7.8,2,11.8c0.1,1.2,0.1,2.4-1.3,2.9c-1.3,0.4-2.4-0.1-3-1.4c-0.5-0.3-0.8-0.9-0.9-1.5c-0.8-4.6-1.7-9.1-2.6-13.6
		c-0.2-0.9-0.2-1.8,0.1-2.7c0.2-2.3,0.4-4.6,0.6-7.1c-1.8,0.6-3.5,1.2-5.2,1.8c-1.3,0.5-2.5,0.6-3.1-0.8c-0.6-1.4-0.2-2.6,1.3-3.4
		c3.5-1.9,7-3.9,10.5-5.7c2.2-1.2,4-3.3,6.8-3.4c1,0,0.6-1,0.5-1.6c-0.2-1.6,0.3-3,1.6-3.6c2.2-1.1,1.5-1.9,0.1-3
		c-1.3-1.3-1.4-2.9,0-4.4c0.9-1,1.1-1.6,0.2-2.7c-1-1.3-1.4-3-1.7-4.7c-0.8-4.3-2.5-8.2-4.3-12.2c-1.8-3.9-3.7-7.8-5.3-11.8
		c-0.8-2.1-0.6-2.8,1.1-4.2c1.6-0.6,2.9,0,3.8,1.3c2.3,3,3.7,6.5,5.4,9.9c0.4,1,0.9,1.9,1.3,2.8c0.6,1.2,1.4,1.2,2.3,0.3
		c1.3-1.5,2.1-3.2,2.6-5.1c1.1-3.9,1.2-7.8,0.7-11.7c-1.9-14.1-4.6-28-9.4-41.4c-2.6-7.3-5.4-14.7-9.8-21.2c-1.9-2.8-4.2-5-7.1-6.7
		c-2.7-1.6-3.9-1.3-5.7,1.2c-4.3,5.7-7.5,12-10.2,18.6c-2.9,7.2-5.5,14.5-7.8,21.9c-0.5,1.7-1.1,3.3-1.9,4.9c-0.7,1.4-1.8,2-3.3,1.8
		c-1.4-0.2-2-1.1-2.1-2.4c-0.1-0.8-0.4-1.3-1-1.8c-6.9,0.3-13.6,1.6-19.9,4.6c-2.9,2.2-6,3.9-9.4,5.1c-1,0.3-2.1,0.2-2.8-0.8
		c-0.8-1.1-0.6-2.2,0-3.3c0.9-1.5,2.2-2.5,3.6-3.4c0.5-0.3,1.1-0.7,1.7-1c0.9-0.5,1-1,0.4-1.9c-4.4-6.1-8.6-12.2-13.4-17.9
		c-3.5-4.1-6.9-8.2-11.3-11.3c-0.2-0.1-0.4-0.3-0.6-0.5c-4.2-3-6.3-2.6-9.2,1.7c-1.3,2-2.3,4.2-3,6.5c-1.7,5.7-2.6,11.5-2.9,17.5
		c-0.3,5.2-0.4,10.3-0.2,15.5c0.5,12.2,2.1,24.3,6,35.9c1.2,3.5,3,6.5,5.6,9.1c0.4,0.4,0.8,1.1,1.4,0.9c0.7-0.2,0.4-1,0.5-1.5
		c0.1-0.4,0.1-0.8,0.2-1.1c0.3-3.5,0.7-7,1.7-10.4c0.6-2.2,1.5-2.7,3.8-2.3c1.3,0.7,1.3,2,1.3,3.2c0.2,5.4-0.4,10.7-0.9,16
		c-0.3,3.4-0.7,6.8-0.9,10.2c-0.2,2.1-0.4,4.1-2.1,5.6c-0.7,0.6-0.6,1.2,0.2,1.7c1.7,1.1,2.3,2.6,1.8,4.5c-0.2,0.9,0,1.5,1,1.8
		c0.6,0.2,1.1,0.4,1.4,1c0.3,0.4,0.9,0.8,0.9,1.2c0,2.9,1.8,2.7,3.8,2.3c3-0.6,5.6,1.2,8.4,1.7c3.5,0.7,6.9,1.7,10.3,2.4
		c1.5,0.4,2.5,1.1,2.2,2.8c-0.3,1.6-1.5,1.7-2.8,1.6c-1.4-0.1-2.8-0.3-4.2-0.4c-2.9-0.1-2.5-0.8-3.1,2.4c0,4-1.1,7.9-1.5,11.8
		C400.2,179.4,400,180.2,399.3,180.6z"/>
	<path fill="#FBC16C" d="M474.9,95.7c-1.4,1.1-1.4,2.4-0.7,3.9c2.9,6.8,6.4,13.3,8.8,20.3c0.8,2.3,0.4,4.8,1.8,6.8
		c1.3,2,2.4,3.5-0.2,5.4c-0.7,0.5-0.4,2.2,0.2,3.2c-1.9-0.1-3.6-1.1-5.3-1.8c-6-2.5-11.5-5.6-16.7-9.5c-3-2.3-6.7-3.6-9.8-5.8
		c-5.2-3.9-9.1-8.8-11.9-14.7c-1.2-2.5-3.1-4.8-4.5-7.2c-4.8-8.3-6.1-17.1-4.3-26.4c0.1-0.8,0.2-1.5,0.3-2.3
		c1.2-0.3,1.6,0.2,1.5,1.4c-0.1,1.1,0,2.1,1.3,2.4c1.4,0.3,2.4-0.2,3.1-1.6c2.2-4.8,3.4-9.9,5.1-14.7c3.9-10.8,7.9-21.6,15-31
		c1.9-2.5,2.7-2.7,5.5-1.3c5.7,2.9,8.9,7.9,11.5,13.3c5.4,11,9.1,22.7,11.8,34.6c1.6,7,2.9,14.1,3.8,21.3c0.6,4.6,0.6,9.3-0.9,13.8
		c-0.6,2-1.6,3.8-3.3,5.1c-0.8,0.6-1.4,0.8-1.9-0.4c-0.5-1.3-1.1-2.5-1.7-3.7c0.3-3.3,1.5-6.5,1.7-9.9c0.6-9.5,0.5-18.9-1.7-28.3
		c-1.9-8-4.7-15.6-9.1-22.5c-2.1-3.3-4.5-6.4-7.3-9.2c-0.1-0.2-0.2-0.5-0.2-0.7c-0.1-0.9-0.4-1.5-1.3-1.7c-1-0.3-1.6,0.3-2.1,1
		c-0.7,1-1.3,2.1-1.6,3.3c-2.1,8-4.5,15.9-5.5,24.1c-0.4,3.3-0.1,6.6,0.7,9.8c0.7,2.6,2,3.1,4.5,2.2c0.1,0,0.2-0.1,0.4-0.1
		c1-0.3,2.1-1.3,3-0.3c0.8,0.8,0.1,2-0.1,2.9c-0.3,1.3-1,2.5-1.3,3.8c-0.5,1.7,0.2,2.5,2,2.1c1.3-0.3,2.4-0.8,3.7-1.1
		c1.8-0.3,2.4,0.2,2.3,2c-0.1,1.7-0.5,3.4,0.7,4.8C473.4,91.2,474.1,93.4,474.9,95.7z"/>
	<path fill="#FBC16C" d="M379.6,121.9c0,0.4-0.1,0.8-0.1,1.1c-0.2,0.7,0.2,1.9-0.5,2.1c-0.9,0.3-1.5-0.7-2.1-1.3
		c-4.2-4.2-6.2-9.5-7.6-15.1c-4-16-5.3-32.2-4-48.7c0.5-6,1.6-11.9,3.8-17.5c0.9-2.4,2.1-4.6,4-6.3c2.5-2.2,4-2.3,6.7-0.5
		c3,2,5.6,4.3,8.1,6.9C395,50.2,401,58.8,407,67.3c0.5,0.8,0.5,1.1-0.4,1.6c-2,1-3.9,2.2-5.4,4c-0.8,1-1.4,2.1-0.6,3.3
		c0.8,1.2,2,0.8,3.1,0.5c1.2-0.4,2.3-1,3.5-1.7c1.8-1,3.5-2.1,5.5-2.8c-0.1,7.8,0.8,15.5,1,23.3c0.1,1.9,0.2,3.7,0.3,5.6
		c0.1,3.2-0.5,6.3-2.1,9.1c-3.9,7.3-6,15.3-8.8,23.1c-1.4,3.9-3,7.8-6.2,10.7c-1.6,1.5-3.6,2.5-5.5,3.5c-1.7,0.9-3.3,1.9-4,3.9
		c-0.2,0.5-0.7,0.9-1.1,1.4c-2.4-0.3-3.8-0.9-2.8-4c0.8-2.3-1.8-2.8-3.6-4c3.6-1.8,3.6-5.2,3.8-8.5c0.6-7.9,1.8-15.7,1.7-23.6
		c0-1.2,0.2-2.5-0.9-3.4c-0.2-2.2,0.6-4.4,0.1-6.6c0.8-1.8,0.2-3.4-0.4-5c-0.9-2.5-0.3-3.3,2.4-3.4c0.9,0,1.8,0,2.7,0
		c1.9-0.1,2.3-1,1.3-2.5c-0.9-1.5-2-2.8-2.8-4.4c-0.9-1.6-0.5-2.2,1.3-2.4c1-0.1,2.1-0.1,3.1,0c1.6,0,2.2-0.7,2.2-2.2
		c0-3.6-0.9-7-2.1-10.4c-3-8.2-7.6-15.5-12.9-22.4c-1.3-1.6-2.7-3.3-5.2-2.2c-0.9,0.3-1.2,1.1-1.6,1.9c-2.7,5.1-3.9,10.6-4.4,16.3
		c-1.3,13.6,0.8,27,4,40.2c1.2,5,3.6,9.6,6.3,14.1C379.1,120.7,379.4,121.3,379.6,121.9z"/>
	<path fill="#434343" d="M442,156.9c-3,0.5-5.2-1.4-7.2-3.8c-1-1.3-2.1-1.9-3.9-1.7c-9.6,0.6-14.3-2.3-18.4-11.1
		c-0.5-1-1.2-1.8-2.1-2.4c-2.2-1.7-3.3-3.8-3.2-6.7c0.1-0.8,0.2-1.6,1.1-1.8c0.9-0.2,1.8-0.2,2.4,0.7c0.2,0.3,0.4,0.5,0.5,0.8
		c3.5,5.3,9.5,5.4,13.1,0.1c0.5-0.7,0.9-1.6,1.5-2.3c0.9-1.1,1.9-1.2,3-0.3c0.8,0.7,1.6,1.3,2.4,1.9c2.7,1.7,5.5,2.3,8.6,1.1
		c3.2-1.2,4.6-2.8,4.7-6.3c0-1,0.2-1.8,1.3-2.1c1.1-0.3,1.9,0.3,2.3,1.2c1.1,2.7,1.4,5.4-0.4,7.9c-1.6,2.4-1.5,3.3,0.9,5.1
		c3.9,2.8,5.6,6.5,4.6,11.3C452.6,153.4,447.8,156.9,442,156.9z"/>
	<path fill="#434343" d="M426.6,106.2c2.8,0,5.5,0.5,8,1.7c3.7,1.8,4.9,5.4,2.9,9c-4.2,7.5-15.9,9.5-22.3,3.8
		c-3.6-3.2-3.6-7.2,0-10.4C418.3,107.5,421.9,106.2,426.6,106.2z"/>
	<path fill="#FBC16C" d="M471.6,162.2c1.1,5.9,2.2,11.8,3.3,17.8c-2.6,0.3-5.2-0.2-7.8,0.4c-1.1,0.2-1.5-0.2-1.4-1.5
		c0.4-5,2-9.6,4.7-13.8C470.9,164.1,471.2,163.1,471.6,162.2z"/>
	<path fill="#FBC26E" d="M399.3,180.6c0.8-2,0.8-4.2,1.1-6.2c0.3-2.6,0.8-5.1,1.4-7.5c1.2,4.9,3.1,9.4,7.9,12
		c0.5,0.3,0.9,0.5,0.8,1.2c-0.1,0.5-0.4,0.6-0.8,0.6C406.2,180.6,402.8,181.6,399.3,180.6z"/>
	<path fill="#FBB3A9" d="M385,102.5c0.9,2.3,0.5,4.6-0.4,6.8c-2.1-0.4-3,0.6-3.5,2.6c-0.8,3.3-1.1,6.7-1.6,10.1
		c-2.8-2.7-4.1-6.4-5.6-9.8c-2.7-6-3.6-12.4-4.7-18.8c-1.3-7.6-2-15.3-1.7-23c0.3-7.4,1.4-14.7,5-21.3c0.4-0.8,0.7-1.7,1.8-1.8
		c0,3,1.8,5.3,3.3,7.6c4.2,6.3,8.1,12.7,10.9,19.8c0.5,1.2,0.9,2.4,1.2,3.7c0.3,1.4-0.1,2.3-1.6,2.3c-0.8,0-1.5,0.2-2.2,0.5
		c-2.5,1.1-3.7,3.7-2.7,6.6c0.6,1.7,0.6,2.7-1.3,3.4c-1.8,0.7-2.7,2.2-2.6,4.3C379.5,99.1,381,101,385,102.5z"/>
	<path fill="#FBB3A9" d="M467.4,36.8c3.1,2.2,5.1,5.4,7.1,8.5c5.9,9.1,9,19.2,10.7,29.8c1.1,6.7,0.8,13.5,0.7,20.2
		c-0.1,3.9-0.7,7.9-2.4,11.6c-1.7-3.1-2.9-6.6-5.1-9.5c-1-1.3-2-1.9-3.6-1.6c-1.7-1.7-1.8-4.2-2.8-6.2c2.7-1.7,4-4,3.7-7.3
		c-0.3-2.5-1.3-3.8-3.7-4.2c-2.3-0.4-2.4-0.6-2.5-2.8c-0.1-4.5-1.9-6-6.3-5.6c-2.2,0.2-2.6-0.1-2.6-2.4c0-6,1.1-11.9,2.6-17.7
		c1-3.7,2.2-7.4,3.2-11.2C466.6,37.7,466.6,37,467.4,36.8z"/>
	<path fill="#434343" d="M467.4,36.8c-2,7.6-4.7,15.1-5.7,23c-0.3,2.8-0.6,5.5-0.6,8.3c0,1.2,0.4,1.4,1.5,1.1
		c1.8-0.4,3.6-0.5,5.2,0.5c2.2,1.4,2.6,3.4,2.3,5.7c-0.2,1.6,0.2,2.2,1.9,2c1.7-0.2,2.9,0.8,3.8,2.2c1.6,2.6,0.4,7.5-2,9.3
		c-0.5,0.4-1.1,0.2-1.6,0.4c-2.1-1.2-1.2-3.1-1.1-4.7c0.2-2.6,0.2-2.6-2.2-1.9c-1.2,0.3-2.3,0.8-3.5,1c-2.1,0.3-2.9-0.7-2.3-2.7
		c0.5-1.7,1.1-3.4,1.6-5.1c0.1-0.5,0.5-1,0.1-1.5c-0.5-0.5-1.1,0.1-1.6,0.2c-0.4,0.1-0.8,0.3-1.3,0.5c-3,1.3-4.6,0.6-5.3-2.7
		c-1.4-6.1-0.7-12.2,0.8-18.2c1.2-4.8,2.4-9.6,3.6-14.4c0.4-1.6,1.1-3.1,1.9-4.6c0.7-1.2,1.5-2,2.9-1.6
		C467.3,34.3,467.6,35.4,467.4,36.8z"/>
	<path fill="#434343" d="M443.5,102.2c0-7.5,3.9-8.8,9.9-5.9c3.5,1.7,5.1,4.7,5.2,8.6c0,1.4-0.4,2.6-1.4,3.5
		c-2.8,2.3-6.1,2.6-9.5,1.6c-3-0.9-3.8-3.6-4.2-6.4C443.5,103.1,443.5,102.6,443.5,102.2z"/>
	<path fill="#434343" d="M385,102.5c-2.9,0.3-5.9-2.6-6.2-5.8c-0.3-3.9,0.1-4.7,3.8-6.4c1.1-0.5,0.5-1,0.3-1.5
		c-0.8-2.4-1-4.6,0.7-6.8c1.1-1.3,2.5-1.9,4.1-1.8c1.9,0.2,2-0.6,1.6-2.1c-1.1-4-3-7.7-4.8-11.3c-2.8-5.6-6.6-10.6-9.8-16
		c-0.7-1.2-0.9-2.4-0.2-3.6c1.7-1,3.1-0.4,4.3,0.9c2.8,3.1,5,6.5,7.2,10c3.5,5.5,6.4,11.3,8.2,17.6c0.7,2.6,0.8,5.2,0.9,7.8
		c0,1.3-0.7,1.8-1.9,1.8c-1.3,0-2.6,0-3.9,0c-1.3,0-1.7,0.4-0.9,1.6c1,1.5,2,3,3,4.5c0.5,0.7,0.8,1.5,0.4,2.3c-0.4,0.9-1.2,1-2.1,1
		c-1.2,0-2.5,0-3.7,0c-1.4,0-2.1,0.5-1.4,2c0.4,0.9,0.6,1.8,0.9,2.7C385.9,100.7,385.8,101.6,385,102.5z"/>
	<path fill="#434343" d="M408.3,109c-0.1,2.9-0.4,5.8-3.3,7.3c-3.2,1.7-6.5,1.2-9.6-0.5c-1.9-1.1-2.3-3-2.2-5
		c0.5-5.3,5.4-9.4,10.7-9c2.1,0.2,3.3,1.4,3.8,3.3C408.1,106.3,408.4,107.6,408.3,109z"/>
	<path fill="#F88691" d="M418.6,140c3.8,0,6.7-1.6,9-4.3c0.4-0.4,0.7-0.8,1.4-0.3c2.2,1.4,4.7,2,7.6,1.8c-0.9,1-1.5,1.8-2.4,2.3
		c-2.6,1.4-4.5,3.4-5.7,6c-0.3,0.7-0.7,1.2-1.6,1C423.3,145.6,420.4,143.7,418.6,140z"/>
	<path fill="#F9B2A8" d="M442.4,141c2.7-0.2,5,1.3,5.9,3.8c0.7,1.9-0.2,4.4-2.1,5.7c-3.8,2.5-6.1,2.1-8.2-1.7
		c-0.5-0.8-1.1-1.6-1.5-2.4c-0.2-0.4-1-0.7-0.6-1.2c0.4-0.5,1.2-0.8,1.9-0.4c1.4,0.7,2.7,1.4,4,2.2c1.1,0.6,2.2,1.1,3.2,0.1
		c0.9-1,0.5-2.2-0.2-3.2C444,142.8,443.2,141.9,442.4,141z"/>
</g>
<g id="MainText">
	<g>
		<path fill="#F79F49" d="M86.3,191.5c-1.4,0.1-2.7-0.9-2.9-2.4l-8.7-85.5c-0.1-1.4,0.9-2.7,2.4-2.9l22.2-2.2
			c1.4-0.1,2.7,0.9,2.9,2.4l8.7,85.5c0.1,1.4-0.9,2.7-2.4,2.9L86.3,191.5z M141.6,185.3c-1.4,0-2.6-1.1-2.8-2.5l-1.4-31.7l-23.4,1.3
			c-1.4,0-2.7-1.1-2.8-2.4l0-0.2l-1.1-19.2c0-1.3,1.1-2.6,2.4-2.8l0.2,0l23.4-1.2L134.6,97c0-1.3,0.9-2.6,2.4-2.8l0.2,0l22.1-1
			c1.4-0.1,2.6,1.1,2.8,2.5l4.2,85.8c0,1.4-1.1,2.7-2.5,2.8L141.6,185.3z"/>
	</g>
	<g>
		<path fill="#F79F49" d="M206.1,184.7c-22.6,2.5-35.6-11.6-37.3-26.7c-1.6-14.2,6.8-30.2,29.4-32.8c24.6-2.8,28.2,19.1,28.6,22.4
			c0.5,4.6-1,8.6-6.6,11.2c-4.5,2.1-11.7,4-16.9,4.8c-1.6,0.2-2.2-0.5-2.7-1.6c-1.6-3.1-4.2-9.4-4.2-9.8c-0.1-1.1,0.6-1.7,1.9-2.1
			c5-1.8,5.7-2,5.6-3.4c-0.1-0.9-2.3-3.9-6.5-3.4c-4.8,0.5-8.3,5.2-7.6,11.3c0.8,7.1,6.8,14.4,19.3,13c0.7-0.1,1.5-0.2,2.2-0.3
			l0.2,0c1.4-0.2,3.2,0.5,3.4,2.2c0.1,1-1.7,8-2.8,11.6c-0.6,1.7-1.8,3.2-4.6,3.5L206.1,184.7z"/>
	</g>
	<g>
		<path fill="#F79F49" d="M235.1,178.4c-1.1,0.1-2.1-0.7-2.2-1.8l-7.8-81.3c-0.1-1.2,0.7-2.2,1.8-2.3l20-1.9
			c1.1-0.1,2.1,0.7,2.2,1.9l7.8,81.3c0.1,1.1-0.7,2.1-1.8,2.2L235.1,178.4z"/>
	</g>
	<g>
		<path fill="#F79F49" d="M268.3,179.3c-1.1,0.1-2.1-0.7-2.2-1.8l-7.9-81.3c-0.1-1.2,0.7-2.2,1.8-2.3l20-2c1.1-0.1,2.1,0.7,2.2,1.9
			l7.9,81.3c0.1,1.1-0.7,2.1-1.8,2.2L268.3,179.3z"/>
	</g>
	<g>
		<path fill="#F79F49" d="M326.1,179.6c-16.3,1.2-31.4-9.6-32.6-27.2c-1.5-20.5,13.1-32.3,30.7-33.6c22-1.6,32.8,15,33.7,28
			C359.3,166.3,340.3,178.6,326.1,179.6z M336.6,148.2c-0.1-1.9-1.2-11.5-11.4-10.8c-8.4,0.6-10.3,7.8-9.9,12.3
			c0.5,6.9,6.2,11.1,11.9,10.7C334.2,159.9,337,153.9,336.6,148.2z"/>
	</g>
	<g>
		<path fill="#F79F49" d="M427.6,281.1c0.3-1.3,1.3-2.1,2.4-2.2c0.2,0,0.4,0.1,0.6,0c2.8,0.5,5.2,0.6,7.4,0.4
			c8.4-0.7,12.8-5.9,14.5-14.1c-3,1.3-6.3,2.2-9.5,2.4c-15.2,1.3-30.1-9.8-31.7-28.3c-1-12.1,4.9-27.3,25.9-29.1
			c4.8-0.4,9.4,0.1,13.5,1.5c0.2-1.1,1.1-1.4,2-1.5l0.5,0c0,0,16.4-0.3,18.7-0.4c1.6,0,2.7,1.2,2.8,2.7c1.3,17.6,2.8,35.7,1.2,50.9
			c-2.3,21.5-16.8,31.1-32.3,32.4c-5.8,0.5-11.7-0.1-17.1-1.7c-0.9-0.2-1.2-1-1.3-1.8c-0.1-0.6,0-1.2,0.1-1.6L427.6,281.1z
			 M453.3,246.5c-0.1-4-0.4-8.4-0.8-12.9c-0.8-4.6-4.9-6.8-9.2-6.4c-6.3,0.5-9.3,5.9-8.8,11.5c0.3,3.9,2.6,11.9,11.4,11.2
			c2.4-0.2,5.5-1.6,7-3L453.3,246.5z"/>
	</g>
	<g>
		<path fill="#F79F49" d="M375.9,273.5c-16.2,1.8-31.7-8.4-33.6-25.9c-2.2-20.5,11.9-32.8,29.4-34.7c22-2.4,33.3,13.8,34.7,26.7
			C408.5,259,390,272,375.9,273.5z M385.2,241.7c-0.2-1.9-1.6-11.5-11.8-10.4c-8.4,0.9-10,8.2-9.5,12.7c0.7,6.9,6.6,10.9,12.3,10.2
			C383.3,253.5,385.8,247.4,385.2,241.7z"/>
	</g>
	<g>
		<path fill="#F79F49" d="M248.2,198.8c-0.2-1.4,0.8-2.9,2.2-3l17.4-3.1c5.5-2.5,11.8-4.3,18.2-5c18.5-2.2,38.7,3.5,47.2,21.9
			c3.3,7,5.2,13.7,5.9,19.8c3.7,30.9-21.4,51.1-52.4,54.7c-5,0.6-10.2,0.8-15.4,0.5c-0.9-0.1-1.8-0.1-2.6-0.1
			c-3.7-0.4-6-1.9-6.7-6.1L248.2,198.8z M286.5,258.1c0.9,0,1.8-0.1,2.6-0.2c12.7-1.5,22.1-11.8,20.4-25.7
			c-0.2-1.9-2.9-23.5-23.1-21.1c-2.6,0.3-5.3,1.1-7.7,2L286.5,258.1z"/>
	</g>
</g>
<g id="Binary">
	<g>
		<path fill="#FCB145" d="M26.8,96.4c-1.3-1.5-2.3-3.3-2.6-5.7c-0.7-5.9,2.8-8,5.7-8.4c2.8-0.3,5.8,0.9,7.1,3.7
			c0.5,1.1,0.9,2.3,1,3.6c0.4,3.2-0.8,8.4-5.8,9C30.2,98.7,28.1,98,26.8,96.4z M33.2,90c-0.4-3.3-2-3.6-2.7-3.5
			c-0.8,0.1-2,0.8-1.7,3.5c0,0,0.6,4.4,2.7,4.2C32.9,94,33.4,92,33.2,90z"/>
		<path fill="#FB9A9E" d="M45.9,96.6L45.9,96.6c-0.3,0-0.5-0.2-0.5-0.4l-1.8-10.6l-1.4,0.2l0,0c-0.2,0-0.4-0.2-0.5-0.4l-0.6-3.6l0,0
			c0-0.2,0.1-0.4,0.4-0.5l5.7-1l0,0c0.2,0,0.4,0.2,0.5,0.4l2.5,14.6l0,0c0,0.2-0.1,0.5-0.4,0.5L45.9,96.6z"/>
		<path fill="#FCB145" d="M56.2,93c-1.3-1.5-2.3-3.3-2.6-5.7c-0.7-5.9,2.8-8,5.7-8.4c2.8-0.3,5.8,0.9,7.1,3.7c0.5,1.1,0.9,2.3,1,3.6
			c0.4,3.2-0.8,8.4-5.8,9C59.6,95.3,57.5,94.6,56.2,93z M62.7,86.6c-0.4-3.3-2-3.6-2.7-3.5c-0.8,0.1-2,0.8-1.7,3.5
			c0,0,0.6,4.4,2.7,4.2C62.4,90.6,62.9,88.7,62.7,86.6z"/>
		<path fill="#FCB145" d="M70.9,91.3c-1.3-1.5-2.3-3.3-2.6-5.7c-0.7-5.9,2.8-8,5.7-8.4c2.8-0.3,5.8,0.9,7.1,3.7
			c0.5,1.1,0.9,2.3,1,3.6c0.4,3.2-0.8,8.4-5.8,9C74.4,93.6,72.3,92.9,70.9,91.3z M77.4,85c-0.4-3.3-2-3.6-2.7-3.5
			c-0.8,0.1-2,0.8-1.7,3.5c0,0,0.6,4.4,2.7,4.2C77.1,89,77.6,87,77.4,85z"/>
		<path fill="#FB9A9E" d="M90.1,91.6L90.1,91.6c-0.3,0-0.5-0.2-0.5-0.4l-1.8-10.6l-1.4,0.2l0,0c-0.2,0-0.4-0.2-0.5-0.4l-0.6-3.6l0,0
			c0-0.2,0.1-0.4,0.4-0.5l5.7-1l0,0c0.2,0,0.4,0.2,0.5,0.4l2.5,14.6l0,0c0,0.2-0.1,0.5-0.4,0.5L90.1,91.6z"/>
		<path fill="#FCB145" d="M100.4,88c-1.3-1.5-2.3-3.3-2.6-5.7c-0.7-5.9,2.8-8,5.7-8.4c2.8-0.3,5.8,0.9,7.1,3.7
			c0.5,1.1,0.9,2.3,1,3.6c0.4,3.2-0.8,8.4-5.8,9C103.8,90.3,101.7,89.6,100.4,88z M106.8,81.6c-0.4-3.3-2-3.6-2.7-3.5
			c-0.8,0.1-2,0.8-1.7,3.5c0,0,0.6,4.4,2.7,4.2C106.6,85.6,107.1,83.6,106.8,81.6z"/>
		<path fill="#FCB145" d="M115.1,86.3c-1.3-1.5-2.3-3.3-2.6-5.7c-0.7-5.9,2.8-8,5.7-8.4c2.8-0.3,5.8,0.9,7.1,3.7
			c0.5,1.1,0.9,2.3,1,3.6c0.4,3.2-0.8,8.4-5.8,9C118.5,88.6,116.4,87.9,115.1,86.3z M121.6,79.9c-0.4-3.3-2-3.6-2.7-3.5
			c-0.8,0.1-2,0.8-1.7,3.5c0,0,0.6,4.4,2.7,4.2C121.3,83.9,121.8,81.9,121.6,79.9z"/>
		<path fill="#FCB145" d="M129.8,84.6c-1.3-1.5-2.3-3.3-2.6-5.7c-0.7-5.9,2.8-8,5.7-8.4c2.8-0.3,5.8,0.9,7.1,3.7
			c0.5,1.1,0.9,2.3,1,3.6c0.4,3.2-0.8,8.4-5.8,9C133.3,86.9,131.2,86.2,129.8,84.6z M136.3,78.2c-0.4-3.3-2-3.6-2.7-3.5
			c-0.8,0.1-2,0.8-1.7,3.5c0,0,0.6,4.4,2.7,4.2C136,82.2,136.5,80.3,136.3,78.2z"/>
	</g>
	<g>
		<path fill="#FCB145" d="M235.8,80c-1.1-1.6-1.9-3.6-1.9-6c0-5.9,3.7-7.7,6.6-7.7c2.8,0,5.6,1.6,6.6,4.5c0.4,1.2,0.6,2.4,0.6,3.6
			c0,3.2-1.8,8.3-6.8,8.3C239,82.7,237,81.8,235.8,80z M243,74.4c0-3.4-1.6-3.8-2.3-3.8c-0.8,0-2.1,0.6-2.1,3.2c0,0,0.1,4.4,2.2,4.4
			C242.2,78.4,243,76.5,243,74.4z"/>
		<path fill="#FB9A9E" d="M254.8,82.4L254.8,82.4c-0.3,0-0.5-0.2-0.5-0.4l-0.6-10.7l-1.4,0.1h0c-0.2,0-0.4-0.2-0.4-0.5l-0.2-3.6v0
			c0-0.2,0.2-0.4,0.4-0.4l5.8-0.3h0c0.2,0,0.4,0.2,0.4,0.4l0.8,14.8v0c0,0.2-0.2,0.4-0.4,0.4L254.8,82.4z"/>
		<path fill="#FCB145" d="M265.5,80c-1.1-1.6-1.9-3.6-1.9-6c0-5.9,3.7-7.7,6.6-7.7c2.8,0,5.6,1.6,6.6,4.5c0.4,1.2,0.6,2.4,0.6,3.6
			c0,3.2-1.8,8.3-6.8,8.3C268.6,82.7,266.6,81.8,265.5,80z M272.6,74.4c0-3.4-1.6-3.8-2.3-3.8c-0.8,0-2.1,0.6-2.1,3.2
			c0,0,0.1,4.4,2.2,4.4C271.9,78.4,272.6,76.5,272.6,74.4z"/>
		<path fill="#FCB145" d="M280.3,80c-1.1-1.6-1.9-3.6-1.9-6c0-5.9,3.7-7.7,6.6-7.7c2.8,0,5.6,1.6,6.6,4.5c0.4,1.2,0.6,2.4,0.6,3.6
			c0,3.2-1.8,8.3-6.8,8.3C283.4,82.7,281.4,81.8,280.3,80z M287.4,74.4c0-3.4-1.6-3.8-2.3-3.8c-0.8,0-2.1,0.6-2.1,3.2
			c0,0,0.1,4.4,2.2,4.4C286.7,78.4,287.4,76.5,287.4,74.4z"/>
		<path fill="#FB9A9E" d="M299.3,82.4L299.3,82.4c-0.3,0-0.5-0.2-0.5-0.4l-0.6-10.7l-1.4,0.1h0c-0.2,0-0.4-0.2-0.4-0.5l-0.2-3.6v0
			c0-0.2,0.2-0.4,0.4-0.4l5.8-0.3h0c0.2,0,0.4,0.2,0.4,0.4l0.8,14.8v0c0,0.2-0.2,0.4-0.4,0.4L299.3,82.4z"/>
		<path fill="#FB9A9E" d="M314.1,82.4L314.1,82.4c-0.3,0-0.5-0.2-0.5-0.4L313,71.3l-1.4,0.1h0c-0.2,0-0.4-0.2-0.4-0.5l-0.2-3.6v0
			c0-0.2,0.2-0.4,0.4-0.4l5.8-0.3h0c0.2,0,0.4,0.2,0.4,0.4l0.8,14.8v0c0,0.2-0.2,0.4-0.4,0.4L314.1,82.4z"/>
		<path fill="#FCB145" d="M324.7,80c-1.1-1.6-1.9-3.6-1.9-6c0-5.9,3.7-7.7,6.6-7.7c2.8,0,5.6,1.6,6.6,4.5c0.4,1.2,0.6,2.4,0.6,3.6
			c0,3.2-1.8,8.3-6.8,8.3C327.9,82.7,325.9,81.8,324.7,80z M331.9,74.4c0-3.4-1.6-3.8-2.3-3.8c-0.8,0-2.1,0.6-2.1,3.2
			c0,0,0.1,4.4,2.2,4.4C331.2,78.4,331.9,76.5,331.9,74.4z"/>
		<path fill="#FCB145" d="M339.5,80c-1.1-1.6-1.9-3.6-1.9-6c0-5.9,3.7-7.7,6.6-7.7c2.8,0,5.6,1.6,6.6,4.5c0.4,1.2,0.6,2.4,0.6,3.6
			c0,3.2-1.8,8.3-6.8,8.3C342.7,82.7,340.7,81.8,339.5,80z M346.7,74.4c0-3.4-1.6-3.8-2.3-3.8c-0.8,0-2.1,0.6-2.1,3.2
			c0,0,0.1,4.4,2.2,4.4C346,78.4,346.7,76.5,346.7,74.4z"/>
	</g>
	<g>
		<path fill="#FCB145" d="M121,210.2c-1.1-1.6-2-3.5-2.1-6c-0.2-5.9,3.5-7.8,6.4-7.8c2.8-0.1,5.7,1.4,6.7,4.3
			c0.4,1.2,0.7,2.4,0.7,3.6c0.1,3.2-1.6,8.3-6.5,8.4C124.3,212.8,122.2,211.9,121,210.2z M128,204.4c-0.1-3.4-1.7-3.7-2.4-3.7
			c-0.8,0-2.1,0.7-2,3.3c0,0,0.2,4.4,2.3,4.4C127.4,208.4,128.1,206.4,128,204.4z"/>
		<path fill="#FB9A9E" d="M140.1,212.1L140.1,212.1c-0.3,0-0.5-0.2-0.5-0.4l-0.9-10.7l-1.4,0.1l0,0c-0.2,0-0.4-0.2-0.4-0.5l-0.3-3.6
			l0,0c0-0.2,0.2-0.4,0.4-0.4l5.7-0.5l0,0c0.2,0,0.4,0.2,0.4,0.4l1.2,14.8l0,0c0,0.2-0.2,0.4-0.4,0.4L140.1,212.1z"/>
		<path fill="#FCB145" d="M150.7,209.4c-1.1-1.6-2-3.5-2.1-6c-0.2-5.9,3.5-7.8,6.4-7.8c2.8-0.1,5.7,1.4,6.7,4.3
			c0.4,1.2,0.7,2.4,0.7,3.6c0.1,3.2-1.6,8.3-6.5,8.4C153.9,212,151.9,211.1,150.7,209.4z M157.7,203.6c-0.1-3.4-1.7-3.7-2.4-3.7
			c-0.8,0-2.1,0.7-2,3.3c0,0,0.2,4.4,2.3,4.4C157,207.6,157.7,205.7,157.7,203.6z"/>
		<path fill="#FCB145" d="M165.5,209c-1.1-1.6-2-3.5-2.1-6c-0.2-5.9,3.5-7.8,6.4-7.8c2.8-0.1,5.7,1.4,6.7,4.3
			c0.4,1.2,0.7,2.4,0.7,3.6c0.1,3.2-1.6,8.3-6.5,8.4C168.7,211.6,166.7,210.7,165.5,209z M172.5,203.2c-0.1-3.4-1.7-3.7-2.4-3.7
			c-0.8,0-2.1,0.7-2,3.3c0,0,0.2,4.4,2.3,4.4C171.9,207.2,172.5,205.3,172.5,203.2z"/>
		<path fill="#FCB145" d="M180.3,208.6c-1.1-1.6-2-3.5-2.1-6c-0.2-5.9,3.5-7.8,6.4-7.8c2.8-0.1,5.7,1.4,6.7,4.3
			c0.4,1.2,0.7,2.4,0.7,3.6c0.1,3.2-1.6,8.3-6.5,8.4C183.5,211.2,181.5,210.3,180.3,208.6z M187.3,202.9c-0.1-3.4-1.7-3.7-2.4-3.7
			c-0.8,0-2.1,0.7-2,3.3c0,0,0.2,4.4,2.3,4.4C186.7,206.8,187.3,204.9,187.3,202.9z"/>
		<path fill="#FB9A9E" d="M199.4,210.5L199.4,210.5c-0.3,0-0.5-0.2-0.5-0.4l-0.8-10.7l-1.4,0.1l0,0c-0.2,0-0.4-0.2-0.4-0.5l-0.3-3.6
			l0,0c0-0.2,0.2-0.4,0.4-0.4l5.7-0.5l0,0c0.2,0,0.4,0.2,0.4,0.4l1.2,14.8l0,0c0,0.2-0.2,0.4-0.4,0.4L199.4,210.5z"/>
		<path fill="#FCB145" d="M209.9,207.8c-1.1-1.6-2-3.5-2.1-6c-0.2-5.9,3.5-7.8,6.4-7.8c2.8-0.1,5.7,1.4,6.7,4.3
			c0.4,1.2,0.7,2.4,0.7,3.6c0.1,3.2-1.6,8.3-6.5,8.4C213.2,210.5,211.1,209.6,209.9,207.8z M216.9,202.1c-0.1-3.4-1.7-3.7-2.4-3.7
			c-0.8,0-2.1,0.7-2,3.3c0,0,0.2,4.4,2.3,4.4C216.3,206,217,204.1,216.9,202.1z"/>
		<path fill="#FB9A9E" d="M229,209.8L229,209.8c-0.3,0-0.5-0.2-0.5-0.4l-0.9-10.7l-1.4,0.1l0,0c-0.2,0-0.4-0.2-0.4-0.5l-0.3-3.6l0,0
			c0-0.2,0.2-0.4,0.4-0.4l5.7-0.5l0,0c0.2,0,0.4,0.2,0.4,0.4l1.2,14.8l0,0c0,0.2-0.2,0.4-0.4,0.4L229,209.8z"/>
	</g>
	<g>
		<path fill="#FCB145" d="M239.8,305.9c-1.2-1.5-2.2-3.4-2.4-5.8c-0.5-5.9,3-8,6-8.2c2.8-0.2,5.7,1.1,6.9,3.9
			c0.5,1.2,0.8,2.4,0.9,3.6c0.3,3.2-1.1,8.4-6,8.8C243.2,308.3,241.1,307.5,239.8,305.9z M246.4,299.7c-0.3-3.4-1.9-3.6-2.6-3.6
			c-0.8,0.1-2,0.8-1.8,3.4c0,0,0.5,4.4,2.6,4.2C246.1,303.7,246.6,301.7,246.4,299.7z"/>
		<path fill="#FB9A9E" d="M258.9,306.7L258.9,306.7c-0.3,0-0.5-0.2-0.5-0.4l-1.5-10.6l-1.4,0.2l0,0c-0.2,0-0.4-0.2-0.4-0.4l-0.5-3.6
			l0,0c0-0.2,0.2-0.4,0.4-0.5l5.7-0.8l0,0c0.2,0,0.4,0.2,0.5,0.4l2,14.7l0,0c0,0.2-0.2,0.5-0.4,0.5L258.9,306.7z"/>
		<path fill="#FCB145" d="M269.3,303.4c-1.2-1.5-2.2-3.4-2.4-5.8c-0.5-5.9,3-8,6-8.2c2.8-0.2,5.7,1.1,6.9,3.9
			c0.5,1.2,0.8,2.4,0.9,3.6c0.3,3.2-1.1,8.4-6,8.8C272.7,305.8,270.6,305,269.3,303.4z M276,297.2c-0.3-3.4-1.9-3.6-2.6-3.6
			c-0.8,0.1-2,0.8-1.8,3.4c0,0,0.5,4.4,2.6,4.2C275.6,301.2,276.1,299.2,276,297.2z"/>
		<path fill="#FCB145" d="M284.1,302.1c-1.2-1.5-2.2-3.4-2.4-5.8c-0.5-5.9,3-8,6-8.2c2.8-0.2,5.7,1.1,6.9,3.9
			c0.5,1.2,0.8,2.4,0.9,3.6c0.3,3.2-1.1,8.4-6,8.8C287.5,304.5,285.4,303.7,284.1,302.1z M290.7,295.9c-0.3-3.4-1.9-3.6-2.6-3.6
			c-0.8,0.1-2,0.8-1.8,3.4c0,0,0.5,4.4,2.6,4.2C290.3,299.9,290.9,297.9,290.7,295.9z"/>
		<path fill="#FB9A9E" d="M303.2,302.9L303.2,302.9c-0.3,0-0.5-0.2-0.5-0.4l-1.5-10.6l-1.4,0.2l0,0c-0.2,0-0.4-0.2-0.4-0.4l-0.5-3.6
			l0,0c0-0.2,0.2-0.4,0.4-0.5l5.7-0.8l0,0c0.2,0,0.4,0.2,0.5,0.4l2,14.7l0,0c0,0.2-0.2,0.5-0.4,0.5L303.2,302.9z"/>
		<path fill="#FB9A9E" d="M318,301.6L318,301.6c-0.3,0-0.5-0.2-0.5-0.4l-1.5-10.6l-1.4,0.2l0,0c-0.2,0-0.4-0.2-0.4-0.4l-0.5-3.6l0,0
			c0-0.2,0.2-0.4,0.4-0.5l5.7-0.8l0,0c0.2,0,0.4,0.2,0.5,0.4l2,14.7l0,0c0,0.2-0.2,0.5-0.4,0.5L318,301.6z"/>
		<path fill="#FCB145" d="M328.4,298.3c-1.2-1.5-2.2-3.4-2.4-5.8c-0.5-5.9,3-8,6-8.2c2.8-0.2,5.7,1.1,6.9,3.9
			c0.5,1.2,0.8,2.4,0.9,3.6c0.3,3.2-1.1,8.4-6,8.8C331.8,300.7,329.7,299.9,328.4,298.3z M335,292.1c-0.3-3.4-1.9-3.6-2.6-3.6
			c-0.8,0.1-2,0.8-1.8,3.4c0,0,0.5,4.4,2.6,4.2C334.6,296.1,335.2,294.2,335,292.1z"/>
		<path fill="#FCB145" d="M343.2,297c-1.2-1.5-2.2-3.4-2.4-5.8c-0.5-5.9,3-8,6-8.2c2.8-0.2,5.7,1.1,6.9,3.9c0.5,1.2,0.8,2.4,0.9,3.6
			c0.3,3.2-1.1,8.4-6,8.8C346.5,299.5,344.5,298.7,343.2,297z M349.8,290.9c-0.3-3.4-1.9-3.6-2.6-3.6c-0.8,0.1-2,0.8-1.8,3.4
			c0,0,0.5,4.4,2.6,4.2C349.4,294.8,350,292.9,349.8,290.9z"/>
	</g>
	<g>
		<path fill="#FCB145" d="M338.4,200.4c-1.1-1.6-1.9-3.6-1.9-6c0-5.9,3.7-7.7,6.7-7.6c2.8,0,5.6,1.6,6.6,4.5
			c0.4,1.2,0.6,2.4,0.6,3.7c0,3.2-1.8,8.3-6.8,8.2C341.6,203.1,339.6,202.1,338.4,200.4z M345.6,194.8c0-3.4-1.6-3.8-2.3-3.8
			c-0.8,0-2.1,0.6-2.1,3.2c0,0,0.1,4.4,2.2,4.5C344.9,198.7,345.6,196.9,345.6,194.8z"/>
		<path fill="#FB9A9E" d="M357.4,202.9L357.4,202.9c-0.3,0-0.5-0.2-0.5-0.4l-0.5-10.7l-1.4,0.1h0c-0.2,0-0.4-0.2-0.4-0.5l-0.2-3.6v0
			c0-0.2,0.2-0.4,0.4-0.4l5.8-0.3h0c0.2,0,0.4,0.2,0.4,0.4l0.7,14.8v0c0,0.2-0.2,0.4-0.4,0.4L357.4,202.9z"/>
		<path fill="#FCB145" d="M368.1,200.5c-1.1-1.6-1.9-3.6-1.9-6c0-5.9,3.7-7.7,6.7-7.6c2.8,0,5.6,1.6,6.6,4.5
			c0.4,1.2,0.6,2.4,0.6,3.7c0,3.2-1.8,8.3-6.8,8.2C371.2,203.2,369.2,202.3,368.1,200.5z M375.3,195c0-3.4-1.6-3.8-2.3-3.8
			c-0.8,0-2.1,0.6-2.1,3.2c0,0,0.1,4.4,2.2,4.5C374.5,198.9,375.2,197,375.3,195z"/>
		<path fill="#FCB145" d="M382.9,200.6c-1.1-1.6-1.9-3.6-1.9-6c0-5.9,3.7-7.7,6.7-7.6c2.8,0,5.6,1.6,6.6,4.5
			c0.4,1.2,0.6,2.4,0.6,3.7c0,3.2-1.8,8.3-6.8,8.2C386,203.3,384.1,202.3,382.9,200.6z M390.1,195c0-3.4-1.6-3.8-2.3-3.8
			c-0.8,0-2.1,0.6-2.1,3.2c0,0,0.1,4.4,2.2,4.5C389.3,199,390.1,197.1,390.1,195z"/>
		<path fill="#FB9A9E" d="M401.9,203.1L401.9,203.1c-0.3,0-0.5-0.2-0.5-0.4l-0.5-10.7l-1.4,0.1h0c-0.2,0-0.4-0.2-0.4-0.5l-0.2-3.6v0
			c0-0.2,0.2-0.4,0.4-0.4l5.8-0.3h0c0.2,0,0.4,0.2,0.4,0.4l0.7,14.8v0c0,0.2-0.2,0.4-0.4,0.4L401.9,203.1z"/>
		<path fill="#FB9A9E" d="M416.7,203.1L416.7,203.1c-0.3,0-0.5-0.2-0.5-0.4l-0.5-10.7l-1.4,0.1h0c-0.2,0-0.4-0.2-0.4-0.5l-0.2-3.6v0
			c0-0.2,0.2-0.4,0.4-0.4l5.8-0.3h0c0.2,0,0.4,0.2,0.4,0.4l0.7,14.8v0c0,0.2-0.2,0.4-0.4,0.4L416.7,203.1z"/>
		<path fill="#FB9A9E" d="M431.5,203.2L431.5,203.2c-0.3,0-0.5-0.2-0.5-0.4l-0.5-10.7l-1.4,0.1h0c-0.2,0-0.4-0.2-0.4-0.5l-0.2-3.6v0
			c0-0.2,0.2-0.4,0.4-0.4l5.8-0.3h0c0.2,0,0.4,0.2,0.4,0.4l0.7,14.8v0c0,0.2-0.2,0.4-0.4,0.4L431.5,203.2z"/>
		<path fill="#FB9A9E" d="M446.4,203.3L446.4,203.3c-0.3,0-0.5-0.2-0.5-0.4l-0.5-10.7l-1.4,0.1h0c-0.2,0-0.4-0.2-0.4-0.5l-0.2-3.6v0
			c0-0.2,0.2-0.4,0.4-0.4l5.8-0.3l0,0c0.2,0,0.4,0.2,0.4,0.4l0.7,14.8v0c0,0.2-0.2,0.4-0.4,0.4L446.4,203.3z"/>
	</g>
</g>
<g id="Arrows">
	<path fill="#FA9A9E" d="M507.9,180.2c6.3-1.3,7.1,1.9,6.2,6.9C510,210.6,506,234,502,257.5c-0.9,5-11.1,9.4-15.5,6.7
		c-2.9-1.8-1.2-4.3-0.9-6.1c3.2-20.1,6.7-40.2,10.1-60.4c0.5-2.9,1.4-5.8,1.5-8.7C497.6,182,501.4,179.4,507.9,180.2z"/>
	<path fill="#FB7777" d="M50.8,155c5.2,1.8,9,3.2,12.9,4.4c2,0.6,4,1.2,5.1,3.1c2.6,4.3,6.2,9.5,3.2,13.8c-2.5,3.6-7.5-0.4-11.2-1.6
		c-8.9-2.9-17.6-6.1-26.4-9.1c-3.7-1.3-6.4-3.1-6.9-7.5c-0.4-4.1,1.7-6.2,4.7-8.3c9.9-6.5,19.8-13.1,29.5-19.8
		c3.2-2.2,4.5-1.7,5.8,2c2.3,6.7,0.9,11.9-5.1,16.1C59,150.3,55.4,152.2,50.8,155z"/>
	<path fill="#FB7777" d="M539.1,223.5c-5.5-1.9-9.9-3.4-14.4-5c-3.4-1.2-6.1-3.3-6.9-6.9c-0.8-3.3-1.9-7.2,0.6-9.8
		c2.5-2.6,5.5,0.3,8.1,1.2c9.9,3.5,19.6,7.3,29.4,11c3.3,1.2,6.3,2.6,6.5,6.9c0.2,3.9-1.3,6.5-4.5,8.5c-9.9,6.1-19.8,12.1-29.6,18.4
		c-4.6,2.9-6.1,0.9-6.8-3.3c-1.1-6.1-0.2-11.2,6.2-14.2C531.4,228.4,534.7,226,539.1,223.5z"/>
</g>
</svg>
